<?xml version="1.0" encoding="UTF-8"?>
<svg version="1.1" xmlns="http://www.w3.org/2000/svg" width="512" height="512">
<path d="M0 0 C1.10794922 -0.01260864 2.21589844 -0.02521729 3.35742188 -0.03820801 C4.54916016 -0.03011108 5.74089844 -0.02201416 6.96875 -0.01367188 C8.19658203 -0.01749878 9.42441406 -0.02132568 10.68945312 -0.02526855 C13.28516459 -0.02799029 15.88090336 -0.02061099 18.4765625 -0.00390625 C22.45374599 0.01749738 26.42912282 -0.0037015 30.40625 -0.02929688 C32.92708733 -0.02665365 35.44792353 -0.02152878 37.96875 -0.01367188 C39.16048828 -0.0217688 40.35222656 -0.02986572 41.58007812 -0.03820801 C43.24200195 -0.01929504 43.24200195 -0.01929504 44.9375 0 C46.39833008 0.00477356 46.39833008 0.00477356 47.88867188 0.00964355 C51.30361742 0.68193672 52.33130715 1.79239276 54.46875 4.51757812 C54.92285156 7.54199219 54.92285156 7.54199219 54.859375 11.03320312 C54.84648438 12.28359375 54.83359375 13.53398437 54.8203125 14.82226562 C54.78679687 16.12421875 54.75328125 17.42617188 54.71875 18.76757812 C54.70070313 20.085 54.68265625 21.40242188 54.6640625 22.75976562 C54.61691271 26.0131012 54.55111044 29.26497437 54.46875 32.51757812 C56.1639509 32.51204737 56.1639509 32.51204737 57.89339828 32.50640488 C85.36717258 32.41768392 112.84092833 32.35191187 140.31481552 32.31032944 C153.60088684 32.289687 166.88684185 32.26153425 180.17285156 32.21582031 C191.75028363 32.1760041 203.32764726 32.15015755 214.90514588 32.14122415 C221.03775899 32.13600058 227.17017628 32.12368826 233.30272675 32.0946579 C239.07122491 32.06757133 244.83944599 32.0591195 250.60800171 32.0651474 C252.72846226 32.06404414 254.84893178 32.05605029 256.96933746 32.04075623 C259.85846243 32.02093428 262.74653318 32.02561057 265.63568115 32.03656006 C266.48003841 32.02490869 267.32439567 32.01325733 268.19433951 32.00125289 C271.82700212 32.03861671 274.01281805 32.18518326 276.99075317 34.35623169 C279.06525835 37.38988122 278.94993949 39.55699705 278.92285156 43.21386719 C278.92343567 43.87769409 278.92401978 44.541521 278.92462158 45.22546387 C278.92184265 47.41191551 278.89076328 49.59699075 278.859375 51.78320312 C278.85191184 53.30205541 278.84621926 54.82091735 278.84222412 56.33978271 C278.82697341 60.33161138 278.78769723 64.3228551 278.7434082 68.31445312 C278.70244289 72.38989347 278.68421046 76.46542861 278.6640625 80.54101562 C278.62120159 88.53350108 278.5508571 96.52539938 278.46875 104.51757812 C273.18875 104.51757812 267.90875 104.51757812 262.46875 104.51757812 C262.46875 87.02757812 262.46875 69.53757812 262.46875 51.51757812 C257.44785156 52.78214844 252.42695313 54.04671875 247.25390625 55.34960938 C222.48131111 61.55841742 197.63602948 67.46171741 172.79151821 73.37470627 C168.71808275 74.34420052 164.64471225 75.3139674 160.57137871 76.28388977 C158.55428787 76.76414254 156.53716384 77.24425588 154.52000618 77.72422791 C142.36514813 80.61715188 130.21987895 83.54460832 118.08904076 86.53665352 C113.38553925 87.69455466 108.67885648 88.83948318 103.97268677 89.98648071 C101.54979874 90.58120107 99.12855964 91.18268829 96.709198 91.79159546 C83.75479692 95.05056645 71.86066707 97.4479712 58.46875 96.51757812 C58.63982678 97.41998765 58.63982678 97.41998765 58.81435966 98.34062767 C60.76495059 109.26987255 61.86783505 120.29870728 63.08251953 131.32861328 C63.33868943 133.63255876 63.59514652 135.93647232 63.85186768 138.24035645 C64.54480021 144.46652514 65.23365361 150.69313894 65.92169428 156.91984987 C66.64281476 163.44009088 67.36751192 169.95993439 68.09176636 176.47982788 C69.3061732 187.41582027 70.51790138 198.35210736 71.72802734 209.28857422 C72.97330796 220.54271575 74.22060417 231.79663139 75.47021484 243.05029297 C75.54735128 243.74496645 75.62448772 244.43963992 75.70396163 245.15536411 C75.85935763 246.5548134 76.01475377 247.95426267 76.17015003 249.35371193 C76.2468048 250.04404397 76.32345957 250.73437601 76.40243721 251.44562721 C76.47889967 252.13422132 76.55536213 252.82281542 76.63414163 253.53227601 C77.89784769 264.91347038 79.15962749 276.29487839 80.4213233 287.67629576 C80.85229377 291.563236 81.28352318 295.45014745 81.71478653 299.33705521 C82.39057344 305.42889911 83.06519635 311.52087084 83.73889923 317.61294556 C83.98685461 319.8536124 84.23518409 322.09423788 84.48390579 324.33481979 C84.82200558 327.38119271 85.15876082 330.42771122 85.49514771 333.47427368 C85.59494812 334.37074446 85.69474854 335.26721524 85.79757321 336.19085181 C86.46875 342.2891603 86.46875 342.2891603 86.46875 344.51757812 C87.14535549 344.51389095 87.82196098 344.51020378 88.51906967 344.50640488 C104.97717419 344.41809382 121.43520372 344.3518881 137.89348984 344.31032944 C145.85258235 344.28969813 153.81151677 344.26156684 161.77050781 344.21582031 C168.70702158 344.17596974 175.64342088 344.15014944 182.58004594 344.14122415 C186.25349742 344.1360063 189.92662138 344.12373122 193.59996796 344.0946579 C197.69928051 344.06247592 201.79802251 344.06161755 205.89746094 344.06347656 C207.11737732 344.04909546 208.3372937 344.03471436 209.59417725 344.01989746 C210.71034424 344.02539612 211.82651123 344.03089478 212.97650146 344.03656006 C213.94622768 344.03287289 214.9159539 344.02918571 215.91506577 344.02538681 C219.20490793 344.65946354 220.39401685 345.945509 222.46875 348.51757812 C222.97668457 350.49023438 222.97668457 350.49023438 222.98632812 352.58007812 C223.00524109 353.76150391 223.00524109 353.76150391 223.02453613 354.96679688 C223.01239075 356.22943359 223.01239075 356.22943359 223 357.51757812 C223.0038269 358.39027344 223.00765381 359.26296875 223.01159668 360.16210938 C223.0143149 362.00456905 223.00695994 363.84706737 222.99023438 365.68945312 C222.96882248 368.50803746 222.99003801 371.32407297 223.015625 374.14257812 C223.01298171 375.93425041 223.00785669 377.72592111 223 379.51757812 C223.00809692 380.35933594 223.01619385 381.20109375 223.02453613 382.06835938 C222.96434313 385.82840249 222.89404509 387.89555115 220.73339844 391.05566406 C218.11903573 392.74333158 216.78951467 392.98734132 213.703125 392.90820312 C212.36894531 392.88886719 212.36894531 392.88886719 211.0078125 392.86914062 C209.62722656 392.81886719 209.62722656 392.81886719 208.21875 392.76757812 C207.28289062 392.74953125 206.34703125 392.73148437 205.3828125 392.71289062 C203.07768562 392.66584722 200.77308646 392.5941059 198.46875 392.51757812 C198.46875 397.79757812 198.46875 403.07757813 198.46875 408.51757812 C199.75007812 408.47117187 201.03140625 408.42476563 202.3515625 408.37695312 C223.40925124 407.84198615 238.59368426 413.29667942 254.46875 427.51757812 C256.3348771 429.345621 258.16054191 431.18926094 259.93359375 433.10742188 C261.65059043 434.68461221 263.37563786 435.51517091 265.46875 436.51757812 C265.03225632 435.0334996 265.03225632 435.0334996 264.58694458 433.5194397 C251.90429687 390.3984375 251.90429687 390.3984375 251.06782913 387.55430984 C250.51224132 385.66540281 249.95655438 383.77652494 249.40076828 381.88767624 C248.02032238 377.19575566 246.64158188 372.50334725 245.26641846 367.80987549 C242.92670231 359.83007695 240.58092247 351.85308425 238.15934181 343.89767647 C237.20515968 340.76183835 236.25926971 337.62352538 235.31377792 334.48505783 C234.87735803 333.04590935 234.43653831 331.60808621 233.99087906 330.171772 C229.50679948 315.71796614 229.50679948 315.71796614 230.46875 308.51757812 C234.46875 304.51757812 234.46875 304.51757812 253.46875 297.51757812 C253.79875 281.34757812 254.12875 265.17757812 254.46875 248.51757812 C247.86875 248.51757812 241.26875 248.51757812 234.46875 248.51757812 C229.9676057 244.01643383 229.9676057 244.01643383 229.95117188 240.45507812 C229.93856323 239.66746094 229.92595459 238.87984375 229.91296387 238.06835938 C229.92106079 237.22660156 229.92915771 236.38484375 229.9375 235.51757812 C229.9336731 234.64488281 229.92984619 233.7721875 229.92590332 232.87304688 C229.9231851 231.0305872 229.93054006 229.18808888 229.94726562 227.34570312 C229.96867752 224.52711879 229.94746199 221.71108328 229.921875 218.89257812 C229.92451829 217.10090584 229.92964331 215.30923514 229.9375 213.51757812 C229.92940308 212.67582031 229.92130615 211.8340625 229.91296387 210.96679688 C229.96911844 207.45902008 230.15640186 205.10371012 231.82128906 201.97949219 C236.15323642 199.58741355 240.49932277 200.02947248 245.359375 200.12695312 C246.94900055 200.13544281 246.94900055 200.13544281 248.57073975 200.144104 C251.95387028 200.16648572 255.33593984 200.21668714 258.71875 200.26757812 C261.01300553 200.28764073 263.30727767 200.30589191 265.6015625 200.32226562 C271.22432003 200.36635633 276.84645921 200.43328677 282.46875 200.51757812 C282.76952454 199.90029846 283.07029907 199.2830188 283.38018799 198.64703369 C284.56849207 196.32246172 285.95920861 194.3473801 287.515625 192.25195312 C288.11375 191.44371094 288.711875 190.63546875 289.328125 189.80273438 C290.26398438 188.54783203 290.26398438 188.54783203 291.21875 187.26757812 C291.8271875 186.44644531 292.435625 185.6253125 293.0625 184.77929688 C294.27263072 183.147689 295.48548531 181.51809752 296.70117188 179.890625 C297.87150014 178.31941081 299.03439274 176.74262831 300.18945312 175.16015625 C300.71990234 174.43763672 301.25035156 173.71511719 301.796875 172.97070312 C302.26512695 172.3277832 302.73337891 171.68486328 303.21582031 171.02246094 C304.46875 169.51757812 304.46875 169.51757812 306.46875 168.51757812 C308.50930005 168.44692196 310.55209257 168.43335837 312.59375 168.45507812 C313.68945312 168.46410156 314.78515625 168.473125 315.9140625 168.48242188 C317.17863281 168.49982422 317.17863281 168.49982422 318.46875 168.51757812 C318.4373291 167.64020996 318.4373291 167.64020996 318.40527344 166.74511719 C318.32194885 164.08611347 318.27004103 161.42738457 318.21875 158.76757812 C318.16847656 157.38699219 318.16847656 157.38699219 318.1171875 155.97851562 C318.10429687 155.0890625 318.09140625 154.19960937 318.078125 153.28320312 C318.05717773 152.46625977 318.03623047 151.64931641 318.01464844 150.80761719 C318.67682833 147.46823689 319.65388775 146.44216844 322.46875 144.51757812 C325.47059559 143.9329472 328.4180981 143.9569837 331.46875 143.98632812 C332.34144531 143.98250122 333.21414063 143.97867432 334.11328125 143.97473145 C335.95574092 143.97201322 337.79823924 143.97936818 339.640625 143.99609375 C342.45920934 144.01750565 345.27524485 143.99629011 348.09375 143.97070312 C349.88542229 143.97334642 351.67709299 143.97847143 353.46875 143.98632812 C354.31050781 143.9782312 355.15226562 143.97013428 356.01953125 143.96179199 C359.77957437 144.02198499 361.84672303 144.09228304 365.00683594 146.25292969 C366.69450346 148.8672924 366.9385132 150.19681346 366.859375 153.28320312 C366.84648437 154.17265625 366.83359375 155.06210938 366.8203125 155.97851562 C366.77003906 157.35910156 366.77003906 157.35910156 366.71875 158.76757812 C366.70070313 159.7034375 366.68265625 160.63929688 366.6640625 161.60351562 C366.61700673 163.90924828 366.55128713 166.21288757 366.46875 168.51757812 C367.68111328 168.43056641 367.68111328 168.43056641 368.91796875 168.34179688 C369.98660156 168.29667969 371.05523437 168.2515625 372.15625 168.20507812 C373.21199219 168.14707031 374.26773437 168.0890625 375.35546875 168.02929688 C379.45049121 168.67155259 381.00105866 170.41048149 383.46875 173.51757812 C384.37935181 174.66383667 384.37935181 174.66383667 385.30834961 175.83325195 C387.4316048 178.56184671 389.51661341 181.31623791 391.59375 184.08007812 C392.30917969 185.02560547 393.02460938 185.97113281 393.76171875 186.9453125 C395.6681142 189.46638686 397.57013258 191.99064319 399.46875 194.51757812 C400.03835449 195.23550537 400.60795898 195.95343262 401.19482422 196.69311523 C402.46875 198.51757812 402.46875 198.51757812 402.46875 200.51757812 C403.06121521 200.50869568 403.65368042 200.49981323 404.26409912 200.49066162 C410.42824662 200.40219517 416.59221393 200.34184687 422.75683594 200.29785156 C425.05769169 200.27773124 427.35849629 200.25043179 429.65917969 200.21582031 C432.96562317 200.167322 436.27139085 200.14461334 439.578125 200.12695312 C440.60742126 200.10630798 441.63671753 200.08566284 442.69720459 200.06439209 C449.64409399 200.0622074 449.64409399 200.0622074 453.11621094 201.97949219 C455.14945072 205.79493638 455.04101625 209.25352067 455 213.51757812 C455.0038269 214.39027344 455.00765381 215.26296875 455.01159668 216.16210938 C455.0143149 218.00456905 455.00695994 219.84706737 454.99023438 221.68945312 C454.96882248 224.50803746 454.99003801 227.32407297 455.015625 230.14257812 C455.01298171 231.93425041 455.00785669 233.72592111 455 235.51757812 C455.00809692 236.35933594 455.01619385 237.20109375 455.02453613 238.06835938 C455.00562317 239.24978516 455.00562317 239.24978516 454.98632812 240.45507812 C454.98314575 241.14472656 454.97996338 241.834375 454.97668457 242.54492188 C454.46875 244.51757812 454.46875 244.51757812 450.46875 248.51757812 C443.86875 248.51757812 437.26875 248.51757812 430.46875 248.51757812 C430.79875 264.68757813 431.12875 280.85757813 431.46875 297.51757812 C437.73875 299.82757813 444.00875 302.13757813 450.46875 304.51757812 C454.46875 308.51757812 454.46875 308.51757812 454.93503475 310.58401299 C454.73200686 315.95345682 453.89524995 320.71994769 452.31665039 325.85009766 C451.97257645 327.02095665 451.97257645 327.02095665 451.62155151 328.21546936 C450.86464937 330.78067444 450.09062652 333.34036461 449.31640625 335.90039062 C448.7763667 337.71865939 448.23744319 339.53725996 447.6995697 341.35617065 C446.27853096 346.15115373 444.84307366 350.94169836 443.40429688 355.73138428 C441.97691049 360.49103532 440.56192164 365.25436265 439.14648438 370.01757812 C437.49058398 375.58759246 435.83369966 381.15730017 434.17056274 386.72515869 C429.51982807 402.2986826 424.96574509 417.89900493 420.46875 433.51757812 C423.68032295 431.00337752 426.28859436 428.73358325 428.66015625 425.40820312 C429.21251953 424.65410156 429.76488281 423.9 430.33398438 423.12304688 C431.47424609 421.5405893 432.60959929 419.95458426 433.74023438 418.36523438 C434.29130859 417.61628906 434.84238281 416.86734375 435.41015625 416.09570312 C435.90201416 415.40895508 436.39387207 414.72220703 436.90063477 414.01464844 C438.46875 412.51757812 438.46875 412.51757812 442.46875 412.51757812 C445.265625 414.26757812 445.265625 414.26757812 448.21875 416.51757812 C449.20359375 417.26007813 450.1884375 418.00257813 451.203125 418.76757812 C451.95078125 419.34507812 452.6984375 419.92257812 453.46875 420.51757812 C452.14564238 423.32714477 450.66048709 425.75667636 448.7890625 428.23242188 C448.27214844 428.91884766 447.75523437 429.60527344 447.22265625 430.3125 C446.68511719 431.01955078 446.14757812 431.72660156 445.59375 432.45507812 C445.06394531 433.15826172 444.53414063 433.86144531 443.98828125 434.5859375 C442.48991454 436.56950732 440.98041652 438.54413754 439.46875 440.51757812 C438.77652344 441.43539063 438.08429688 442.35320312 437.37109375 443.29882812 C431.22039574 450.47253751 421.80108488 455.73190942 412.38623047 456.74072266 C400.16296674 457.58125319 390.36642685 456.18758214 380.5234375 448.41992188 C378.02073495 446.10278092 375.83373096 443.58902045 373.59375 441.01757812 C365.4930696 431.88725535 355.07482157 426.52092224 342.84765625 425.52148438 C331.80121668 425.50334572 322.44056997 429.31179577 314.59375 437.01757812 C312.42279445 439.29267545 310.43368808 441.56390236 308.53515625 444.07226562 C306.31394213 446.70077232 304.18400452 448.30793674 301.28125 450.14257812 C300.40082031 450.71234375 299.52039063 451.28210938 298.61328125 451.86914062 C291.54983491 455.57196591 285.04588734 457.05919776 277.09375 456.95507812 C276.26230469 456.94605469 275.43085938 456.93703125 274.57421875 456.92773438 C260.87049883 456.54291853 250.76872714 450.20625899 241.40625 440.39257812 C232.83263888 431.50529831 220.65347791 426.15785424 208.33984375 425.49414062 C191.92277269 425.62815753 180.06800478 432.35928675 168.46875 443.51757812 C155.90819988 454.53970427 145.25609651 457.49841281 128.84082031 456.73535156 C115.79737704 455.53786789 106.22874782 447.00373478 98.17578125 437.40429688 C91.68734336 430.23286553 83.54931415 426.28347598 73.94140625 425.52539062 C62.01861912 425.48771989 50.82766694 429.77547361 42.0390625 437.88476562 C40.29116226 439.70223404 38.66193136 441.59439786 37.03125 443.51757812 C30.90760339 450.65046716 24.06398245 455.75234418 14.52050781 456.71386719 C0.93599098 457.68637425 -11.10099293 455.56404817 -21.765625 446.43554688 C-25.79943566 442.40020128 -29.20749015 437.79957641 -32.65625 433.26757812 C-33.33284668 432.3793335 -34.00944336 431.49108887 -34.70654297 430.57592773 C-35.33189941 429.72651611 -35.95725586 428.87710449 -36.6015625 428.00195312 C-37.16633301 427.23592773 -37.73110352 426.46990234 -38.31298828 425.68066406 C-39.53125 423.51757812 -39.53125 423.51757812 -39.53125 419.51757812 C-37.125 417.37695313 -37.125 417.37695313 -34.03125 415.26757812 C-32.49984375 414.20796875 -32.49984375 414.20796875 -30.9375 413.12695312 C-30.1434375 412.59585937 -29.349375 412.06476563 -28.53125 411.51757812 C-24.53125 413.51757812 -24.53125 413.51757812 -18.53125 421.51757812 C-18.20125 411.94757813 -17.87125 402.37757813 -17.53125 392.51757812 C-23.93379656 392.67537974 -23.93379656 392.67537974 -30.33496094 392.87792969 C-31.13708008 392.88791992 -31.93919922 392.89791016 -32.765625 392.90820312 C-33.58256836 392.92915039 -34.39951172 392.95009766 -35.24121094 392.97167969 C-38.52809358 392.31990978 -39.50737027 391.18714938 -41.53125 388.51757812 C-41.95832824 385.58054605 -42.13543421 383.02791509 -42.12828064 380.08744812 C-42.13901662 379.2303607 -42.14975261 378.37327328 -42.16081393 377.49021351 C-42.1838206 374.61416878 -42.16963424 371.74005628 -42.14819336 368.86401367 C-42.14514879 367.85545928 -42.14210422 366.8469049 -42.13896739 365.80778825 C-42.00534322 339.9931058 -39.09451743 314.49586138 -36.11209607 288.88348222 C-35.41909451 282.88964221 -34.75000632 276.89316105 -34.08017444 270.89669927 C-32.75707494 259.05925981 -31.41128669 247.22452356 -30.05053711 235.39135742 C-28.73393505 223.94172758 -27.43035709 212.49072298 -26.14233398 201.0378418 C-26.06225051 200.32578336 -25.98216703 199.61372493 -25.89965678 198.88008896 C-25.57766403 196.01673947 -25.25573257 193.15338311 -24.93388871 190.29001688 C-22.48223876 168.48136932 -20.02055027 146.67372842 -17.51719666 124.87095642 C-17.25688744 122.60021099 -16.99766599 120.32934058 -16.7395916 118.05834007 C-16.38833675 114.96986862 -16.03302372 111.88189197 -15.67652893 108.79402161 C-15.57438617 107.8886372 -15.47224341 106.9832528 -15.36700541 106.0504325 C-15.22294131 104.81432732 -15.22294131 104.81432732 -15.07596684 103.55325031 C-14.99432696 102.84114849 -14.91268709 102.12904667 -14.82857329 101.39536601 C-14.53125 99.51757813 -14.53125 99.51757813 -13.53125 96.51757812 C-14.63984375 96.56398438 -15.7484375 96.61039062 -16.890625 96.65820312 C-18.35413968 96.69572914 -19.81768356 96.73212842 -21.28125 96.76757812 C-22.01085937 96.80109375 -22.74046875 96.83460937 -23.4921875 96.86914062 C-26.87624087 96.93066887 -28.99981391 96.92110687 -31.74206543 94.83886719 C-33.93731313 91.99075159 -34.03717747 90.55172206 -34.04882812 86.98632812 C-34.06143677 85.87837891 -34.07404541 84.77042969 -34.08703613 83.62890625 C-34.07489075 81.84129883 -34.07489075 81.84129883 -34.0625 80.01757812 C-34.06824036 78.17583008 -34.06824036 78.17583008 -34.07409668 76.296875 C-34.07681842 73.70116353 -34.06943911 71.10542476 -34.05273438 68.50976562 C-34.03133075 64.53258213 -34.05252963 60.55720531 -34.078125 56.58007812 C-34.07548177 54.0592408 -34.07035691 51.53840459 -34.0625 49.01757812 C-34.07059692 47.82583984 -34.07869385 46.63410156 -34.08703613 45.40625 C-34.07442749 44.29830078 -34.06181885 43.19035156 -34.04882812 42.04882812 C-34.04564575 41.07494141 -34.04246338 40.10105469 -34.03918457 39.09765625 C-33.38806261 35.79025088 -32.13389506 34.59236405 -29.53125 32.51757812 C-27.24121094 32.06347656 -27.24121094 32.06347656 -24.765625 32.12695312 C-23.43144531 32.14628906 -23.43144531 32.14628906 -22.0703125 32.16601562 C-20.68972656 32.21628906 -20.68972656 32.21628906 -19.28125 32.26757812 C-18.34539063 32.285625 -17.40953125 32.30367187 -16.4453125 32.32226562 C-14.13957985 32.36932139 -11.83594055 32.435041 -9.53125 32.51757812 C-9.55219727 31.69032227 -9.57314453 30.86306641 -9.59472656 30.01074219 C-9.67786619 26.26314442 -9.72990531 22.51574063 -9.78125 18.76757812 C-9.83152344 16.81464844 -9.83152344 16.81464844 -9.8828125 14.82226562 C-9.89570312 13.571875 -9.90859375 12.32148438 -9.921875 11.03320312 C-9.94282227 9.88110352 -9.96376953 8.72900391 -9.98535156 7.54199219 C-9.10045067 1.64836193 -5.60110744 0.01830276 0 0 Z M6.46875 16.51757812 C6.46875 21.79757813 6.46875 27.07757813 6.46875 32.51757812 C17.02875 32.51757812 27.58875 32.51757812 38.46875 32.51757812 C38.46875 27.23757812 38.46875 21.95757812 38.46875 16.51757812 C27.90875 16.51757812 17.34875 16.51757812 6.46875 16.51757812 Z M-17.53125 48.51757812 C-17.53125 59.07757813 -17.53125 69.63757813 -17.53125 80.51757812 C8.86875 80.51757812 35.26875 80.51757812 62.46875 80.51757812 C62.46875 69.95757812 62.46875 59.39757812 62.46875 48.51757812 C36.06875 48.51757812 9.66875 48.51757812 -17.53125 48.51757812 Z M78.46875 48.51757812 C78.46875 58.08757812 78.46875 67.65757813 78.46875 77.51757812 C86.35629427 76.20298741 94.00610001 74.79248867 101.74511719 72.90380859 C102.80025513 72.64992371 103.85539307 72.39603882 104.94250488 72.13446045 C108.38452071 71.30521422 111.82506959 70.47004839 115.265625 69.63476562 C117.66977195 69.05432938 120.07400926 68.47426727 122.47833252 67.89456177 C128.77226742 66.37597931 135.06497034 64.85235228 141.35742188 63.32763672 C147.79222598 61.7693856 154.2281938 60.21595647 160.6640625 58.66210938 C173.26676208 55.61862467 185.86820449 52.56996807 198.46875 49.51757812 C198.46875 49.18757813 198.46875 48.85757813 198.46875 48.51757812 C158.86875 48.51757812 119.26875 48.51757812 78.46875 48.51757812 Z M3.46875 96.51757812 C2.80875 101.13757813 2.14875 105.75757812 1.46875 110.51757812 C1.22125 112.07347656 0.97375 113.629375 0.71875 115.23242188 C0.86045345 120.69686109 4.86307218 123.82232834 8.578125 127.41796875 C9.53203125 128.29646484 10.4859375 129.17496094 11.46875 130.08007812 C12.43433658 131.00046359 13.39790205 131.92297436 14.359375 132.84765625 C16.71015161 135.09264792 19.07925206 137.31396533 21.46875 139.51757812 C26.8253375 137.15913707 30.57205729 132.9819055 34.71875 128.95507812 C35.55921875 128.18099609 36.3996875 127.40691406 37.265625 126.609375 C42.3849444 121.80559073 42.3849444 121.80559073 44.140625 115.30273438 C43.26120621 109.03943196 42.36320329 102.77875117 41.46875 96.51757812 C28.92875 96.51757812 16.38875 96.51757812 3.46875 96.51757812 Z M-1.53125 141.51757812 C-2.52125 149.76757812 -3.51125 158.01757812 -4.53125 166.51757812 C1.11050547 161.7165178 1.11050547 161.7165178 6.40625 156.64257812 C6.99277344 156.04703125 7.57929687 155.45148438 8.18359375 154.83789062 C8.60769531 154.4021875 9.03179687 153.96648437 9.46875 153.51757812 C7.99526292 150.09229926 6.05967154 147.86802754 3.40625 145.26757812 C2.69339844 144.56117188 1.98054688 143.85476562 1.24609375 143.12695312 C-0.25517504 141.40570948 -0.25517504 141.40570948 -1.53125 141.51757812 Z M43.18359375 143.70507812 C42.26707031 144.63320312 41.35054688 145.56132812 40.40625 146.51757812 C39.02759766 147.90976563 39.02759766 147.90976563 37.62109375 149.33007812 C36.91082031 150.05195313 36.20054688 150.77382812 35.46875 151.51757812 C37.07885527 155.59133843 40.00697271 158.28264881 43.09375 161.26757812 C43.609375 161.77417969 44.125 162.28078125 44.65625 162.80273438 C45.92258339 164.04561714 47.1950644 165.28223089 48.46875 166.51757812 C49.81043157 163.83421498 49.31716104 162.25401052 48.91015625 159.29101562 C48.70229492 157.74414062 48.70229492 157.74414062 48.49023438 156.16601562 C48.33876953 155.08578125 48.18730469 154.00554687 48.03125 152.89257812 C47.88365234 151.80460938 47.73605469 150.71664062 47.58398438 149.59570312 C47.21776104 146.90218954 46.84578422 144.20959615 46.46875 141.51757812 C45.06191238 141.40232763 45.06191238 141.40232763 43.18359375 143.70507812 Z M334.46875 160.51757812 C334.43136719 161.92652344 334.39398438 163.33546875 334.35546875 164.78710938 C334.28981503 166.63479252 334.22336749 168.48244757 334.15625 170.33007812 C334.13369141 171.25884766 334.11113281 172.18761719 334.08789062 173.14453125 C334.05244141 174.03720703 334.01699219 174.92988281 333.98046875 175.84960938 C333.95428467 176.67178955 333.92810059 177.49396973 333.90112305 178.34106445 C333.37187414 181.0052395 332.66269922 181.9418223 330.46875 183.51757812 C328.66931308 183.50932383 326.86807169 183.48955093 325.07226562 183.375 C320.49877708 183.14144209 316.33226089 182.99524535 312.64453125 186.0078125 C306.60106813 192.63951499 306.60106813 192.63951499 303.46875 200.51757812 C329.20875 200.51757812 354.94875 200.51757812 381.46875 200.51757812 C379.48875 197.54757813 377.50875 194.57757813 375.46875 191.51757812 C374.85 190.19757813 374.23125 188.87757813 373.59375 187.51757812 C372.48742283 185.68314391 372.48742283 185.68314391 370.46875 184.51757812 C366.98131272 184.01110383 363.68457369 183.76035483 360.16845703 183.77929688 C354.84454448 183.78928311 354.84454448 183.78928311 352.7746582 182.29272461 C351.11355857 180.03475948 351.04578889 178.63659936 350.95703125 175.84960938 C350.92158203 174.95693359 350.88613281 174.06425781 350.84960938 173.14453125 C350.81577148 171.75137695 350.81577148 171.75137695 350.78125 170.33007812 C350.74708984 169.38970703 350.71292969 168.44933594 350.67773438 167.48046875 C350.59527849 165.15992452 350.53033697 162.83876996 350.46875 160.51757812 C345.18875 160.51757812 339.90875 160.51757812 334.46875 160.51757812 Z M2.9543457 182.4753418 C-5.62648731 191.1709699 -10.53286592 198.1220532 -10.93725586 210.75 C-10.90956342 212.53624137 -10.83089425 214.32270053 -10.69213867 216.10375977 C-10.54002663 218.38590203 -10.70090724 220.45042175 -10.9140625 222.72070312 C-10.37083889 228.10859448 -7.87430773 230.28771637 -4.09375 233.95507812 C-3.10266235 234.96248047 -3.10266235 234.96248047 -2.09155273 235.99023438 C0.0768233 238.18518675 2.27227531 240.3507728 4.46875 242.51757812 C6.06427127 244.12128659 7.65800202 245.72677829 9.25 247.33398438 C13.30211487 251.41636086 17.37701302 255.47493897 21.46875 259.51757812 C24.30598091 258.22057684 26.42556195 256.83310817 28.67675781 254.67944336 C29.27707825 254.10802109 29.87739868 253.53659882 30.49591064 252.94786072 C33.20003935 250.31993694 35.90248031 247.6907752 38.58789062 245.04370117 C40.00588599 243.65381227 41.43365637 242.2738249 42.87109375 240.90405273 C44.95212656 238.920628 47.00168645 236.90896157 49.046875 234.88867188 C49.69054016 234.28518417 50.33420532 233.68169647 50.99737549 233.05992126 C54.27479143 229.75029726 55.85242624 227.63214036 55.84741211 222.8762207 C55.73521356 221.42218977 55.61054652 219.96902161 55.46875 218.51757812 C55.58263573 216.81395595 55.70244696 215.11070316 55.83203125 213.40820312 C56.02659604 200.90268995 52.42153151 193.37183128 43.96092224 184.48272705 C37.43947689 177.87086749 30.71465623 171.33472288 23.46875 165.51757812 C17.03874992 165.51757812 7.43102932 178.08658834 2.9543457 182.4753418 Z M246.46875 216.51757812 C246.46875 221.79757813 246.46875 227.07757813 246.46875 232.51757812 C251.74875 232.51757812 257.02875 232.51757812 262.46875 232.51757812 C262.46875 227.23757812 262.46875 221.95757812 262.46875 216.51757812 C257.18875 216.51757812 251.90875 216.51757812 246.46875 216.51757812 Z M278.46875 216.51757812 C278.46875 221.79757813 278.46875 227.07757813 278.46875 232.51757812 C283.74875 232.51757812 289.02875 232.51757812 294.46875 232.51757812 C294.46875 227.23757812 294.46875 221.95757812 294.46875 216.51757812 C289.18875 216.51757812 283.90875 216.51757812 278.46875 216.51757812 Z M310.46875 216.51757812 C310.46875 221.79757813 310.46875 227.07757813 310.46875 232.51757812 C318.38875 232.51757812 326.30875 232.51757812 334.46875 232.51757812 C334.46875 227.23757812 334.46875 221.95757812 334.46875 216.51757812 C326.54875 216.51757812 318.62875 216.51757812 310.46875 216.51757812 Z M350.46875 216.51757812 C350.46875 221.79757813 350.46875 227.07757813 350.46875 232.51757812 C358.38875 232.51757812 366.30875 232.51757812 374.46875 232.51757812 C374.46875 227.23757812 374.46875 221.95757812 374.46875 216.51757812 C366.54875 216.51757812 358.62875 216.51757812 350.46875 216.51757812 Z M390.46875 216.51757812 C390.46875 221.79757813 390.46875 227.07757813 390.46875 232.51757812 C395.74875 232.51757812 401.02875 232.51757812 406.46875 232.51757812 C406.46875 227.23757812 406.46875 221.95757812 406.46875 216.51757812 C401.18875 216.51757812 395.90875 216.51757812 390.46875 216.51757812 Z M422.46875 216.51757812 C422.46875 221.79757813 422.46875 227.07757813 422.46875 232.51757812 C427.74875 232.51757812 433.02875 232.51757812 438.46875 232.51757812 C438.46875 227.23757812 438.46875 221.95757812 438.46875 216.51757812 C433.18875 216.51757812 427.90875 216.51757812 422.46875 216.51757812 Z M-13.53125 248.51757812 C-14.22703278 254.29736707 -14.92071744 260.07740276 -15.61254883 265.85766602 C-15.8476643 267.81964746 -16.08333006 269.78156305 -16.31958008 271.7434082 C-18.13246525 286.60884165 -18.13246525 286.60884165 -19.53125 301.51757812 C-12.79044575 295.99107478 -6.7241371 289.82308254 -0.59375 283.64257812 C0.48218727 282.56161539 1.55835731 281.48088429 2.63476562 280.40039062 C5.24878292 277.77545172 7.85963596 275.14739184 10.46875 272.51757812 C5.80142726 266.9123245 0.82557563 261.72296219 -4.34375 256.58007812 C-5.50680664 255.4112207 -5.50680664 255.4112207 -6.69335938 254.21875 C-7.43005859 253.48333984 -8.16675781 252.74792969 -8.92578125 251.99023438 C-9.59456299 251.32258057 -10.26334473 250.65492676 -10.95239258 249.96704102 C-12.29680806 248.4048654 -12.29680806 248.4048654 -13.53125 248.51757812 Z M270.46875 248.51757812 C270.46875 262.70757812 270.46875 276.89757812 270.46875 291.51757812 C277.03389344 289.54803509 283.4740038 287.5237413 289.90625 285.19726562 C290.75300293 284.89313751 291.59975586 284.5890094 292.47216797 284.27566528 C294.24051867 283.63993438 296.00841935 283.00295036 297.77587891 282.36474609 C300.48883227 281.38532812 303.2032784 280.41013879 305.91796875 279.43554688 C307.6433171 278.81469743 309.36858066 278.19361232 311.09375 277.57226562 C311.90513428 277.28060516 312.71651855 276.9889447 313.55249023 276.68844604 C317.57491321 275.25707405 317.57491321 275.25707405 321.46875 273.51757812 C354.25534207 269.55761077 380.76708421 277.90976386 410.65063477 290.83422852 C412.457056 291.63485341 412.457056 291.63485341 414.46875 291.51757812 C414.46875 277.32757813 414.46875 263.13757813 414.46875 248.51757812 C366.94875 248.51757812 319.42875 248.51757812 270.46875 248.51757812 Z M55.33569336 251.53710938 C54.41925049 252.45878906 53.50280762 253.38046875 52.55859375 254.33007812 C52.07169571 254.81839111 51.58479767 255.3067041 51.08314514 255.80981445 C49.52182862 257.37674818 47.96401642 258.94711578 46.40625 260.51757812 C45.35113972 261.57770119 44.29580413 262.63760007 43.24023438 263.69726562 C40.64711593 266.30143587 38.05713041 268.90869757 35.46875 271.51757812 C37.10653045 275.71383722 40.20198182 278.50434598 43.3515625 281.59570312 C43.92582977 282.1671405 44.50009705 282.73857788 45.09176636 283.32733154 C46.9211081 285.14550757 48.75729193 286.95659304 50.59375 288.76757812 C51.83769774 290.00149142 53.0811927 291.23586134 54.32421875 292.47070312 C57.36717367 295.49164555 60.41628254 298.50624904 63.46875 301.51757812 C64.69310231 299.0688735 64.44413577 297.94096646 64.13916016 295.23901367 C64.04220856 294.35436935 63.94525696 293.46972504 63.84536743 292.55827332 C63.67827774 291.12080498 63.67827774 291.12080498 63.5078125 289.65429688 C63.397789 288.67016312 63.2877655 287.68602936 63.17440796 286.67207336 C62.94005906 284.58615749 62.70280324 282.50056649 62.46289062 280.4152832 C62.0965421 277.22935943 61.73887862 274.04255641 61.3828125 270.85546875 C61.15415756 268.83002029 60.92500698 266.80462771 60.6953125 264.77929688 C60.5342955 263.35093758 60.5342955 263.35093758 60.37002563 261.89372253 C60.26676971 260.99962173 60.16351379 260.10552094 60.05712891 259.18432617 C59.96750885 258.40204147 59.87788879 257.61975677 59.78555298 256.81376648 C59.44651317 254.35640552 58.97791295 251.94489901 58.46875 249.51757812 C57.10020776 249.40299168 57.10020776 249.40299168 55.33569336 251.53710938 Z M18.24023438 288.55322266 C16.89378845 289.87557419 16.89378845 289.87557419 15.5201416 291.22463989 C14.53383461 292.19945884 13.54796476 293.17472025 12.5625 294.15039062 C12.06819992 294.63936703 11.57389984 295.12834343 11.06462097 295.6321373 C8.44718095 298.22281543 5.83345303 300.81718147 3.22216797 303.4140625 C0.5253496 306.09425949 -2.18522409 308.76008507 -4.89911652 311.42297554 C-6.98349057 313.47365959 -9.05670593 315.53535678 -11.12712097 317.60012436 C-12.12123474 318.58752647 -13.1195978 319.57066974 -14.12226868 320.54938126 C-15.52746277 321.92290206 -16.91549071 323.31391816 -18.30273438 324.70556641 C-19.09691772 325.4916629 -19.89110107 326.2777594 -20.70935059 327.087677 C-24.64599645 332.33805478 -23.53125 338.05670895 -23.53125 344.51757812 C6.82875 344.51757812 37.18875 344.51757812 68.46875 344.51757812 C68.70832105 333.35873845 68.70832105 333.35873845 63.01953125 324.61523438 C61.6192548 323.25719058 60.20604742 321.91237292 58.78125 320.58007812 C57.37902226 319.24022938 55.97926817 317.89778691 54.58203125 316.55273438 C53.88625977 315.88322754 53.19048828 315.2137207 52.47363281 314.52392578 C50.58723682 312.63615152 48.8338784 310.69551438 47.09765625 308.66992188 C42.68846783 303.53100617 37.88973983 298.79274601 33.09375 294.01757812 C32.17980469 293.09976562 31.26585937 292.18195313 30.32421875 291.23632812 C29.45667969 290.37007813 28.58914062 289.50382812 27.6953125 288.61132812 C26.51316162 287.43086914 26.51316162 287.43086914 25.30712891 286.2265625 C21.96245877 283.11730739 21.15587147 285.68479921 18.24023438 288.55322266 Z M299.3180542 298.30792236 C296.01397267 299.60015767 292.68976935 300.83833073 289.3671875 302.08203125 C282.04408827 304.83430236 274.75470454 307.66834864 267.46875 310.51757812 C265.51233009 311.27726642 263.55564634 312.03627581 261.59863281 312.79443359 C257.55288265 314.36258381 253.50973796 315.93719851 249.46875 317.51757812 C250.09630031 322.76657042 251.23648258 327.62758589 252.75024414 332.68652344 C252.98137909 333.47322922 253.21251404 334.259935 253.45065308 335.07048035 C254.21377511 337.66361178 254.98379932 340.25463832 255.75390625 342.84570312 C256.29423997 344.67661304 256.83414393 346.50764983 257.37364197 348.33880615 C258.79815683 353.16955973 260.22854094 357.99855614 261.66015625 362.82720947 C263.08623345 367.64091946 264.50675576 372.45626738 265.92773438 377.27148438 C268.36729263 385.53574109 270.81252476 393.79830318 273.26087379 402.05995941 C274.85466242 407.43951288 276.44281134 412.82069503 278.02685547 418.203125 C278.40597921 419.48958134 278.78516269 420.77602007 279.16441345 422.06243896 C279.84275111 424.36429965 280.51973828 426.66655894 281.19508362 428.96929932 C281.48576218 429.95428406 281.77644073 430.9392688 282.07592773 431.95410156 C282.32350327 432.79632263 282.5710788 433.6385437 282.82615662 434.50628662 C283.42479173 436.55782153 283.42479173 436.55782153 284.46875 438.51757812 C292.09856432 436.8008699 297.00510385 431.39063822 301.78125 425.51757812 C308.99266743 417.06055223 321.39755016 410.26103504 332.62841797 409.34057617 C350.59306393 408.86861405 366.19436678 410.55127251 380.296875 423.01757812 C383.59185804 426.25475444 386.69275771 429.49344877 389.484375 433.17773438 C391.48694691 435.53903472 392.92901406 436.57469695 395.71875 437.83007812 C396.42515625 438.15621094 397.1315625 438.48234375 397.859375 438.81835938 C398.65601563 439.16447266 398.65601563 439.16447266 399.46875 439.51757812 C401.80040995 436.0200882 402.79794548 432.51630533 403.95556641 428.52734375 C404.19660095 427.71196136 404.4376355 426.89657898 404.68597412 426.05648804 C405.48560869 423.34700531 406.27794717 420.63544475 407.0703125 417.92382812 C407.63076198 416.01968256 408.19167269 414.1156727 408.75302124 412.21179199 C410.23732055 407.17315213 411.71550326 402.13273784 413.19238281 397.09191895 C414.66513699 392.06871825 416.14322092 387.04708729 417.62109375 382.02539062 C419.3367432 376.19536693 421.05147839 370.36508476 422.76080322 364.53320312 C425.1807834 356.27885995 427.60666188 348.02689015 430.08886719 339.79101562 C430.4735299 338.51071031 430.85816454 337.23039656 431.24276733 335.95007324 C431.92555881 333.68277463 432.61272076 331.41678512 433.30532837 329.15246582 C433.59692841 328.18305054 433.88852844 327.21363525 434.18896484 326.21484375 C434.5640065 324.98393005 434.5640065 324.98393005 434.94662476 323.72814941 C435.6219965 321.24732987 435.6219965 321.24732987 435.46875 317.51757812 C421.09886748 311.8122794 406.58716969 306.53939624 392.03125 301.33007812 C388.69872516 300.13478704 385.36643922 298.93883162 382.03416443 297.74284363 C379.9818475 297.00652698 377.9293414 296.27073729 375.87660217 295.53559875 C374.46343971 295.0293824 374.46343971 295.0293824 373.02172852 294.51293945 C372.09700745 294.18600601 371.17228638 293.85907257 370.21954346 293.52223206 C368.38723165 292.85302905 366.56777628 292.14750812 364.7633667 291.40635681 C342.70289232 282.55565433 320.23172713 290.05534558 299.3180542 298.30792236 Z M-25.53125 360.51757812 C-25.53125 365.79757812 -25.53125 371.07757813 -25.53125 376.51757812 C51.02875 376.51757812 127.58875 376.51757812 206.46875 376.51757812 C206.46875 371.23757813 206.46875 365.95757812 206.46875 360.51757812 C129.90875 360.51757812 53.34875 360.51757812 -25.53125 360.51757812 Z M-1.53125 392.51757812 C-1.53125 407.69757813 -1.53125 422.87757813 -1.53125 438.51757812 C9.14665054 440.72650078 9.14665054 440.72650078 18.46875 437.51757812 C22.19979484 434.95705715 24.97334523 431.98017127 27.90625 428.58007812 C37.07110057 417.96080561 49.56969624 410.43537721 63.8046875 409.33740234 C81.26633354 408.42302561 95.0084564 411.39280578 108.65625 422.89257812 C111.32867007 425.30362378 113.58683349 427.84379122 115.84375 430.64257812 C120.47222447 436.08473418 126.21162567 438.66044014 133.03125 440.45507812 C140.93392485 440.59876312 147.27118908 438.42086929 153.46875 433.51757812 C154.71906294 432.28872978 155.94734358 431.03718277 157.15625 429.76757812 C164.39420214 422.22982916 173.18079426 417.161556 182.46875 412.51757812 C182.46875 405.91757812 182.46875 399.31757813 182.46875 392.51757812 C121.74875 392.51757812 61.02875 392.51757812 -1.53125 392.51757812 Z " fill="#3B82F6" transform="translate(49.53125,7.482421875)"/>
<path d="M0 0 C5.6512227 4.03393199 10.51326941 8.55080432 14.875 13.9453125 C19.30185337 19.07965385 23.78508744 21.22236292 30.48828125 22.10546875 C38.20515738 22.45912112 44.09986159 21.29089827 50.375 16.6953125 C52.87267352 14.30984728 55.23940788 11.82517527 57.62109375 9.32421875 C72.51389098 -4.89259335 90.34484359 -8.8254696 110.3203125 -8.58203125 C127.60322963 -8.04610617 142.40459622 0.40198066 154.3046875 12.6875 C154.86414063 13.28820312 155.42359375 13.88890625 156 14.5078125 C161.44121695 20.02602781 167.12615018 21.91459124 174.8125 22.2578125 C182.98472016 21.91651328 188.64729975 19.71741722 194.2734375 13.71484375 C195.81172645 12.01613501 197.32923973 10.30120967 198.83959961 8.57763672 C206.65949465 -0.22084157 218.52601399 -7.49748483 230.53466797 -8.48168945 C250.97788578 -9.01876792 265.72210454 -5.8053805 281.1328125 8.453125 C283.07481294 10.39512544 284.79502044 12.36045987 286.5 14.5078125 C290.21363851 19.02921984 294.80402453 20.92949002 300.3125 22.5703125 C307.97800273 22.88319016 314.43071752 20.48750724 320.375 15.6953125 C323.89942296 12.28177026 326.8049687 8.4854069 329.671875 4.51171875 C330.06834229 3.96394775 330.46480957 3.41617676 330.87329102 2.85180664 C332.01748171 1.25802018 333.14008168 -0.35119904 334.26171875 -1.9609375 C334.95910156 -2.734375 335.65648437 -3.5078125 336.375 -4.3046875 C341.19002319 -4.3046875 342.36768419 -3.16740431 346.125 -0.3046875 C347.10984375 0.4378125 348.0946875 1.1803125 349.109375 1.9453125 C349.85703125 2.5228125 350.6046875 3.1003125 351.375 3.6953125 C350.05189238 6.50487915 348.56673709 8.93441074 346.6953125 11.41015625 C345.91994141 12.43979492 345.91994141 12.43979492 345.12890625 13.49023438 C344.32259766 14.55081055 344.32259766 14.55081055 343.5 15.6328125 C342.97019531 16.33599609 342.44039063 17.03917969 341.89453125 17.76367188 C340.39616454 19.7472417 338.88666652 21.72187191 337.375 23.6953125 C336.68277344 24.613125 335.99054688 25.5309375 335.27734375 26.4765625 C329.12664574 33.65027188 319.70733488 38.90964379 310.29248047 39.91845703 C298.06921674 40.75898756 288.27267685 39.36531652 278.4296875 31.59765625 C275.92698495 29.28051529 273.73998096 26.76675482 271.5 24.1953125 C263.3993196 15.06498972 252.98107157 9.69865661 240.75390625 8.69921875 C229.70746668 8.6810801 220.34681997 12.48953014 212.5 20.1953125 C210.32904445 22.47040983 208.33993808 24.74163673 206.44140625 27.25 C204.22019213 29.87850669 202.09025452 31.48567112 199.1875 33.3203125 C198.30707031 33.89007813 197.42664063 34.45984375 196.51953125 35.046875 C189.45608491 38.74970029 182.95213734 40.23693214 175 40.1328125 C174.16855469 40.12378906 173.33710938 40.11476563 172.48046875 40.10546875 C158.77674883 39.7206529 148.67497714 33.38399336 139.3125 23.5703125 C130.73888888 14.68303268 118.55972791 9.33558861 106.24609375 8.671875 C89.82902269 8.80589191 77.97425478 15.53702112 66.375 26.6953125 C53.81444988 37.71743865 43.16234651 40.67614718 26.74707031 39.91308594 C13.70362704 38.71560226 4.13499782 30.18146916 -3.91796875 20.58203125 C-10.40640664 13.4105999 -18.54443585 9.46121036 -28.15234375 8.703125 C-40.07513088 8.66545427 -51.26608306 12.95320798 -60.0546875 21.0625 C-61.80258774 22.87996841 -63.43181864 24.77213224 -65.0625 26.6953125 C-71.18614661 33.82820153 -78.02976755 38.93007855 -87.57324219 39.89160156 C-101.15775902 40.86410862 -113.19474293 38.74178255 -123.859375 29.61328125 C-127.89318566 25.57793565 -131.30124015 20.97731078 -134.75 16.4453125 C-135.42659668 15.55706787 -136.10319336 14.66882324 -136.80029297 13.75366211 C-137.42564941 12.90425049 -138.05100586 12.05483887 -138.6953125 11.1796875 C-139.26008301 10.41366211 -139.82485352 9.64763672 -140.40673828 8.85839844 C-141.625 6.6953125 -141.625 6.6953125 -141.625 2.6953125 C-139.21875 0.5546875 -139.21875 0.5546875 -136.125 -1.5546875 C-135.1040625 -2.26109375 -134.083125 -2.9675 -133.03125 -3.6953125 C-132.2371875 -4.22640625 -131.443125 -4.7575 -130.625 -5.3046875 C-127.34370659 -3.91617577 -125.68321489 -2.43878256 -123.6015625 0.43359375 C-123.055 1.17158203 -122.5084375 1.90957031 -121.9453125 2.66992188 C-121.38585937 3.44142578 -120.82640625 4.21292969 -120.25 5.0078125 C-113.8166206 13.86874044 -108.30423068 19.66683647 -97.3125 22.5703125 C-91.22545022 22.77665317 -85.730356 21.62326966 -81.16796875 17.4453125 C-79.90919922 16.0840625 -79.90919922 16.0840625 -78.625 14.6953125 C-57.67409261 -7.62394153 -27.671451 -17.64941907 0 0 Z " fill="#3B82F6" transform="translate(151.625,464.3046875)"/>
<path d="M0 0 C5.82485779 3.51996782 10.54466582 8.98962934 12.5625 15.5 C13.36764105 23.33608208 13.68710392 31.11922577 8.5625 37.5 C3.75801361 42.54521222 -0.59927055 46.10562995 -7.70703125 46.8359375 C-16.22326573 46.92983204 -22.11345494 46.6177288 -28.40234375 40.62890625 C-34.7841668 33.72505269 -35.91792252 28.29832071 -35.7421875 18.9453125 C-35.04689797 11.08319245 -31.38995981 6.95041296 -25.53515625 1.9453125 C-18.47077988 -2.92213491 -7.84396301 -3.47595223 0 0 Z M-16.8125 17.125 C-18.92456506 20.21186432 -19.04945145 21.8282913 -18.4375 25.5 C-16.9375 28 -16.9375 28 -14.4375 29.5 C-10.7657913 30.11195145 -9.14936432 29.98706506 -6.0625 27.875 C-3.95043494 24.78813568 -3.82554855 23.1717087 -4.4375 19.5 C-5.9375 17 -5.9375 17 -8.4375 15.5 C-12.1092087 14.88804855 -13.72563568 15.01293494 -16.8125 17.125 Z " fill="#3B82F6" transform="translate(451.4375,353.5)"/>
<path d="M0 0 C5.82485779 3.51996782 10.54466582 8.98962934 12.5625 15.5 C13.36764105 23.33608208 13.68710392 31.11922577 8.5625 37.5 C3.75801361 42.54521222 -0.59927055 46.10562995 -7.70703125 46.8359375 C-16.22326573 46.92983204 -22.11345494 46.6177288 -28.40234375 40.62890625 C-34.7841668 33.72505269 -35.91792252 28.29832071 -35.7421875 18.9453125 C-35.04689797 11.08319245 -31.38995981 6.95041296 -25.53515625 1.9453125 C-18.47077988 -2.92213491 -7.84396301 -3.47595223 0 0 Z M-16.8125 17.125 C-18.92456506 20.21186432 -19.04945145 21.8282913 -18.4375 25.5 C-16.9375 28 -16.9375 28 -14.4375 29.5 C-10.7657913 30.11195145 -9.14936432 29.98706506 -6.0625 27.875 C-3.95043494 24.78813568 -3.82554855 23.1717087 -4.4375 19.5 C-5.9375 17 -5.9375 17 -8.4375 15.5 C-12.1092087 14.88804855 -13.72563568 15.01293494 -16.8125 17.125 Z " fill="#3B82F6" transform="translate(355.4375,353.5)"/>
</svg>
