<?xml version="1.0" encoding="UTF-8"?>
<svg version="1.1" xmlns="http://www.w3.org/2000/svg" width="512" height="512">
<path d="M0 0 C1.31837978 -0.00445784 2.63675956 -0.00891569 3.99509025 -0.01350862 C5.4670752 -0.01341932 6.93906015 -0.01322946 8.41104507 -0.01294994 C9.96782086 -0.01624838 11.5245958 -0.01997391 13.08136964 -0.02409142 C17.37087349 -0.03412171 21.66036334 -0.03782986 25.94987726 -0.04048073 C30.57168455 -0.0443807 35.19348072 -0.05395919 39.81528091 -0.0626936 C50.98212263 -0.08246594 62.14896526 -0.09252485 73.3158201 -0.10142139 C78.57184876 -0.10580272 83.82787641 -0.1111699 89.08390427 -0.11641026 C106.55126486 -0.13342273 124.01862482 -0.1479178 141.48599243 -0.155159 C146.0199496 -0.15706895 150.55390677 -0.15898928 155.08786392 -0.16094494 C156.21478363 -0.16142868 157.34170333 -0.16191242 158.50277212 -0.16241082 C176.76582101 -0.17071447 195.02880448 -0.19605696 213.29182479 -0.22852562 C232.03321055 -0.26157369 250.77456304 -0.27960569 269.5159781 -0.28280324 C280.04221672 -0.28497034 290.5683599 -0.29374834 301.09457016 -0.31926441 C310.05749678 -0.34094059 319.02030479 -0.34903701 327.98325464 -0.33929763 C332.55728728 -0.33474408 337.13107504 -0.33670032 341.70507431 -0.35605907 C345.89235131 -0.37362826 350.07920365 -0.3727441 354.26648477 -0.35716178 C355.7813196 -0.35477619 357.29618335 -0.35915843 358.81097385 -0.37099043 C373.00556203 -0.474997 373.00556203 -0.474997 378.74704361 4.13422108 C382.79839811 9.11760217 383.30526221 13.63485745 383.13766861 19.91156483 C383.13200882 20.72291386 383.12634903 21.53426289 383.12051773 22.37019825 C383.09829281 24.93799658 383.04812596 27.50435123 382.99704361 30.07172108 C382.97696051 31.82235183 382.95871292 33.57300467 382.94235611 35.3236742 C382.89847405 39.59440486 382.82954636 43.864069 382.74704361 48.13422108 C383.69029495 48.12533863 384.6335463 48.11645618 385.60538101 48.10730457 C394.49261822 48.02623417 403.37978045 47.96626321 412.26730347 47.92697239 C416.83655325 47.90609343 421.40550463 47.87777036 425.97458267 47.83246326 C430.38365234 47.78901619 434.79243491 47.7650863 439.20170212 47.7547121 C440.88425848 47.74731865 442.56679904 47.73288091 444.24923325 47.71130085 C446.60529462 47.68228105 448.96016834 47.67826433 451.31637955 47.68011951 C452.36079208 47.65854786 452.36079208 47.65854786 453.42630386 47.63654041 C456.80982354 47.66538623 458.47909481 47.92487704 461.18045425 50.03540516 C463.80303186 53.54896639 463.22437901 55.83820247 462.74704361 60.13422108 C462.23089996 60.62881321 461.71475632 61.12340534 461.18297195 61.63298512 C459.53042146 63.01094825 459.53042146 63.01094825 459.76509476 64.98518848 C459.95306122 65.68027012 460.14102768 66.37535175 460.33469009 67.09149647 C460.65154266 68.29046055 460.65154266 68.29046055 460.9747963 69.51364613 C461.35705872 70.81083073 461.35705872 70.81083073 461.74704361 72.13422108 C462.00728317 73.02648396 462.26752274 73.91874683 462.53564835 74.83804798 C464.47573263 81.2754212 466.57723076 87.6632643 468.66672134 94.05341053 C469.42688882 96.39367405 470.17630254 98.73745871 470.91476822 101.08466053 C471.99135306 104.50435828 473.10178131 107.91143651 474.21969986 111.31781483 C474.53882843 112.35353123 474.857957 113.38924763 475.18675613 114.45634937 C477.82341553 122.29986821 481.93926975 127.32889895 487.74704361 133.13422108 C493.1892304 139.09094039 495.04802044 143.67401262 495.03757095 151.76678944 C495.04764679 152.89459576 495.04764679 152.89459576 495.05792618 154.04518604 C495.07686705 156.52154685 495.08082813 158.99763616 495.08298111 161.47406483 C495.08941092 163.20132527 495.09613942 164.92858462 495.10315323 166.65584278 C495.11511559 170.27292881 495.11883504 173.8899194 495.11764908 177.50702381 C495.11744576 182.13516277 495.14476607 186.7626886 495.1791935 191.39068222 C495.20146032 194.95696783 495.20548672 198.5231057 495.20442963 202.0894537 C495.20678521 203.79545235 495.21560639 205.50145509 495.23109436 207.20738506 C495.25075401 209.59611011 495.24491777 211.9835105 495.23288345 214.37225819 C495.24412247 215.07218891 495.25536148 215.77211964 495.26694107 216.49326038 C495.20329304 221.48046211 493.83110869 224.27181807 490.74704361 228.13422108 C485.96465246 232.33692845 481.47654942 232.2716427 475.36032486 232.23187733 C474.54331604 232.23046238 473.72630722 232.22904743 472.88454056 232.22758961 C470.27617093 232.22199402 467.66788727 232.20944236 465.05954361 232.19672108 C463.29066464 232.19170551 461.52178433 232.1871427 459.75290298 232.1830492 C455.41758342 232.17202604 451.08232809 232.15476445 446.74704361 232.13422108 C446.75687775 232.7469286 446.76671188 233.35963612 446.77684402 233.99091053 C446.78831718 235.20073597 446.78831718 235.20073597 446.80002213 236.43500233 C446.80985626 237.23333485 446.8196904 238.03166737 446.82982254 238.85419178 C446.51706935 247.46853886 440.62979216 256.16844987 434.74704361 262.13422108 C425.42614834 270.02520628 414.77348105 273.13596417 402.68844986 272.58343983 C391.47063113 271.30489755 382.1315905 265.45171078 374.99704361 256.88422108 C371.54026203 252.22508068 367.74704361 246.11699478 367.74704361 240.13422108 C306.36704361 240.13422108 244.98704361 240.13422108 181.74704361 240.13422108 C180.75704361 244.09422108 180.75704361 244.09422108 179.74704361 248.13422108 C175.55153631 257.75837464 168.08169156 265.66829826 158.30954361 269.63422108 C156.79695967 270.15864825 155.27692313 270.66262519 153.74704361 271.13422108 C152.75704361 271.46422108 151.76704361 271.79422108 150.74704361 272.13422108 C137.05868413 273.09177833 125.63620682 271.20852375 114.74704361 262.13422108 C113.7058852 260.83277306 112.6932652 259.50624239 111.74704361 258.13422108 C108.88758048 259.44247218 106.7425711 260.8829714 104.43454361 263.00922108 C95.35791478 270.92713133 86.33954088 272.63482183 74.50094986 272.44672108 C64.72138044 271.632605 55.69287004 267.14984748 48.80954361 260.16937733 C44.00674919 254.44535726 41.30624471 248.10421117 38.74704361 241.13422108 C38.14231216 241.11963856 37.53758072 241.10505604 36.91452408 241.09003162 C34.14975096 241.01512919 31.38613003 240.91861035 28.62204361 240.82172108 C27.67071548 240.79916248 26.71938736 240.77660389 25.73923111 240.7533617 C20.3791226 240.54863534 16.35860163 240.15987087 11.74704361 237.13422108 C8.01503515 232.99875224 6.61770598 230.63896851 6.64938736 225.12640858 C6.65261002 224.14027576 6.65583267 223.15414295 6.65915298 222.13812733 C6.66753189 221.10558826 6.6759108 220.0730492 6.68454361 219.00922108 C6.68905533 217.96894764 6.69356705 216.9286742 6.69821548 215.85687733 C6.71002409 213.28260146 6.72649286 210.70843961 6.74704361 208.13422108 C5.88981705 208.18062733 5.03259048 208.22703358 4.14938736 208.27484608 C-7.67017985 208.6479553 -7.67017985 208.6479553 -13.25295639 204.13422108 C-16.94128412 199.57526613 -17.83284068 196.04037234 -17.76089096 190.3158617 C-17.76713092 189.5472607 -17.77337089 188.77865971 -17.77979994 187.98676777 C-17.79570677 185.42101998 -17.78313524 182.85622528 -17.77053452 180.29047108 C-17.77595667 178.44712236 -17.78307986 176.60377797 -17.79177475 174.76044178 C-17.80999984 169.76044546 -17.80294389 164.76077952 -17.79025841 159.76077747 C-17.78012656 154.5265257 -17.7895246 149.29230209 -17.79580307 144.0580492 C-17.80307892 135.26828403 -17.79349336 126.47865333 -17.77444077 117.68890858 C-17.75267218 107.52887922 -17.75972359 97.36917094 -17.78174639 87.20914936 C-17.79990211 78.4837135 -17.80245785 69.75837426 -17.79199171 61.03292561 C-17.78575775 55.82257798 -17.78491854 50.61238125 -17.79813766 45.40204334 C-17.80969799 40.50340219 -17.80166697 35.60517475 -17.77856064 30.70657825 C-17.77327454 28.90948644 -17.77478564 27.11235978 -17.7836113 25.31528187 C-17.79455457 22.86057911 -17.78081902 20.40719909 -17.76089096 17.95258045 C-17.76981385 17.24265194 -17.77873673 16.53272343 -17.78793001 15.80128193 C-17.70938737 10.80812673 -16.34373104 8.002381 -13.25295639 4.13422108 C-9.02250136 0.41654848 -5.52114891 0.00863694 0 0 Z M-2.25295639 16.13422108 C-2.25295639 74.21422108 -2.25295639 132.29422108 -2.25295639 192.13422108 C21.01719986 192.18320545 44.28735611 192.23218983 68.26266861 192.28265858 C82.9644952 192.31802479 97.66631813 192.3538792 112.36813736 192.39203358 C120.0880263 192.41204249 127.80791554 192.43192709 135.52780533 192.45160389 C136.49540633 192.45407533 137.46300734 192.45654676 138.45992959 192.45909309 C154.09380333 192.49884363 169.72768433 192.53157199 185.36157921 192.56172089 C201.39875636 192.59280326 217.43590264 192.63139882 233.47304511 192.67701113 C243.37376305 192.70493235 253.27445835 192.7269496 263.17520514 192.74148358 C269.95878923 192.7520023 276.74232953 192.76979978 283.52588066 192.79338811 C287.44325411 192.80679289 291.36056602 192.81692417 295.27796364 192.81843472 C298.86188992 192.81988731 302.44566786 192.83044606 306.02954862 192.84835549 C307.94528648 192.85552945 309.86105332 192.85286213 311.7768023 192.84988534 C312.90990327 192.85735084 314.04300423 192.86481633 315.21044159 192.87250805 C316.67995927 192.87592553 316.67995927 192.87592553 318.17916417 192.87941206 C320.86438887 193.14586517 322.48985436 193.67632899 324.74704361 195.13422108 C326.27196359 198.18406103 325.98266909 200.77655798 325.74704361 204.13422108 C324.6051321 205.83195686 324.6051321 205.83195686 322.74704361 207.13422108 C320.06652927 207.51898193 320.06652927 207.51898193 316.76762772 207.53294849 C315.51820892 207.54548664 314.26879013 207.55802479 312.98151016 207.57094288 C311.59451649 207.56976877 310.20752304 207.5683096 308.82052994 207.56659412 C307.36196942 207.57560888 305.90341651 207.58593539 304.44487381 207.59747791 C300.48234804 207.62510797 296.51996577 207.63434052 292.55735612 207.64033198 C288.41729537 207.64970009 284.27734248 207.67590215 280.13734818 207.70033741 C272.29637426 207.74404925 264.45542121 207.77256739 256.61436242 207.79566079 C247.68816138 207.82268741 238.7620686 207.86660043 229.83594477 207.91194952 C211.47303482 208.00486286 193.11009624 208.07651291 174.74704361 208.13422108 C175.25364517 209.23830311 175.25364517 209.23830311 175.77048111 210.36468983 C176.21649673 211.34051014 176.66251236 212.31633045 177.12204361 213.32172108 C177.56290298 214.28465076 178.00376236 215.24758045 178.45798111 216.23968983 C179.61774106 218.84387807 180.68829747 221.48735573 181.74704361 224.13422108 C243.12704361 224.13422108 304.50704361 224.13422108 367.74704361 224.13422108 C369.39704361 220.17422108 371.04704361 216.21422108 372.74704361 212.13422108 C373.40704361 210.81422108 374.06704361 209.49422108 374.74704361 208.13422108 C373.9448439 208.11963856 373.1426442 208.10505604 372.31613541 208.09003162 C368.68844662 208.01565389 365.06168857 207.91895865 361.43454361 207.82172108 C359.54058853 207.78788319 359.54058853 207.78788319 357.60837173 207.7533617 C356.39987564 207.71791248 355.19137955 207.68246326 353.94626236 207.64593983 C352.83082047 207.61975574 351.71537857 207.59357166 350.56613541 207.56659412 C347.74704361 207.13422108 347.74704361 207.13422108 345.90646744 205.78583241 C344.17539951 203.3199081 343.98950485 201.10437132 343.74704361 198.13422108 C344.18454361 195.75922108 344.18454361 195.75922108 344.74704361 194.13422108 C351.89075971 192.34829205 359.3948069 192.54267867 366.74704361 192.13422108 C366.74704361 134.05422108 366.74704361 75.97422108 366.74704361 16.13422108 C244.97704361 16.13422108 123.20704361 16.13422108 -2.25295639 16.13422108 Z M382.74704361 64.13422108 C382.74704361 106.37422108 382.74704361 148.61422108 382.74704361 192.13422108 C392.31704361 192.46422108 401.88704361 192.79422108 411.74704361 193.13422108 C425.410232 196.55001818 432.42374636 200.30640226 440.74704361 211.13422108 C441.10918961 211.99547596 441.4713356 212.85673084 441.84445572 213.74408436 C443.62688534 216.53694418 443.62688534 216.53694418 447.39230728 216.70184803 C448.90010742 216.70105773 450.4080538 216.67287877 451.91501236 216.62250233 C453.10723152 216.61189022 453.10723152 216.61189022 454.32353592 216.60106373 C456.86149722 216.57307982 459.39724968 216.51033948 461.93454361 216.44672108 C463.65521486 216.42164312 465.37592071 216.39882907 467.09665298 216.3783617 C471.31498461 216.3274894 475.52854354 216.22966225 479.74704361 216.13422108 C479.74704361 205.57422108 479.74704361 195.01422108 479.74704361 184.13422108 C475.78704361 183.80422108 471.82704361 183.47422108 467.74704361 183.13422108 C466.26204361 182.63922108 466.26204361 182.63922108 464.74704361 182.13422108 C463.73057959 177.76342578 463.53753215 175.1113417 465.74704361 171.13422108 C469.03195734 168.94427859 470.578 168.78144768 474.43454361 168.50922108 C475.92534439 168.39707264 475.92534439 168.39707264 477.44626236 168.28265858 C478.20552017 168.2336742 478.96477798 168.18468983 479.74704361 168.13422108 C479.80121101 165.40478571 479.84079586 162.67643543 479.87204361 159.94672108 C479.89718033 158.79333241 479.89718033 158.79333241 479.92282486 157.61664295 C479.95948861 153.34531657 479.82321729 149.98893515 477.74704361 146.13422108 C475.00997595 143.39715342 473.49537995 143.88312109 469.66427994 143.87884998 C468.38567596 143.87189106 467.10707199 143.86493214 465.78972244 143.85776234 C465.1040098 143.85844337 464.41829716 143.85912441 463.71180534 143.85982609 C461.56301608 143.86079079 459.41472791 143.84785424 457.26601028 143.83084583 C451.15613134 143.78457175 445.04630064 143.75999111 438.93625259 143.7533617 C435.19898303 143.74832885 431.46223144 143.72398353 427.72513771 143.68803501 C426.3047097 143.67827139 424.88421008 143.67588626 423.46375847 143.6812067 C409.57282328 143.73076599 409.57282328 143.73076599 403.74704361 139.13422108 C400.57642275 134.9067266 399.62325066 131.02184687 399.61764908 125.81219959 C399.61449692 124.96774784 399.61134476 124.12329609 399.60809708 123.25325489 C399.61012131 122.34901279 399.61214554 121.4447707 399.61423111 120.51312733 C399.61279602 119.10775967 399.61279602 119.10775967 399.61133194 117.67400074 C399.61065211 115.69451296 399.61249266 113.71502292 399.61667252 111.73553944 C399.62201752 108.71148108 399.61672393 105.68757165 399.61032486 102.66351795 C399.61098579 100.73838742 399.61226727 98.81325697 399.61423111 96.88812733 C399.61220688 95.98590946 399.61018265 95.0836916 399.60809708 94.1541338 C399.62347559 90.0189106 399.69831446 86.16615245 400.74704361 82.13422108 C403.48267195 81.22234496 405.20849836 80.98691849 408.03488541 80.92889881 C408.89555115 80.90895359 409.75621689 80.88900837 410.64296341 80.86845875 C411.56805206 80.85174625 412.49314072 80.83503376 413.44626236 80.81781483 C414.87153999 80.78664318 414.87153999 80.78664318 416.32561111 80.7548418 C419.36184817 80.68944055 422.39817192 80.63050504 425.43454361 80.57172108 C427.4924953 80.5285269 429.5504382 80.48491232 431.60837173 80.4408617 C436.65450677 80.33376877 441.70072904 80.23247462 446.74704361 80.13422108 C444.27204361 72.21422108 444.27204361 72.21422108 441.74704361 64.13422108 C422.27704361 64.13422108 402.80704361 64.13422108 382.74704361 64.13422108 Z M414.74704361 96.13422108 C414.74704361 106.69422108 414.74704361 117.25422108 414.74704361 128.13422108 C430.58704361 128.13422108 446.42704361 128.13422108 462.74704361 128.13422108 C461.11766861 123.03984608 459.48829361 117.94547108 457.80954361 112.69672108 C457.2965773 111.08740711 456.78361099 109.47809315 456.25510025 107.82001209 C455.85154312 106.56374012 455.44798599 105.30746815 455.03219986 104.01312733 C454.71599686 103.01678272 454.71599686 103.01678272 454.39340591 102.00030994 C453.53527403 98.8108922 453.53527403 98.8108922 451.74704361 96.13422108 C449.00810276 96.04563462 446.29451091 96.01898629 443.55563736 96.03656483 C442.73579865 96.03797977 441.91595993 96.03939472 441.07127762 96.04085255 C438.44232979 96.04646819 435.81346587 96.05902328 433.18454361 96.07172108 C431.40655004 96.07673406 429.62855515 96.08129732 427.85055923 96.08539295 C423.48266203 96.09559355 419.1149472 96.11516575 414.74704361 96.13422108 Z M22.74704361 208.13422108 C22.74704361 213.41422108 22.74704361 218.69422108 22.74704361 224.13422108 C28.35704361 224.13422108 33.96704361 224.13422108 39.74704361 224.13422108 C40.36579361 222.42234608 40.98454361 220.71047108 41.62204361 218.94672108 C42.93638397 215.31037941 44.31013522 211.72649206 45.74704361 208.13422108 C38.15704361 208.13422108 30.56704361 208.13422108 22.74704361 208.13422108 Z M59.15329361 217.29828358 C54.27778358 223.66353279 53.72051603 230.38591195 54.74704361 238.13422108 C56.98948743 245.53636203 61.02910894 250.36810618 67.74704361 254.13422108 C73.84016948 256.96983038 80.04727457 257.32153951 86.47360611 255.25922108 C93.07178243 252.22924283 97.79491863 248.4619099 100.80954361 241.77875233 C103.12910821 235.0996489 103.399675 229.4041099 100.83688736 222.78265858 C97.35981862 215.73422772 92.48002472 211.5750208 85.18454361 208.75922108 C74.92636681 206.89409802 66.1845519 209.43786747 59.15329361 217.29828358 Z M124.24704361 216.50922108 C119.34822377 222.59323927 118.27325173 227.66183285 118.43063736 235.38422108 C119.20177854 242.0864852 122.69696607 246.80558319 127.74704361 251.13422108 C134.42118158 255.93960042 139.62131813 257.05953275 147.74704361 256.13422108 C155.43281034 253.68575539 161.05626589 249.32138573 164.77438736 242.15375233 C167.63818337 235.33079134 167.30418779 229.2268659 164.78219986 222.34125233 C161.60707992 215.57165699 156.65405733 211.73483758 149.74704361 209.13422108 C139.8844692 206.32978675 131.14853519 209.08166299 124.24704361 216.50922108 Z M388.74704361 216.13422108 C384.64071089 221.58811001 382.37717479 227.26853109 382.74704361 234.13422108 C383.87021194 241.64540926 386.93713612 247.22857934 392.74704361 252.13422108 C398.9217417 256.25845339 405.4555841 257.2946928 412.74704361 256.13422108 C420.1369908 253.82353154 424.97030561 249.87110507 428.74704361 243.13422108 C431.62538012 237.06986381 431.85968575 230.30310808 430.12985611 223.82172108 C427.15869792 217.09060163 421.43507028 212.0017943 414.68454361 209.19672108 C405.30036332 206.25158847 395.69647778 209.3369643 388.74704361 216.13422108 Z " fill="#D946EF" transform="translate(17.25295639038086,119.86577892303467)"/>
<path d="M0 0 C1.71368806 -0.01657153 1.71368806 -0.01657153 3.46199608 -0.03347784 C4.71247042 -0.02523708 5.96294476 -0.01699631 7.25131226 -0.00850582 C8.59675674 -0.01383144 9.94219527 -0.02089722 11.28762245 -0.02955288 C14.98371341 -0.0482053 18.67940439 -0.04186653 22.37551212 -0.03139985 C26.36195953 -0.02441519 30.34832416 -0.04040011 34.33474731 -0.05339718 C42.14370856 -0.07505433 49.95252418 -0.07490599 57.7615056 -0.06677163 C64.10718221 -0.06047554 70.45281629 -0.06160507 76.79849243 -0.06804371 C77.70113913 -0.06894536 78.60378583 -0.06984702 79.53378546 -0.070776 C81.36741115 -0.07262717 83.20103682 -0.07448973 85.03466249 -0.07636356 C102.23448813 -0.09294782 119.43423179 -0.0842173 136.63405252 -0.06737798 C152.37642053 -0.05267851 168.11859773 -0.06731177 183.86094117 -0.09614814 C200.01919178 -0.12552633 216.17735427 -0.13651916 232.33563042 -0.12696594 C234.16256585 -0.12594337 235.9895013 -0.12494876 237.81643677 -0.12398243 C238.71535822 -0.12350604 239.61427966 -0.12302965 240.54044116 -0.12253882 C246.8795846 -0.12037271 253.2186448 -0.13018917 259.55776978 -0.14475346 C267.28155608 -0.16225127 275.00509901 -0.16219619 282.72887564 -0.1394018 C286.67084762 -0.12823655 290.61239041 -0.1251482 294.55434418 -0.14370251 C298.16178319 -0.16046407 301.76841727 -0.15421645 305.37580371 -0.12948572 C307.30152326 -0.12226407 309.22728628 -0.13967083 311.15293312 -0.15789706 C320.47332888 -0.05655571 320.47332888 -0.05655571 323.57739258 2.82276344 C325.86869419 6.37664208 326.0615152 8.35887959 325.3074646 12.50615788 C321.82379694 15.98999216 319.5014703 17.00630304 314.6149292 17.00952244 C312.90124114 17.02516892 312.90124114 17.02516892 311.15293312 17.0411315 C309.90245878 17.03220861 308.65198444 17.02328572 307.36361694 17.01409245 C306.01817334 17.01870185 304.67273478 17.02505505 303.32730675 17.03300142 C299.63120649 17.04971277 295.93551889 17.04144045 292.23941708 17.02905655 C288.25297678 17.02001566 284.26660802 17.03397099 280.28018188 17.04497623 C272.47121326 17.06277637 264.66239828 17.05891485 256.8534236 17.04732567 C250.50774848 17.03829749 244.16211646 17.03706468 237.81643677 17.04142094 C236.91379007 17.04203387 236.01114337 17.0426468 235.08114374 17.04327831 C233.24751805 17.04455719 231.41389238 17.04585404 229.58026671 17.04716867 C212.38043697 17.05857885 195.18069245 17.04545391 177.98087668 17.02396721 C163.21795184 17.00609582 148.4551528 17.00919981 133.69223022 17.02764225 C116.55456533 17.04904125 99.41697517 17.05748017 82.27929878 17.0451932 C80.45236334 17.04391898 78.62542789 17.0426615 76.79849243 17.04142094 C75.89957098 17.04080383 75.00064954 17.04018673 74.07448804 17.03955093 C67.73536028 17.03609511 61.39627986 17.04193136 55.05715942 17.05133915 C47.33339704 17.06254973 39.60979728 17.05953896 31.88605356 17.03821617 C27.94413964 17.027693 24.00249702 17.02360529 20.06058502 17.03681278 C16.45324158 17.04871663 12.84642135 17.04220801 9.23912549 17.02090257 C7.31341518 17.01430521 5.38766866 17.02739066 3.46199608 17.0411315 C2.31953737 17.03070051 1.17707867 17.02026952 0 17.00952244 C-0.98570166 17.00887303 -1.97140331 17.00822362 -2.98697472 17.00755453 C-6.46234804 16.36349559 -8.16572929 14.92639829 -10.6925354 12.50615788 C-11.3565979 10.50615788 -11.3565979 10.50615788 -11.3175354 8.50615788 C-11.33042603 7.84615788 -11.34331665 7.18615788 -11.3565979 6.50615788 C-9.63033652 1.30706476 -4.97945088 0.00601899 0 0 Z " fill="#D946EF" transform="translate(42.692535400390625,279.49384212493896)"/>
<path d="M0 0 C2.59191186 1.69814915 2.96408796 2.8820033 3.875 5.875 C4.02405268 9.60131711 3.25133987 11.08159647 1 14 C-2.09173752 15.54586876 -4.59429552 15.29359521 -8 15 C-10.4375 13.4375 -10.4375 13.4375 -12 11 C-12.46918683 7.24650538 -12.53136381 4.96151547 -10.6875 1.625 C-7.29444212 -1.64238907 -4.28933391 -1.07233348 0 0 Z " fill="#D946EF" transform="translate(164,345)"/>
<path d="M0 0 C2.59191186 1.69814915 2.96408796 2.8820033 3.875 5.875 C4.02405268 9.60131711 3.25133987 11.08159647 1 14 C-2.09173752 15.54586876 -4.59429552 15.29359521 -8 15 C-10.4375 13.4375 -10.4375 13.4375 -12 11 C-12.46918683 7.24650538 -12.53136381 4.96151547 -10.6875 1.625 C-7.29444212 -1.64238907 -4.28933391 -1.07233348 0 0 Z " fill="#D946EF" transform="translate(100,345)"/>
<path d="M0 0 C1.875 1.0625 1.875 1.0625 3 3 C3.75471698 9.79245283 3.75471698 9.79245283 1.4375 13.5 C-1.94888329 15.58392818 -4.09385318 15.55802097 -8 15 C-10.71604883 13.07017583 -11.74692606 11.65799225 -12.9375 8.5625 C-13.02066111 5.1528946 -12.08657139 3.66217729 -10 1 C-6.62152517 -1.56298091 -3.97719014 -1.10007387 0 0 Z " fill="#D946EF" transform="translate(429,345)"/>
</svg>
