<svg width="63" height="73" viewBox="0 0 63 73" fill="none" xmlns="http://www.w3.org/2000/svg">
<g clip-path="url(#clip0_202_318)">
<path d="M44.0746 13.0082C37.2554 13.0082 31.2819 16.6152 27.9502 22.0248C27.1161 21.9419 26.2703 21.8971 25.4129 21.8971C24.6318 21.8971 23.859 21.9385 23.0962 22.0065V0.724609H17.7181V23.0861C7.4461 26.3465 0 35.9584 0 47.3117C0 61.3482 11.3781 72.7263 25.4146 72.7263C32.7214 72.7263 39.3035 69.6384 43.9403 64.7014L39.9901 61.0397C36.3333 64.9186 31.1542 67.3482 25.4163 67.3482C16.4627 67.3482 8.86236 61.4443 6.30348 53.3249H8.15423C16.408 53.3249 23.0978 46.6334 23.0978 38.3813V27.4178C23.859 27.3299 24.6302 27.2802 25.4146 27.2802C25.5191 27.2802 25.6235 27.2868 25.728 27.2885C25.3582 28.7495 25.1592 30.2785 25.1526 31.8523H25.1509V63.7578H30.529V45.1492C33.9668 48.6732 38.7645 50.8656 44.0763 50.8656C54.529 50.8656 63.0017 42.3929 63.0017 31.9402C63.0017 21.4875 54.529 13.0148 44.0763 13.0148L44.0746 13.0082ZM17.7181 38.378C17.7181 43.6533 13.4262 47.9435 8.15257 47.9435H5.39469C5.38806 47.7329 5.37811 47.5223 5.37811 47.31C5.37811 38.9883 10.4793 31.8374 17.7181 28.8142V38.378ZM44.0746 45.4808C36.6053 45.4808 30.5274 39.4029 30.5274 31.9336C30.5274 30.6019 30.7231 29.3167 31.0829 28.0994C34.5124 29.1143 37.5622 31.0198 39.9585 33.5538L43.723 29.6964C40.9569 26.8208 37.5174 24.6019 33.6634 23.2768C36.1509 20.2918 39.8939 18.388 44.073 18.388C51.5423 18.388 57.6202 24.4659 57.6202 31.9352C57.6202 39.4045 51.5423 45.4825 44.073 45.4825L44.0746 45.4808Z" fill="white"/>
</g>
<defs>
<clipPath id="clip0_202_318">
<rect width="63" height="72" fill="white" transform="translate(0 0.724609)"/>
</clipPath>
</defs>
</svg>
