<?xml version="1.0" encoding="UTF-8"?>
<svg version="1.1" xmlns="http://www.w3.org/2000/svg" width="512" height="512">
<path d="M0 0 C0.98613281 0.17208984 0.98613281 0.17208984 1.9921875 0.34765625 C2.65476562 0.43917969 3.31734375 0.53070313 4 0.625 C6.71477337 1.76656788 7.4220567 2.80962564 8.8671875 5.41015625 C9.28423569 8.45924789 9.21584171 11.47839271 9.16015625 14.55078125 C9.15591141 15.43296326 9.15166656 16.31514526 9.14729309 17.22406006 C9.13052588 20.03640508 9.09287748 22.84802851 9.0546875 25.66015625 C9.03963812 27.56900005 9.02595016 29.47785511 9.01367188 31.38671875 C8.98062877 36.06147514 8.92886005 40.73569343 8.8671875 45.41015625 C9.96184326 45.38397217 11.05649902 45.35778809 12.18432617 45.33081055 C16.25622008 45.24012406 20.32802526 45.18284076 24.40063477 45.13549805 C26.16120426 45.11039564 27.92166997 45.07630597 29.68188477 45.03295898 C32.21656929 44.9721151 34.74987325 44.94390512 37.28515625 44.921875 C38.46044136 44.88316536 38.46044136 44.88316536 39.6594696 44.84367371 C43.95902021 44.84148061 45.39549235 45.01869691 48.84106445 47.87817383 C49.50968506 48.71372803 50.17830566 49.54928223 50.8671875 50.41015625 C51.1971875 50.74015625 51.5271875 51.07015625 51.8671875 51.41015625 C51.96105131 53.28196565 51.98462554 55.15733685 51.98071289 57.03149414 C51.98063736 58.23266373 51.98056183 59.43383331 51.98048401 60.67140198 C51.97532272 61.97866745 51.97016144 63.28593292 51.96484375 64.6328125 C51.96297948 65.97659757 51.96155562 67.32038332 51.96055603 68.66416931 C51.95673152 72.20697902 51.94690182 75.74974795 51.93585205 79.2925415 C51.92563649 82.90530852 51.9210581 86.51808209 51.91601562 90.13085938 C51.90527948 97.22397505 51.88820386 104.31706299 51.8671875 111.41015625 C52.59832764 111.3944458 53.32946777 111.37873535 54.08276367 111.36254883 C57.4066591 111.30005274 60.7304307 111.26111873 64.0546875 111.22265625 C65.78041992 111.18495117 65.78041992 111.18495117 67.54101562 111.14648438 C68.65283203 111.13681641 69.76464844 111.12714844 70.91015625 111.1171875 C72.44192505 111.09362183 72.44192505 111.09362183 74.00463867 111.06958008 C78.27594015 111.57776477 80.87032669 113.41329544 83.8671875 116.41015625 C85.43631187 121.06890334 85.05137665 125.9906393 85.0546875 130.84765625 C85.06693359 131.78931641 85.07917969 132.73097656 85.09179688 133.70117188 C85.1104412 142.5075094 85.1104412 142.5075094 82.8671875 146.41015625 C78.65097128 150.41015625 78.65097128 150.41015625 74.8671875 150.41015625 C74.8671875 164.93015625 74.8671875 179.45015625 74.8671875 194.41015625 C82.1271875 194.41015625 89.3871875 194.41015625 96.8671875 194.41015625 C96.85719475 192.09991959 96.85719475 192.09991959 96.84700012 189.74301147 C96.78620846 175.23477442 96.74104392 160.72658414 96.71175098 146.21825218 C96.69629019 138.75921891 96.67521583 131.30028079 96.64086914 123.84130859 C96.61094255 117.33912963 96.59160676 110.83701959 96.58492202 104.33477366 C96.58101525 100.89270597 96.57185047 97.45083545 96.54999733 94.00883102 C96.52578457 90.16389047 96.52521961 86.3191418 96.52661133 82.47412109 C96.5158255 81.33620117 96.50503967 80.19828125 96.493927 79.02587891 C96.53331257 68.98270256 96.53331257 68.98270256 99.8671875 64.41015625 C103.09838893 62.32620191 105.71510758 62.15726096 109.51560974 62.14945984 C110.6666217 62.14237503 111.81763367 62.13529022 113.00352478 62.12799072 C114.26233963 62.13046814 115.52115448 62.13294556 116.81811523 62.13549805 C118.16033207 62.13114973 119.50254642 62.12596618 120.84475708 62.12001038 C124.48732973 62.10662201 128.12979862 62.10604151 131.77239108 62.10857368 C134.81417077 62.10964349 137.85592947 62.10475976 140.89770466 62.09996825 C148.07415306 62.08887366 155.25054912 62.0884354 162.42700195 62.09448242 C169.82858522 62.10052327 177.22997843 62.08820837 184.63152927 62.06691235 C190.98833568 62.04929535 197.34508159 62.04329514 203.70191151 62.0465501 C207.49764585 62.04836293 211.29324461 62.04572685 215.08895683 62.03183556 C218.65867977 62.01926011 222.22810647 62.02119838 225.79782486 62.03424644 C227.73033164 62.03773961 229.66284746 62.02643217 231.59532166 62.01467896 C233.32606934 62.02520042 233.32606934 62.02520042 235.09178162 62.03593445 C236.59250292 62.03568284 236.59250292 62.03568284 238.12354183 62.03542614 C241.35157268 62.4763141 243.23424847 63.52408269 245.8671875 65.41015625 C248.13973175 68.59694244 248.11066511 71.4363957 248.09423828 75.28027344 C248.09408722 76.46119568 248.09393616 77.64211792 248.09378052 78.85882568 C248.08345795 80.12873352 248.07313538 81.39864136 248.0625 82.70703125 C248.05825516 84.66289154 248.05825516 84.66289154 248.05392456 86.65826416 C248.04630471 90.11724575 248.02667058 93.57605818 248.0045166 97.03497314 C247.98402253 100.56756299 247.97491524 104.10018028 247.96484375 107.6328125 C247.94342298 114.55866304 247.90930706 121.48440151 247.8671875 128.41015625 C248.59302032 128.4012738 249.31885315 128.39239136 250.06668091 128.38323975 C256.92244375 128.30293779 263.77813587 128.24211274 270.63424873 128.20290756 C274.15871444 128.18207356 277.68279003 128.15383423 281.20703125 128.10839844 C285.26305793 128.05643669 289.31867779 128.03717658 293.375 128.01953125 C294.63458527 127.99888611 295.89417053 127.97824097 297.19192505 127.95697021 C308.16676747 127.95416208 308.16676747 127.95416208 312.8671875 132.41015625 C316.35620845 137.64368768 316.05697628 143.10907428 316.18359375 149.2109375 C316.20437485 150.04731247 316.22515594 150.88368744 316.24656677 151.7454071 C316.31169784 154.40441046 316.370777 157.06350853 316.4296875 159.72265625 C316.47290742 161.53060856 316.5165228 163.33855147 316.56054688 165.14648438 C316.66734166 169.56761247 316.76871075 173.98883537 316.8671875 178.41015625 C317.41246094 177.70439453 317.41246094 177.70439453 317.96875 176.984375 C318.47148437 176.36175781 318.97421875 175.73914063 319.4921875 175.09765625 C319.97945313 174.48277344 320.46671875 173.86789062 320.96875 173.234375 C325.59306035 168.79085045 330.092327 168.03204209 336.33789062 168.00610352 C337.42202492 167.99580864 337.42202492 167.99580864 338.52806091 167.98530579 C340.90172327 167.96710124 343.27472076 167.97086548 345.6484375 167.9765625 C347.30700901 167.97199808 348.96557862 167.96669173 350.62414551 167.9606781 C354.09407249 167.95175983 357.56376915 167.95415593 361.03369141 167.96411133 C365.47239902 167.97560767 369.91031186 167.95537332 374.3489151 167.92619419 C377.77196266 167.90781852 381.19482015 167.90812719 384.61790466 167.91383171 C386.25411597 167.91398472 387.89034032 167.90795762 389.52650452 167.89554024 C391.81700053 167.88060297 394.10603306 167.89132493 396.39648438 167.90844727 C398.34790344 167.90869652 398.34790344 167.90869652 400.33874512 167.90895081 C405.33277323 168.61833863 408.43857282 170.79105961 411.7421875 174.53515625 C414.29077746 181.04821947 413.33801282 187.01063069 410.5859375 193.31640625 C409.53222383 195.52359346 408.45796443 197.72104832 407.3671875 199.91015625 C406.77835795 201.1284314 406.1915797 202.3476998 405.60668945 203.56787109 C404.35666842 206.17032966 403.09699753 208.76779417 401.83056641 211.36230469 C399.85208182 215.42651813 397.92186022 219.51240092 396.00390625 223.60546875 C395.52008484 224.63794739 395.52008484 224.63794739 395.02648926 225.69128418 C394.36841628 227.09616918 393.71047847 228.5011175 393.05267334 229.90612793 C391.36746685 233.50122137 389.67380883 237.09232602 387.98046875 240.68359375 C387.29507232 242.13768951 386.60968822 243.59179108 385.92431641 245.04589844 C385.41484467 246.12671692 385.41484467 246.12671692 384.89508057 247.22937012 C381.84258167 253.70557615 378.79186531 260.18262133 375.7421875 266.66015625 C375.24625092 267.71340591 375.24625092 267.71340591 374.74029541 268.78793335 C370.55236621 277.68353568 366.37845641 286.58551631 362.22509766 295.49731445 C361.04616792 298.02692032 359.86485609 300.55538833 358.68115234 303.08276367 C356.1547157 308.48154866 353.64437618 313.88456293 351.20703125 319.32421875 C350.80605225 320.20601807 350.40507324 321.08781738 349.99194336 321.99633789 C349.27572769 323.57319388 348.57082234 325.15527203 347.88110352 326.74389648 C345.64746922 331.61868726 343.27144394 334.31194926 338.8671875 337.41015625 C335.4638685 338.54459592 332.87342023 338.53906061 329.28347301 338.54437733 C328.27048543 338.54790567 328.27048543 338.54790567 327.23703346 338.5515053 C324.9577449 338.55820054 322.67851328 338.55773692 320.3992157 338.55732727 C318.75510646 338.56062556 317.11099803 338.56435105 315.46689063 338.56846875 C310.93602319 338.57850065 306.40516899 338.58220745 301.87429202 338.58485806 C296.99278805 338.58875751 292.11129462 338.598336 287.22979736 338.60707092 C275.43559151 338.6268441 263.64138479 338.63690201 251.84716651 338.64579871 C246.29663249 338.65017967 240.74609944 338.65554693 235.19556618 338.66078758 C216.7511283 338.67779969 198.30669103 338.69229515 179.86224651 338.69953632 C175.07458686 338.70144629 170.28692721 338.70336662 165.49926758 338.70532227 C163.71429019 338.70604788 163.71429019 338.70604788 161.89325265 338.70678815 C142.60458543 338.71509327 123.31598012 338.74043843 104.02733996 338.77290294 C84.23617757 338.80594248 64.44504669 338.82398222 44.65385658 338.82718056 C33.53688042 338.8293484 22.4199946 338.83813708 11.30304527 338.86364174 C1.83796991 338.88530622 -7.62699318 338.89342011 -17.09209052 338.88367496 C-21.92320315 338.87911808 -26.75408393 338.88109687 -31.58516502 338.9004364 C-36.0061525 338.91798184 -40.42673751 338.9171409 -44.84772875 338.90153911 C-46.44868222 338.89914989 -48.04966294 338.90355426 -49.6505746 338.91536776 C-51.82473277 338.93042006 -53.99745252 338.92086249 -56.17157459 338.90514088 C-57.98381872 338.90660609 -57.98381872 338.90660609 -59.83267385 338.9081009 C-64.85517781 338.15027547 -68.90515619 335.31731915 -72.1328125 331.41015625 C-75.35157771 321.75386061 -71.44044964 314.61230539 -67.1953125 305.97265625 C-66.63134766 304.78994141 -66.06738281 303.60722656 -65.48632812 302.38867188 C-63.73035165 298.71479055 -61.95385361 295.05223847 -60.1328125 291.41015625 C-59.65073941 288.42130306 -59.57761795 286.31470966 -61.19433594 283.68066406 C-62.74104807 281.74120319 -64.3560615 279.88596031 -66.0078125 278.03515625 C-82.03302079 259.18351305 -99.95051763 230.58447026 -99.453125 204.96875 C-98.98923068 201.26325268 -97.64162186 199.12803306 -95.1328125 196.41015625 C-91.1328125 194.41015625 -91.1328125 194.41015625 -73.1328125 194.41015625 C-73.1328125 179.89015625 -73.1328125 165.37015625 -73.1328125 150.41015625 C-74.7828125 150.08015625 -76.4328125 149.75015625 -78.1328125 149.41015625 C-80.88543643 147.11630297 -81.99065346 145.83663336 -83.1328125 142.41015625 C-83.36343969 138.78911556 -83.31797812 135.1627794 -83.3203125 131.53515625 C-83.33255859 130.54128906 -83.34480469 129.54742187 -83.35742188 128.5234375 C-83.36032227 127.07904297 -83.36032227 127.07904297 -83.36328125 125.60546875 C-83.36739014 124.72906738 -83.37149902 123.85266602 -83.37573242 122.94970703 C-83.02987771 119.33404799 -82.00548479 116.47253991 -79.6953125 113.66015625 C-76.54311467 111.13839798 -73.44877976 111.29208235 -69.58984375 111.3125 C-68.51669922 111.31572266 -67.44355469 111.31894531 -66.33789062 111.32226562 C-65.21833984 111.33064453 -64.09878906 111.33902344 -62.9453125 111.34765625 C-61.24858398 111.35442383 -61.24858398 111.35442383 -59.51757812 111.36132812 C-56.72260323 111.37312127 -53.9277343 111.38957975 -51.1328125 111.41015625 C-51.13725372 110.73443573 -51.14169495 110.05871521 -51.14627075 109.36251831 C-51.19055846 102.32210405 -51.22070163 95.28172946 -51.24267578 88.24121094 C-51.25272589 85.61456698 -51.2663681 82.98793418 -51.28369141 80.36132812 C-51.30798278 76.58330527 -51.31930569 72.80543052 -51.328125 69.02734375 C-51.33844757 67.8552536 -51.34877014 66.68316345 -51.35940552 65.47555542 C-51.36036274 58.50091151 -51.29309863 53.35223617 -47.04418945 47.56567383 C-43.10136924 44.64649901 -40.32704689 44.76456209 -35.55078125 44.921875 C-34.73660233 44.92894974 -33.9224234 44.93602448 -33.08357239 44.9433136 C-30.49486607 44.97120027 -27.90835977 45.03392309 -25.3203125 45.09765625 C-23.56057822 45.12274675 -21.80080987 45.14555861 -20.04101562 45.16601562 C-15.73743954 45.22100753 -11.4354984 45.30723633 -7.1328125 45.41015625 C-7.15899658 44.22462158 -7.18518066 43.03908691 -7.2121582 41.81762695 C-7.30280271 37.41026759 -7.36011338 33.00299025 -7.4074707 28.5949707 C-7.43258249 26.68890518 -7.46667895 24.78293566 -7.51000977 22.87719727 C-7.57080994 20.13403627 -7.59905495 17.39215039 -7.62109375 14.6484375 C-7.64690018 13.79929276 -7.6727066 12.95014801 -7.69929504 12.07527161 C-7.70138129 7.65340714 -7.56038115 5.95446913 -4.7355957 2.35839844 C-2.1328125 0.41015625 -2.1328125 0.41015625 0 0 Z M-35.1328125 61.41015625 C-35.1328125 77.91015625 -35.1328125 94.41015625 -35.1328125 111.41015625 C-11.7028125 111.41015625 11.7271875 111.41015625 35.8671875 111.41015625 C35.8671875 94.91015625 35.8671875 78.41015625 35.8671875 61.41015625 C12.4371875 61.41015625 -10.9928125 61.41015625 -35.1328125 61.41015625 Z M112.8671875 78.41015625 C112.8671875 94.91015625 112.8671875 111.41015625 112.8671875 128.41015625 C130.0271875 128.41015625 147.1871875 128.41015625 164.8671875 128.41015625 C164.8671875 111.91015625 164.8671875 95.41015625 164.8671875 78.41015625 C147.7071875 78.41015625 130.5471875 78.41015625 112.8671875 78.41015625 Z M180.8671875 78.41015625 C180.8671875 94.91015625 180.8671875 111.41015625 180.8671875 128.41015625 C197.6971875 128.41015625 214.5271875 128.41015625 231.8671875 128.41015625 C231.8671875 111.91015625 231.8671875 95.41015625 231.8671875 78.41015625 C215.0371875 78.41015625 198.2071875 78.41015625 180.8671875 78.41015625 Z M-67.1328125 127.41015625 C-67.1328125 129.72015625 -67.1328125 132.03015625 -67.1328125 134.41015625 C-65.25335938 134.50103516 -65.25335938 134.50103516 -63.3359375 134.59375 C-61.68488526 134.67817881 -60.03384415 134.76282564 -58.3828125 134.84765625 C-57.1453125 134.90663086 -57.1453125 134.90663086 -55.8828125 134.96679688 C-55.08359375 135.00869141 -54.284375 135.05058594 -53.4609375 135.09375 C-52.7277832 135.13040771 -51.99462891 135.16706543 -51.23925781 135.20483398 C-49.12103645 135.4113041 -47.1808669 135.84147711 -45.1328125 136.41015625 C-43.56612675 144.37981853 -43.56612675 144.37981853 -45.5078125 147.91015625 C-48.1328125 149.41015625 -48.1328125 149.41015625 -57.1328125 150.41015625 C-57.1328125 164.93015625 -57.1328125 179.45015625 -57.1328125 194.41015625 C-18.8528125 194.41015625 19.4271875 194.41015625 58.8671875 194.41015625 C58.8671875 179.89015625 58.8671875 165.37015625 58.8671875 150.41015625 C53.27136719 150.37277344 47.67554688 150.33539063 41.91015625 150.296875 C38.36910956 150.26660573 34.82811379 150.2354648 31.28710938 150.20117188 C25.66433233 150.14680139 20.041656 150.09569358 14.41870117 150.0637207 C9.88629085 150.03774715 5.3542178 149.9973874 0.82201576 149.94696999 C-0.908727 149.93026088 -2.63952814 149.91877184 -4.37034035 149.91254234 C-6.79128153 149.90294493 -9.21135199 149.87493954 -11.63208008 149.8425293 C-12.35065186 149.84396439 -13.06922363 149.84539948 -13.80957031 149.84687805 C-16.70612783 149.79188725 -18.65999778 149.74930429 -21.05473328 148.03157043 C-23.12051377 144.92466909 -23.2593885 142.22385912 -22.6953125 138.59765625 C-22.416875 137.51484375 -22.416875 137.51484375 -22.1328125 136.41015625 C-17.98991463 135.25876853 -13.9660817 135.23561373 -9.69238281 135.20483398 C-8.84323807 135.19493439 -7.99409332 135.18503479 -7.11921692 135.17483521 C-4.31648534 135.14328378 -1.51373682 135.1184879 1.2890625 135.09375 C3.23391151 135.07317499 5.1787561 135.05217837 7.12359619 135.03077698 C12.23960795 134.97561287 17.35565969 134.92617862 22.47174072 134.87792969 C27.69343621 134.82767334 32.91507372 134.77200885 38.13671875 134.71679688 C48.38015879 134.60928454 58.6236492 134.50782418 68.8671875 134.41015625 C68.8671875 132.10015625 68.8671875 129.79015625 68.8671875 127.41015625 C23.9871875 127.41015625 -20.8928125 127.41015625 -67.1328125 127.41015625 Z M112.8671875 144.41015625 C112.8671875 160.91015625 112.8671875 177.41015625 112.8671875 194.41015625 C130.0271875 194.41015625 147.1871875 194.41015625 164.8671875 194.41015625 C164.8671875 177.91015625 164.8671875 161.41015625 164.8671875 144.41015625 C147.7071875 144.41015625 130.5471875 144.41015625 112.8671875 144.41015625 Z M180.8671875 144.41015625 C180.8671875 160.91015625 180.8671875 177.41015625 180.8671875 194.41015625 C197.6971875 194.41015625 214.5271875 194.41015625 231.8671875 194.41015625 C231.8671875 177.91015625 231.8671875 161.41015625 231.8671875 144.41015625 C215.0371875 144.41015625 198.2071875 144.41015625 180.8671875 144.41015625 Z M247.8671875 144.41015625 C247.8671875 160.91015625 247.8671875 177.41015625 247.8671875 194.41015625 C265.0271875 194.41015625 282.1871875 194.41015625 299.8671875 194.41015625 C299.8671875 177.91015625 299.8671875 161.41015625 299.8671875 144.41015625 C282.7071875 144.41015625 265.5471875 144.41015625 247.8671875 144.41015625 Z M330.8671875 186.41015625 C330.03294078 189.40645599 329.3997408 192.42445119 328.74609375 195.46484375 C327.86570297 198.41513107 326.77167699 200.0441331 324.8671875 202.41015625 C324.8671875 203.07015625 324.8671875 203.73015625 324.8671875 204.41015625 C317.57754445 208.18997116 311.22261994 209.5358272 302.99127388 209.53320408 C301.98559299 209.53493485 301.98559299 209.53493485 300.95959532 209.53670058 C298.7149919 209.53934559 296.47046033 209.53486255 294.2258606 209.53041077 C292.59963555 209.5308469 290.97341057 209.53172259 289.34718597 209.53299993 C284.87991458 209.53523659 280.41266715 209.53123491 275.94539881 209.52622187 C271.12746335 209.5219057 266.30952926 209.52336463 261.49159241 209.52412415 C253.1446615 209.52464864 244.79773842 209.52150961 236.45080948 209.51588631 C224.3825327 209.50776123 212.3142597 209.50515505 200.24598049 209.50389832 C180.66626349 209.50170939 161.08655067 209.4950536 141.50683594 209.4855957 C122.48632834 209.47641748 103.46582187 209.46933865 84.4453125 209.46508789 C83.27299958 209.46482517 82.10068666 209.46456244 80.8928491 209.46429176 C75.01173291 209.46298673 69.13061672 209.46172302 63.24950051 209.46047986 C14.4553933 209.45011219 -34.3387094 209.43249818 -83.1328125 209.41015625 C-82.52299127 211.78577664 -81.90714522 214.15956489 -81.2878418 216.53271484 C-81.11784416 217.19754379 -80.94784653 217.86237274 -80.77269745 218.54734802 C-79.1561586 224.7079173 -76.77360827 230.33010248 -73.9453125 236.03515625 C-73.46408936 237.02153076 -72.98286621 238.00790527 -72.48706055 239.02416992 C-67.1959439 249.64046057 -60.60940502 258.85940546 -53.0546875 267.99609375 C-51.1328125 270.41015625 -51.1328125 270.41015625 -50.26129442 272.14717227 C-49.07691573 274.307867 -47.99804992 275.7871272 -46.1328125 277.41015625 C-42.26190557 278.46561757 -38.46429192 278.33157453 -34.4730072 278.26298523 C-32.68223648 278.27384862 -32.68223648 278.27384862 -30.85528857 278.28493148 C-27.5440014 278.29806449 -24.23555573 278.27985935 -20.92456758 278.2485224 C-17.35328224 278.2223946 -13.78213603 278.23674345 -10.21080017 278.24633789 C-4.02342529 278.25759254 2.16348227 278.24371127 8.35078621 278.21320152 C17.30088469 278.16945514 26.25060548 278.16807858 35.20078748 278.17781136 C49.72743546 278.19282893 64.25390574 278.17957426 78.78051758 278.14575195 C79.64990034 278.14373482 80.51928311 278.14171768 81.4150108 278.13963941 C83.17460932 278.13554715 84.93420784 278.13145326 86.69380635 278.12735774 C87.56621317 278.12533091 88.43861999 278.12330407 89.33746338 278.12121582 C90.21065312 278.11918235 91.08384285 278.11714888 91.98349288 278.11505378 C101.68373013 278.09290752 111.38397429 278.07802732 121.08422852 278.06567383 C121.95285599 278.06456015 122.82148347 278.06344646 123.716433 278.06229904 C138.1898157 278.04435696 152.66317132 278.04240933 167.13656229 278.04946166 C176.06653959 278.05283843 184.99623993 278.04022511 193.92615782 278.00706027 C200.04156222 277.98505565 206.15688369 277.97661302 212.27232701 277.97891291 C215.803031 277.97967108 219.33340373 277.97365026 222.86403656 277.9501667 C226.68758349 277.92481877 230.51073563 277.93006101 234.33436584 277.9382782 C236.01600825 277.91947531 236.01600825 277.91947531 237.73162323 277.90029258 C239.26467154 277.91098862 239.26467154 277.91098862 240.82869053 277.92190075 C242.1528867 277.91848731 242.1528867 277.91848731 243.50383431 277.91500491 C246.67267145 278.57891497 247.87666134 279.9085987 249.8671875 282.41015625 C250.3671875 285.41015625 250.3671875 285.41015625 249.8671875 288.41015625 C247.88167328 290.90101856 246.67144702 292.23793049 243.51731706 292.91336226 C242.64092253 292.91488115 241.76452801 292.91640003 240.86157608 292.91796494 C239.33957781 292.93513632 239.33957781 292.93513632 237.78683209 292.9526546 C236.6739994 292.94489418 235.56116671 292.93713377 234.41461182 292.92913818 C232.63926532 292.94039006 232.63926532 292.94039006 230.82805324 292.95186925 C227.54173329 292.96867686 224.25629488 292.96756798 220.97000098 292.95896173 C217.42670281 292.95402431 213.88351391 292.97209249 210.34025574 292.98738098 C204.20102707 293.01071516 198.06191658 293.01944056 191.92264557 293.0182724 C183.04629599 293.01660451 174.17010416 293.03692403 165.29379663 293.0626277 C150.89297497 293.10373114 136.49218165 293.1270273 122.09130859 293.13916016 C108.10137202 293.15098485 94.11148882 293.17117423 80.12158203 293.20263672 C79.2593912 293.20457282 78.39720038 293.20650892 77.50888255 293.20850369 C73.18356818 293.21826813 68.8582542 293.22819726 64.53294039 293.23820829 C28.64438093 293.32105999 -7.24417619 293.37502705 -43.1328125 293.41015625 C-43.59824463 294.41393311 -44.06367676 295.41770996 -44.54321289 296.4519043 C-45.16807356 297.79608814 -45.79299546 299.14024352 -46.41796875 300.484375 C-46.72303345 301.14272339 -47.02809814 301.80107178 -47.34240723 302.47937012 C-49.7982871 307.75634663 -52.39373186 312.94629527 -55.06640625 318.1171875 C-56.27337957 320.29093129 -56.27337957 320.29093129 -56.1328125 322.41015625 C71.9071875 322.41015625 199.9471875 322.41015625 331.8671875 322.41015625 C340.59770861 308.40270646 340.59770861 308.40270646 344.8671875 293.41015625 C343.996884 293.40429001 343.12658051 293.39842377 342.22990417 293.39237976 C334.03376401 293.33451002 325.83789803 293.26246649 317.64202404 293.17444134 C313.42827956 293.12968656 309.21463291 293.09044195 305.00073242 293.0637207 C300.93513905 293.0377383 296.86992112 292.99737252 292.80455971 292.94696999 C291.25245135 292.93026683 289.700278 292.91877406 288.14809227 292.91254234 C285.97617477 292.90293827 283.80522522 292.87492595 281.63354492 292.8425293 C280.39666428 292.83142624 279.15978363 292.82032318 277.88542175 292.80888367 C274.8671875 292.41015625 274.8671875 292.41015625 272.97138977 291.00422668 C271.59968126 289.02397357 271.4342285 287.80780508 271.4296875 285.41015625 C271.40068359 284.38921875 271.40068359 284.38921875 271.37109375 283.34765625 C271.8671875 281.41015625 271.8671875 281.41015625 273.42803955 279.81608582 C276.71822153 277.9196186 279.69413201 277.97026733 283.38964844 277.9777832 C284.14125748 277.96759155 284.89286652 277.9573999 285.66725159 277.94689941 C288.14543101 277.91676501 290.62322392 277.90750302 293.1015625 277.8984375 C294.82221766 277.8815911 296.54286051 277.86344091 298.26348877 277.84403992 C302.78766025 277.79652937 307.31178183 277.76672689 311.83612061 277.74060059 C316.45464943 277.71080036 321.07300626 277.66426819 325.69140625 277.61914062 C334.74991006 277.53309555 343.80844925 277.46575563 352.8671875 277.41015625 C362.34928632 257.49987817 371.8269559 237.58861385 381.11816406 217.58837891 C383.70040475 212.03463439 386.29798933 206.48994591 388.94921875 200.96875 C389.42351318 199.98092529 389.89780762 198.99310059 390.38647461 197.9753418 C391.26259056 196.15605619 392.14207915 194.33838918 393.02563477 192.52270508 C393.40389404 191.73790771 393.78215332 190.95311035 394.171875 190.14453125 C394.50171387 189.46616211 394.83155273 188.78779297 395.17138672 188.08886719 C395.99482003 186.40509234 395.99482003 186.40509234 395.8671875 184.41015625 C387.68756362 184.36386897 379.50799423 184.32830553 371.32827187 184.30653191 C367.53032438 184.29608304 363.73246632 184.28190389 359.93457031 184.25927734 C356.27117404 184.23758804 352.60786393 184.22559594 348.94440842 184.22040176 C347.54492206 184.21669894 346.14544055 184.20946848 344.74599075 184.19869614 C342.78985419 184.184234 340.83363141 184.18333978 338.87744141 184.18310547 C337.7626944 184.17866425 336.64794739 184.17422302 335.49942017 184.16964722 C332.70924235 184.14154633 332.70924235 184.14154633 330.8671875 186.41015625 Z " fill="#E9B206" transform="translate(99.1328125,86.58984375)"/>
</svg>
