<?xml version="1.0" encoding="UTF-8"?>
<svg version="1.1" xmlns="http://www.w3.org/2000/svg" width="512" height="512">
<path d="M0 0 C1.32010071 0.00081573 1.32010071 0.00081573 2.66687012 0.00164795 C24.27380679 0.06289488 44.18459996 3.29317916 64.625 10.375 C65.60291504 10.71072021 65.60291504 10.71072021 66.60058594 11.05322266 C109.04436259 25.96981503 146.12908909 58.00365069 167.625 97.375 C167.96337891 97.99133301 168.30175781 98.60766602 168.65039062 99.24267578 C181.91116063 123.72946093 190.33021895 151.00701019 191.0625 178.9375 C191.09706299 179.70022217 191.13162598 180.46294434 191.16723633 181.2487793 C191.19709334 185.25095548 190.81176826 187.13258503 188.34375 190.3359375 C184.71577585 193.05691811 182.11944251 193.81476933 177.625 193.375 C173.93497008 191.66665281 172.12544945 190.54038229 170.5078125 186.7734375 C169.44512926 182.68257723 169.16624414 178.76581607 168.875 174.5625 C165.51633158 136.07086532 148.56774363 99.91558558 121.625 72.375 C120.81546875 71.51519531 120.0059375 70.65539062 119.171875 69.76953125 C88.54461157 37.90729752 45.01983177 22.80269639 1.625 21.375 C-44.62061359 20.90233083 -87.63743196 40.41255544 -120.375 72.375 C-142.84509546 95.07985765 -156.85469298 123.56186855 -164.375 154.375 C-164.64401123 155.44524414 -164.64401123 155.44524414 -164.91845703 156.53710938 C-170.4122426 179.34150231 -168.98326189 205.04989768 -162.375 227.375 C-162.10155762 228.32181641 -161.82811523 229.26863281 -161.54638672 230.24414062 C-156.63386905 246.91389498 -149.76370357 262.67153542 -142.375 278.375 C-141.94960937 279.28233887 -141.52421875 280.18967773 -141.0859375 281.12451172 C-134.82469314 294.35643982 -127.56299887 306.96038221 -120.06835938 319.52636719 C-118.53531332 322.10531491 -117.02170666 324.6943111 -115.515625 327.2890625 C-87.56965468 375.10596356 -53.36548764 419.56283859 -18.375 462.375 C-17.54742187 463.38820313 -16.71984375 464.40140625 -15.8671875 465.4453125 C-13.70479339 468.08991296 -11.54014694 470.7326531 -9.375 473.375 C-7.68717742 475.43723625 -5.99985723 477.49988292 -4.3125 479.5625 C-3.55839844 480.48417969 -2.80429688 481.40585937 -2.02734375 482.35546875 C-1.48207031 483.02191406 -0.93679687 483.68835938 -0.375 484.375 C3.70518503 482.822447 6.00253323 479.91192755 8.6875 476.625 C9.16791748 476.04717773 9.64833496 475.46935547 10.14331055 474.87402344 C13.94047589 470.28002917 17.62542755 465.59952253 21.28295898 460.89404297 C25.01652577 456.10417887 28.87077257 451.42229317 32.75 446.75 C37.35031006 441.19546508 41.81899926 435.58579988 46.09765625 429.77734375 C48.13547469 427.01496765 50.21740098 424.28858502 52.30859375 421.56640625 C60.13874663 411.37234489 67.78870876 401.09879776 75.11669922 390.53808594 C76.6916672 388.27939116 78.28345409 386.03332873 79.87890625 383.7890625 C93.55561547 364.50099262 106.56974722 344.71874645 118.625 324.375 C119.45499512 322.98571289 119.45499512 322.98571289 120.30175781 321.56835938 C130.04749278 305.20736969 138.79914371 288.50100707 147.14550781 271.39746094 C147.63374023 270.40004883 148.12197266 269.40263672 148.625 268.375 C149.14932617 267.29508789 149.67365234 266.21517578 150.21386719 265.10253906 C151.78757937 262.0607549 152.53177748 260.84021067 155.625 259.375 C160.09271327 258.6960417 163.52577673 258.84828885 167.625 260.8125 C170.46815967 264.45529833 170.68536678 267.81545056 170.625 272.375 C169.98355509 275.20648132 168.84751613 277.65504285 167.5625 280.25 C167.02882813 281.38223999 167.02882813 281.38223999 166.484375 282.53735352 C165.22759453 285.16547564 163.9301785 287.77058602 162.625 290.375 C162.13016113 291.37418457 161.63532227 292.37336914 161.12548828 293.40283203 C144.5919948 326.61703156 124.76160444 357.92086707 103.625 388.375 C103.09664551 389.13651367 102.56829102 389.89802734 102.02392578 390.68261719 C94.10181799 402.06826134 85.90092629 413.24477111 77.625 424.375 C77.18526855 424.96684082 76.74553711 425.55868164 76.29248047 426.16845703 C68.1077005 437.17122052 59.75075941 448.02630176 51.15917969 458.71362305 C48.68877516 461.788194 46.22962187 464.86985743 43.8046875 467.98046875 C43.34312256 468.572229 42.88155762 469.16398926 42.40600586 469.77368164 C41.16300802 471.37085368 39.92316121 472.97047667 38.68359375 474.5703125 C34.15535198 480.29923719 29.35788589 485.81530665 24.625 491.375 C25.40316574 491.37642502 26.18133148 491.37785004 26.983078 491.37931824 C34.3252151 491.39716553 41.66665147 491.43882893 49.00847912 491.50709057 C52.7828328 491.54134725 56.55678233 491.56646835 60.33129883 491.57055664 C63.97564704 491.57484267 67.61908376 491.60332826 71.26314735 491.64843178 C72.65171304 491.66139746 74.04038786 491.66571767 75.42900658 491.66115379 C77.37747262 491.65624244 79.32593408 491.68522604 81.27416992 491.71557617 C82.3822551 491.72223801 83.49034027 491.72889984 84.63200378 491.73576355 C88.58849276 492.58078031 90.09304189 494.2901333 92.625 497.375 C94.00872071 501.35319705 93.71766028 503.09701917 92.375 507.125 C90.625 510.375 90.625 510.375 87.625 512.375 C84.55240059 512.63506222 84.55240059 512.63506222 80.69216919 512.64915466 C79.98259563 512.65439134 79.27302208 512.65962802 78.54194629 512.66502339 C76.15827867 512.68005543 73.7748251 512.68072923 71.39111328 512.68139648 C69.68451575 512.68901581 67.97792166 512.69744291 66.27133179 512.70661926 C61.63081925 512.72859318 56.99037262 512.73736701 52.34981394 512.74244571 C49.4516652 512.74608577 46.55353382 512.75232399 43.65539169 512.7594471 C33.5477599 512.78395135 23.44017951 512.79699566 13.33251953 512.80053711 C3.90583694 512.80417347 -5.52052027 512.83407349 -14.94710338 512.87594169 C-23.03635842 512.91061261 -31.12550547 512.92608499 -39.21483433 512.92678314 C-44.04801052 512.92757703 -48.8808554 512.93636693 -53.71395493 512.96478081 C-58.25965569 512.99090686 -62.80474917 512.99319744 -67.35049057 512.97712517 C-69.01901572 512.97530632 -70.68757535 512.98204067 -72.3560257 512.99794388 C-74.63414009 513.01833468 -76.91011562 513.00789705 -79.1882019 512.98973083 C-81.10014752 512.99274783 -81.10014752 512.99274783 -83.05071831 512.99582577 C-87.25925294 512.20986146 -88.73730085 510.67517224 -91.375 507.375 C-92.0390625 504.875 -92.0390625 504.875 -92 502.375 C-92.01933594 501.1375 -92.01933594 501.1375 -92.0390625 499.875 C-91.07479922 496.24483234 -89.23157761 494.76092839 -86.375 492.375 C-83.38200378 491.73576355 -83.38200378 491.73576355 -80.02416992 491.71557617 C-78.7632402 491.69593307 -77.50231049 491.67628998 -76.20317078 491.65605164 C-74.83726866 491.65949456 -73.47136782 491.66347954 -72.10546875 491.66796875 C-70.70011763 491.65484634 -69.29478534 491.63954043 -67.88948059 491.62214661 C-64.20197574 491.58234574 -60.5149648 491.57210949 -56.82727051 491.56811523 C-53.05982528 491.55877429 -49.29266912 491.52135491 -45.52539062 491.48632812 C-38.14192454 491.42180269 -30.75875438 491.38852152 -23.375 491.375 C-24.1067041 490.51559814 -24.8384082 489.65619629 -25.59228516 488.77075195 C-30.40701904 483.10541956 -35.20286171 477.44658759 -39.75 471.5625 C-43.69827026 466.47988429 -47.73121843 461.47627293 -51.8125 456.5 C-57.71912288 449.27478658 -63.34324763 441.86560521 -68.89550781 434.36621094 C-70.3669306 432.3858604 -71.8492238 430.41420362 -73.3359375 428.4453125 C-84.72814611 413.35550136 -95.79021489 398.04271622 -106.375 382.375 C-106.91769531 381.57191406 -107.46039063 380.76882813 -108.01953125 379.94140625 C-151.79705906 315.01626907 -202.55602246 236.68945983 -187.28149414 154.71264648 C-183.70694483 137.50834816 -178.11901734 121.13189788 -170.375 105.375 C-170.06481934 104.73159668 -169.75463867 104.08819336 -169.43505859 103.42529297 C-156.55126735 76.94232281 -136.0990269 53.67215968 -112.375 36.375 C-111.79943359 35.95508789 -111.22386719 35.53517578 -110.63085938 35.10253906 C-78.0916645 11.71156901 -39.9211529 -0.09297093 0 0 Z " fill="#10B981" transform="translate(255.375,-0.375)"/>
<path d="M0 0 C6.00627638 4.96978012 11.50925325 10.47422456 17 16 C17.74378906 16.73476562 18.48757813 17.46953125 19.25390625 18.2265625 C43.73064658 43.65586633 55.19797951 79.6030366 55.05151367 114.40332031 C54.28771689 152.90446986 38.46221007 187.26047967 11 214 C10.55011719 214.495 10.10023438 214.99 9.63671875 215.5 C-10.32086324 236.89373553 -43.56141309 250.7486956 -72.59838867 252.17700195 C-106.65008385 252.72330911 -106.65008385 252.72330911 -123 248 C-123.73460449 247.80164551 -124.46920898 247.60329102 -125.22607422 247.39892578 C-147.83004626 241.20193715 -167.07957734 228.99402271 -184 213 C-184.81082031 212.25363281 -185.62164062 211.50726563 -186.45703125 210.73828125 C-204.82650645 193.23665527 -216.35060709 170.26156771 -223 146 C-223.28593018 144.99864014 -223.28593018 144.99864014 -223.57763672 143.97705078 C-229.32824037 122.87688545 -228.01258519 95.81279488 -222 75 C-221.80164551 74.26539551 -221.60329102 73.53079102 -221.39892578 72.77392578 C-215.20193715 50.16995374 -202.99402271 30.92042266 -187 14 C-186.25363281 13.18917969 -185.50726563 12.37835938 -184.73828125 11.54296875 C-168.11082668 -5.9089877 -146.15403261 -17.74805568 -123 -24 C-122.28215332 -24.20737793 -121.56430664 -24.41475586 -120.82470703 -24.62841797 C-79.98502122 -36.11656619 -33.34448335 -25.59554351 0 0 Z M-167.00097656 24.11132812 C-168.33791945 25.40349302 -169.66917479 26.70153528 -171 28 C-171.96292969 28.87011719 -171.96292969 28.87011719 -172.9453125 29.7578125 C-183.37342025 39.40987502 -190.24698327 52.19479079 -196 65 C-196.48339844 66.06734375 -196.96679688 67.1346875 -197.46484375 68.234375 C-207.50308175 92.27732803 -208.65941786 121.1318364 -201 146 C-200.68651611 147.02988037 -200.68651611 147.02988037 -200.36669922 148.08056641 C-191.133349 177.31605058 -170.18495276 203.04474668 -142.98242188 217.28295898 C-139.69206719 218.93952843 -136.35998236 220.49045537 -133 222 C-131.93265625 222.48339844 -130.8653125 222.96679688 -129.765625 223.46484375 C-100.76173111 235.57433752 -68.12933242 234.1214047 -39.35107422 222.34814453 C-25.05769042 216.28165692 -13.24663308 207.624868 -2 197 C-1.23816406 196.30261719 -0.47632813 195.60523438 0.30859375 194.88671875 C22.16771573 174.16411957 32.48879195 144.15595067 34.12890625 114.68359375 C34.92021408 83.50606515 22.62373864 52.68216442 1.37890625 30.1015625 C-5.21275964 23.26287661 -11.81074128 16.90359869 -20 12 C-21.05445313 11.34773438 -22.10890625 10.69546875 -23.1953125 10.0234375 C-68.60211782 -17.43588658 -128.14783879 -12.74480386 -167.00097656 24.11132812 Z " fill="#10B981" transform="translate(342,78)"/>
<path d="M0 0 C3.66000383 0.93512788 5.22367738 2.49609687 7.30859375 5.58984375 C8.83003448 9.96398584 8.17840523 12.50154608 6.31201172 16.65380859 C4.49703034 20.15570697 2.19155614 23.2842872 -0.12890625 26.46484375 C-1.21111148 27.97253138 -2.29313774 29.48034749 -3.375 30.98828125 C-3.92655762 31.75237305 -4.47811523 32.51646484 -5.04638672 33.30371094 C-7.62045936 36.88097662 -10.15480151 40.4859656 -12.69140625 44.08984375 C-13.6911951 45.50665944 -14.69119565 46.92332577 -15.69140625 48.33984375 C-16.18640625 49.04109375 -16.68140625 49.74234375 -17.19140625 50.46484375 C-22.69140625 58.25651042 -28.19140625 66.04817708 -33.69140625 73.83984375 C-34.18713135 74.54230225 -34.68285645 75.24476074 -35.19360352 75.96850586 C-36.18558821 77.3734537 -37.17825505 78.77792017 -38.17163086 80.18188477 C-40.80029773 83.89902116 -43.41376711 87.62579045 -46.0078125 91.3671875 C-46.55115234 92.14707031 -47.09449219 92.92695313 -47.65429688 93.73046875 C-48.69773223 95.22873491 -49.737001 96.72991398 -50.77148438 98.234375 C-51.24134766 98.90726562 -51.71121094 99.58015625 -52.1953125 100.2734375 C-52.81128296 101.16373657 -52.81128296 101.16373657 -53.43969727 102.07202148 C-55.1951672 104.20070426 -56.97025491 105.42911377 -59.671875 106.03125 C-63.08531133 106.21853589 -65.7175612 106.23833714 -68.62792969 104.30029297 C-69.2418457 103.7332666 -69.85576172 103.16624023 -70.48828125 102.58203125 C-71.17688232 101.94628174 -71.8654834 101.31053223 -72.57495117 100.65551758 C-76.06894173 97.24536023 -79.43315136 93.73077118 -82.75390625 90.15234375 C-83.75647461 89.0840332 -83.75647461 89.0840332 -84.77929688 87.99414062 C-88.61742555 83.88745484 -92.35896807 79.71032243 -96.0456543 75.4675293 C-98.49997746 72.66732169 -101.02935898 69.93994708 -103.56640625 67.21484375 C-114.13469329 55.80801505 -114.13469329 55.80801505 -118.69140625 50.58984375 C-119.42230469 49.77515625 -120.15320313 48.96046875 -120.90625 48.12109375 C-123.3902707 44.59889373 -123.33157405 42.1667354 -123.125 37.97265625 C-122.69140625 35.58984375 -122.69140625 35.58984375 -120.81640625 32.46484375 C-116.40935102 29.82061061 -112.70678652 29.58009165 -107.69140625 30.58984375 C-105.12890625 32.52734375 -105.12890625 32.52734375 -102.69140625 35.58984375 C-101.24483046 37.03917492 -99.78519099 38.47552429 -98.31640625 39.90234375 C-94.96016779 43.25858221 -91.78583984 46.70114152 -88.6953125 50.30078125 C-85.6196283 53.81413591 -82.43643855 57.22694494 -79.25268555 60.64233398 C-76.80618827 63.27261654 -74.3897859 65.9150389 -72.05859375 68.6484375 C-71.27742188 69.55722656 -70.49625 70.46601563 -69.69140625 71.40234375 C-69.01078125 72.21316406 -68.33015625 73.02398437 -67.62890625 73.859375 C-65.62714792 76.03393394 -65.62714792 76.03393394 -61.69140625 75.58984375 C-59.82515626 73.3092126 -58.26743987 71.12358502 -56.69140625 68.65234375 C-55.712193 67.17234564 -54.7316812 65.69320603 -53.75 64.21484375 C-52.99372314 63.06435547 -52.99372314 63.06435547 -52.22216797 61.890625 C-49.80601999 58.25908137 -47.28166151 54.706689 -44.75390625 51.15234375 C-43.74460746 49.72669289 -42.73549388 48.3009109 -41.7265625 46.875 C-40.97463623 45.81369873 -40.97463623 45.81369873 -40.20751953 44.73095703 C-38.19793952 41.89295112 -36.1926342 39.05194178 -34.18798828 36.21044922 C-33.19358624 34.8014156 -32.19847359 33.3928832 -31.20263672 31.98486328 C-28.62617094 28.34070333 -26.06182919 24.68881807 -23.515625 21.0234375 C-21.02870331 17.44767026 -18.51215516 13.89522023 -15.96337891 10.36328125 C-14.86878419 8.83715149 -13.79908667 7.29321969 -12.734375 5.74609375 C-9.07019585 0.87196318 -6.17394857 -0.53563937 0 0 Z " fill="#10B981" transform="translate(312.69140625,134.41015625)"/>
<path d="M0 0 C2.38312703 1.89428046 3.6500559 3.30011179 5 6 C5.5811138 13.08958838 5.5811138 13.08958838 3.125 16.9375 C0.13549686 19.83907658 -0.57629239 19.97949802 -4.875 20.1875 C-10.45147548 20.07657553 -10.45147548 20.07657553 -13 18 C-15.29147823 14.60229091 -16 12.55333147 -16 8.4375 C-14.81383817 4.36006871 -13.23715865 2.68447302 -10 0 C-6.74577611 -1.62711194 -3.40725698 -0.89060975 0 0 Z " fill="#10B981" transform="translate(436,217)"/>
</svg>
