<?xml version="1.0" encoding="UTF-8"?><svg id="Layer_2" xmlns="http://www.w3.org/2000/svg" viewBox="0 0 245.01 279.01"><defs><style>.cls-1{fill:rgba(255,255,255,.7);opacity:.3;stroke-width:0px;}</style></defs><g id="Layer_1-2"><path class="cls-1" d="M171.4,47.6c-26.52,0-49.75,13.98-62.71,34.94-3.24-.32-6.53-.49-9.87-.49-3.04,0-6.04.16-9.01.42V0h-20.91v86.65C28.96,99.28,0,136.53,0,180.52c0,54.39,44.25,98.48,98.83,98.48,28.42,0,54.01-11.97,72.04-31.1l-15.36-14.19c-14.22,15.03-34.36,24.44-56.68,24.44-34.82,0-64.38-22.88-74.33-54.34h7.2c32.1,0,58.11-25.93,58.11-57.91v-42.48c2.96-.34,5.96-.53,9.01-.53.41,0,.81.03,1.22.03-1.44,5.66-2.21,11.59-2.24,17.69h0v123.63h20.91v-72.11c13.37,13.66,32.03,22.15,52.68,22.15,40.65,0,73.6-32.83,73.6-73.34s-32.95-73.34-73.6-73.34v-.03ZM68.9,145.91c0,20.44-16.69,37.07-37.2,37.07h-10.72c-.03-.82-.06-1.63-.06-2.46,0-32.25,19.84-59.96,47.99-71.67v37.06ZM171.4,173.43c-29.05,0-52.68-23.55-52.68-52.49,0-5.16.76-10.14,2.16-14.86,13.34,3.93,25.2,11.32,34.52,21.14l14.64-14.95c-10.76-11.14-24.13-19.74-39.12-24.88,9.67-11.57,24.23-18.94,40.48-18.94,29.05,0,52.68,23.55,52.68,52.5s-23.64,52.5-52.68,52.5h0Z"/></g></svg>