<?xml version="1.0" encoding="UTF-8"?>
<svg version="1.1" xmlns="http://www.w3.org/2000/svg" width="512" height="512">
<path d="M0 0 C1.5468098 0.21016481 3.09369151 0.41980093 4.64063811 0.62895638 C8.87559023 1.20309831 13.10948567 1.78472134 17.34324217 2.36760533 C21.9152255 2.99571217 26.48815696 3.61684416 31.06097412 4.23884583 C40.01170514 5.45744784 48.96155155 6.68243229 57.91112116 7.90953141 C68.33186579 9.3380771 78.75350208 10.76006476 89.17518803 12.18172408 C107.76652334 14.7180397 126.35708786 17.25996049 144.94720459 19.80519104 C162.99098146 22.27561251 181.03521959 24.74262597 199.08001709 27.20558167 C200.19196191 27.35735304 201.30390673 27.50912441 202.44954684 27.66549491 C206.91893053 28.27552247 211.3883148 28.88554576 215.85770048 29.49555871 C233.05049848 31.84225293 250.24295366 34.19145689 267.43533976 36.54116658 C272.63047383 37.25119028 277.82562169 37.96111264 283.0208025 38.67079425 C293.9435716 40.16291369 304.86622005 41.65590536 315.78848246 43.15172987 C320.30540533 43.77031997 324.82239178 44.3884349 329.33956146 45.00522041 C333.47226113 45.56953315 337.60476064 46.13528829 341.73710248 46.7022152 C343.23414701 46.90734644 344.7312634 47.11195403 346.22845724 47.31599265 C348.25979149 47.59290892 350.29084 47.87191889 352.32187271 48.15103817 C353.45121868 48.30558434 354.58056466 48.46013052 355.74413323 48.61935991 C358.42718182 49.02172952 361.09250231 49.53849863 363.75286865 50.0705719 C363.75286865 120.3605719 363.75286865 190.6505719 363.75286865 263.0705719 C260.93990257 274.7883206 260.93990257 274.7883206 223.45235895 279.05627052 C220.05213747 279.44338873 216.65191793 279.83052389 213.25169849 280.21765995 C212.5788205 280.29427119 211.90594251 280.37088243 211.21267428 280.44981522 C207.81985455 280.83610901 204.42703513 281.22240546 201.03421599 281.60870439 C200.36365325 281.68505319 199.69309051 281.76140198 199.00220769 281.84006438 C197.64834292 281.99421261 196.29447819 282.14836114 194.94061349 282.30250996 C191.55015823 282.68854034 188.15970191 283.0745614 184.76924348 283.4605639 C152.47329776 287.13745439 120.17796235 290.81954006 87.88467866 294.51974595 C77.08940361 295.75652585 66.29372498 296.9897743 55.49797344 298.22238731 C47.36067075 299.15166225 39.22377662 300.08437344 31.0873884 301.02162188 C25.03224297 301.71881313 18.97646495 302.41033549 12.92041016 303.09958839 C10.51636249 303.37415072 8.11253248 303.65062738 5.70895386 303.92926598 C2.49670029 304.30144672 -0.71626436 304.66673843 -3.92950439 305.0302887 C-4.84022044 305.13754524 -5.75093649 305.24480179 -6.68924999 305.35530853 C-23.02940314 307.17683502 -23.02940314 307.17683502 -29.39068604 304.32423401 C-30.7227433 303.74360451 -30.7227433 303.74360451 -32.08171082 303.15124512 C-33.4861721 302.50609703 -33.4861721 302.50609703 -34.91900635 301.84791565 C-35.93527603 301.39956863 -36.95154572 300.95122162 -37.99861145 300.48928833 C-41.3389663 299.011864 -44.66763781 297.50979136 -47.99713135 296.0080719 C-51.53593678 294.43674557 -55.0776436 292.87208054 -58.61940002 291.30741882 C-61.07390667 290.22238587 -63.52755573 289.13562644 -65.97996521 288.04588318 C-79.44199364 282.0684814 -92.99758533 276.31692734 -106.55963135 270.5705719 C-131.24053327 260.10051933 -131.24053327 260.10051933 -140.7276001 255.9768219 C-141.38794754 255.69149597 -142.04829498 255.40617004 -142.72865295 255.11219788 C-147.12882236 253.18888089 -147.12882236 253.18888089 -148.24713135 252.0705719 C-148.34484641 249.59165219 -148.37709092 247.14062413 -148.36738586 244.66125488 C-148.36824029 243.8763584 -148.36909471 243.09146193 -148.36997503 242.28278071 C-148.37163222 239.63251331 -148.36610458 236.98230815 -148.36065674 234.33204651 C-148.36037489 232.44029746 -148.36053255 230.5485483 -148.36109924 228.65679932 C-148.36138732 223.5041208 -148.355489 218.35146535 -148.34852529 213.19879222 C-148.34229339 207.82024294 -148.34168808 202.4416932 -148.34049988 197.06314087 C-148.33738608 186.87045366 -148.32917203 176.67777711 -148.31915039 166.48509461 C-148.30799076 154.88432622 -148.30247918 143.28355733 -148.29745495 131.68278491 C-148.28698946 107.81204132 -148.26938908 83.94130721 -148.24713135 60.0705719 C-132.24601761 51.96478798 -116.23459058 43.8797744 -100.2106638 35.81918335 C-92.77033074 32.07583573 -85.33349946 28.32582809 -77.90460205 24.55982971 C-71.42785083 21.27653301 -64.94482265 18.00603911 -58.45401424 14.75061512 C-55.01890657 13.02720634 -51.58722696 11.29765326 -48.16299629 9.55271912 C-44.93602866 7.90856034 -41.70089755 6.28172962 -38.45887947 4.6674614 C-36.71184505 3.79212708 -34.97378554 2.89895056 -33.2361145 2.00517273 C-32.18038742 1.48349518 -31.12466034 0.96181763 -30.03694153 0.42433167 C-28.67775777 -0.26148232 -28.67775777 -0.26148232 -27.29111576 -0.96115112 C-18.61065816 -3.72236344 -8.83595849 -1.22637195 0 0 Z M-11.24713135 17.0705719 C-11.24713135 106.1705719 -11.24713135 195.2705719 -11.24713135 287.0705719 C7.43060177 285.37709664 7.43060177 285.37709664 26.07167053 283.39416504 C27.46760524 283.23620462 28.86356403 283.07845685 30.25954407 282.92089754 C34.01628376 282.49627309 37.77267827 282.06866615 41.52901185 281.64046609 C45.60959921 281.17585353 49.69051135 280.71410883 53.77137756 280.25195312 C61.728603 279.35032446 69.68552165 278.44601662 77.64231894 277.54061811 C84.10480099 276.80527695 90.56737743 276.07077087 97.03001976 275.33683968 C117.36904257 273.02695261 137.70773147 270.71414746 158.04616996 268.39912141 C174.09359251 266.57263784 190.14152926 264.75071583 206.18970332 262.93084817 C222.69235218 261.05939495 239.19463123 259.18471158 255.69652051 257.30657202 C264.95216266 256.25321799 274.20795159 255.20119478 283.46413612 254.1526165 C291.32626048 253.26193362 299.18803651 252.36825099 307.04936788 251.47059482 C311.06145043 251.01255728 315.07368367 250.55596085 319.08635712 250.10312653 C322.75288723 249.6893187 326.41894114 249.27153791 330.0846447 248.85047264 C332.05094128 248.62568618 334.01773252 248.40524021 335.98453313 248.18490738 C337.13641093 248.05178069 338.28828872 247.91865401 339.47507191 247.78149319 C340.47737931 247.66752207 341.47968671 247.55355096 342.51236707 247.43612617 C344.71795791 247.30015426 344.71795791 247.30015426 345.75286865 246.0705719 C345.85048205 243.74290176 345.8828463 241.44495171 345.87312317 239.11682129 C345.87397759 238.38092744 345.87483202 237.64503359 345.87571234 236.88683993 C345.87736933 234.40240544 345.87184221 231.91803735 345.86639404 229.43360901 C345.86611219 227.66008506 345.86626986 225.88656099 345.86683655 224.11303711 C345.86712461 219.28266173 345.86122655 214.45231096 345.85426259 209.62194133 C345.84803042 204.57971873 345.84742536 199.53749563 345.84623718 194.49526978 C345.84312346 184.94006963 345.83490953 175.38488087 345.82488769 165.82968575 C345.81372782 154.95441757 345.80821642 144.07914885 345.80319226 133.20387638 C345.79272695 110.8261019 345.77512672 88.44833753 345.75286865 66.0705719 C326.81768855 63.07227748 307.8463589 60.38168576 288.85063493 57.80187488 C284.82149959 57.25416121 280.79272488 56.7038059 276.76390076 56.15380859 C268.91734015 55.08303621 261.0704632 54.01460016 253.22347163 52.94699106 C244.07576433 51.70231522 234.92839193 50.4551864 225.78103209 49.20795998 C209.47265444 46.98441837 193.16399433 44.76295552 176.85516357 42.54273987 C161.03368342 40.3888673 145.21238579 38.23366055 129.39129639 36.07691956 C128.41298406 35.94355565 127.43467173 35.81019174 126.42671358 35.6727865 C124.45581719 35.40411208 122.48492083 35.13543741 120.5140245 34.8667625 C119.54178853 34.73422625 118.56955255 34.60168999 117.56785488 34.46513748 C116.59804488 34.33293132 115.62823488 34.20072516 114.62903669 34.06451274 C99.52444868 32.00547376 84.41971827 29.94747973 69.31496416 27.8896596 C64.75484667 27.26839966 60.19473649 26.64708615 55.63464236 26.02565479 C46.06417917 24.72143308 36.49367005 23.41755066 26.9229958 22.11487851 C22.9673007 21.57645954 19.01163441 21.03783126 15.05604553 20.49863243 C11.44199985 20.00599985 7.8278711 19.51398161 4.21367229 19.02247378 C2.27500869 18.75866545 0.33643481 18.49419806 -1.60213667 18.22971368 C-2.73761409 18.07542767 -3.87309151 17.92114167 -5.04297733 17.76218033 C-6.52495943 17.56038379 -6.52495943 17.56038379 -8.03688055 17.35451055 C-10.04103718 17.04933567 -10.04103718 17.04933567 -11.24713135 17.0705719 Z M-79.24713135 46.0705719 C-79.24713135 117.3505719 -79.24713135 188.6305719 -79.24713135 262.0705719 C-67.49939971 267.58916268 -67.49939971 267.58916268 -55.6338501 272.81666565 C-54.92734818 273.11750565 -54.22084625 273.41834564 -53.49293518 273.728302 C-52.03795187 274.34690309 -50.58240707 274.9641853 -49.12628174 275.58009338 C-46.88915883 276.52732566 -44.65502698 277.48139326 -42.42095947 278.43580627 C-40.99209527 279.04233204 -39.56306534 279.64846755 -38.1338501 280.25416565 C-37.46939377 280.53843918 -36.80493744 280.82271271 -36.12034607 281.11560059 C-32.79931719 282.58728242 -32.79931719 282.58728242 -29.24713135 283.0705719 C-29.24713135 196.9405719 -29.24713135 110.8105719 -29.24713135 22.0705719 C-47.73436418 22.0705719 -62.71164762 37.80283003 -79.24713135 46.0705719 Z M-105.9697876 59.31666565 C-106.96080727 59.81251915 -106.96080727 59.81251915 -107.97184753 60.31838989 C-109.36900179 61.01847852 -110.76518258 61.72051276 -112.16046143 62.42433167 C-114.30230637 63.50437821 -116.44727957 64.57799561 -118.59283447 65.65065002 C-119.94784157 66.33061129 -121.3026656 67.01093752 -122.6572876 67.69166565 C-123.30206558 68.01461105 -123.94684357 68.33755646 -124.61116028 68.67028809 C-127.62867824 70.07603674 -127.62867824 70.07603674 -130.24713135 72.0705719 C-130.34408453 74.23483364 -130.36899899 76.40232443 -130.36738586 78.5687561 C-130.36824029 79.25564732 -130.36909471 79.94253855 -130.36997503 80.65024465 C-130.3716318 82.96884645 -130.36610528 85.28737707 -130.36065674 87.60597229 C-130.36037488 89.26127114 -130.36053257 90.91657012 -130.36109924 92.5718689 C-130.36138728 97.07994122 -130.35548954 101.58798719 -130.34852529 106.09605336 C-130.3422928 110.80194927 -130.34168803 115.50784572 -130.34049988 120.21374512 C-130.33738625 129.13145824 -130.32917244 138.04915917 -130.31915039 146.96686691 C-130.30799022 157.11663487 -130.30247905 167.2664034 -130.29745495 177.41617596 C-130.28698985 198.30098143 -130.26938981 219.1857759 -130.24713135 240.0705719 C-128.64392127 240.87547664 -127.04033296 241.67962804 -125.43658447 242.48345947 C-124.54362671 242.93135173 -123.65066895 243.37924398 -122.73065186 243.84070873 C-118.31055042 246.02958534 -113.78307979 247.94966409 -109.24713135 249.8830719 C-108.30740479 250.28977112 -107.36767822 250.69647034 -106.3994751 251.11549377 C-105.50357666 251.49898987 -104.60767822 251.88248596 -103.68463135 252.27760315 C-102.87896729 252.6228302 -102.07330322 252.96805725 -101.2432251 253.32374573 C-99.29013877 254.18737868 -99.29013877 254.18737868 -97.24713135 254.0705719 C-97.24713135 188.7305719 -97.24713135 123.3905719 -97.24713135 56.0705719 C-100.48642412 56.0705719 -103.13012991 57.88096416 -105.9697876 59.31666565 Z " fill="#62728A" transform="translate(148.24713134765625,103.92942810058594)"/>
<path d="M0 0 C1.21898361 0.1333461 2.43796723 0.26669219 3.69388974 0.40407908 C7.03788415 0.77133538 10.38106146 1.14487829 13.72403431 1.5212512 C17.34439921 1.9272668 20.96567574 2.32499948 24.58683777 2.72383118 C31.66340759 3.50457211 38.73910751 4.29293818 45.81452303 5.08406447 C51.56519993 5.72690823 57.31619178 6.36686194 63.06741714 7.00477982 C63.887917 7.09578929 64.70841686 7.18679877 65.55378035 7.2805661 C67.22086843 7.46546345 68.88795737 7.65035296 70.55504717 7.83523472 C86.15762373 9.56589043 101.75923779 11.30509705 117.36051966 13.04738016 C130.74047784 14.54141074 144.12118334 16.02858471 157.50247192 17.51065063 C173.06078624 19.23384242 188.61866308 20.96089789 204.17583382 22.69438612 C205.83473238 22.87922421 207.49363133 23.06405883 209.15253067 23.24888992 C209.96865159 23.33982414 210.78477252 23.43075835 211.62562438 23.52444815 C217.37103715 24.16435962 223.11674754 24.80155382 228.86257553 25.43772507 C235.86229039 26.21281708 242.86150417 26.99226403 249.86011653 27.77725099 C253.42926677 28.17747359 256.99860257 28.57578079 260.5685482 28.96885109 C264.43942844 29.39512489 268.30922199 29.83076242 272.17895508 30.26733398 C273.30530928 30.3899096 274.43166347 30.51248521 275.59214962 30.63877523 C289.52014419 32.23082918 289.52014419 32.23082918 293.12179661 35.49423981 C294.54836569 38.4693961 294.58904291 40.72305945 294.59620667 44.02322388 C294.61106361 45.95384926 294.61106361 45.95384926 294.6262207 47.92347717 C294.62198269 49.34771824 294.61742483 50.77195838 294.61257935 52.19619751 C294.6182822 53.69767261 294.62524614 55.19914338 294.63337708 56.7006073 C294.6513318 60.77701772 294.65013595 64.85321316 294.64443469 68.92965126 C294.64134657 72.33190512 294.64743099 75.73411746 294.65347344 79.13636541 C294.66752427 87.16139008 294.66595238 95.18630831 294.65457153 103.21133423 C294.64308574 111.49344304 294.65717233 119.77522821 294.68396801 128.05729437 C294.70610886 135.16653142 294.71276617 142.27566676 294.7068916 149.38493586 C294.7035174 153.63170782 294.70596773 157.87827224 294.72314262 162.12501526 C294.73858443 166.11750091 294.73468746 170.10950611 294.71583748 174.10197258 C294.71214406 175.56772201 294.71528201 177.03350682 294.72572327 178.49922371 C294.73888091 180.49880542 294.72501002 182.49851076 294.70973206 184.49807739 C294.70952277 185.61746956 294.70931349 186.73686172 294.70909786 187.89017487 C294.09460611 191.41391635 292.96585679 192.5598576 290.20852661 194.76065063 C287.5586893 196.08556929 285.282691 196.1142278 282.32327271 196.36698914 C281.05861679 196.47698557 279.79396088 196.586982 278.49098206 196.70031166 C277.07131629 196.81954628 275.65164336 196.9386958 274.23196411 197.05776978 C272.72913246 197.1868072 271.22633071 197.31619315 269.72355652 197.44589806 C265.56162651 197.80397938 261.39925998 198.15674194 257.23679733 198.50857043 C253.65733119 198.81175718 250.07812042 199.11790058 246.49890804 199.42406636 C235.54917519 200.36067692 224.59875537 201.28908629 213.64816284 202.2155838 C207.12017308 202.76794049 200.59232391 203.32194794 194.06448364 203.87606812 C168.3629309 206.05706065 142.66022313 208.2239803 116.95619202 210.3755703 C103.50571864 211.50157564 90.05566809 212.63239907 76.60610485 213.76922554 C66.94609869 214.5853357 57.28564717 215.39603176 47.62485218 216.20274979 C41.92708839 216.6786821 36.22953844 217.15688177 30.5324707 217.64108086 C25.23291952 218.0913959 19.93284426 218.53495 14.63230515 218.97347832 C12.70732622 219.1338839 10.78254186 219.29664711 8.85799026 219.46210098 C-0.1909517 220.23874829 -9.23830105 220.91670804 -18.3210144 221.10697937 C-19.01983954 221.13470788 -19.71866468 221.1624364 -20.43866634 221.19100517 C-23.83418427 221.21600728 -25.49402517 220.99528421 -28.19587708 218.86400509 C-31.23275853 214.86071297 -30.93712347 211.43721672 -30.93191528 206.58137512 C-30.93488641 205.72564811 -30.93785753 204.86992109 -30.94091868 203.98826295 C-30.9496309 201.10403282 -30.95111606 198.21984407 -30.9526062 195.33560181 C-30.95723259 193.27447927 -30.96225701 191.2133576 -30.96765137 189.15223694 C-30.98079467 183.54062869 -30.98722409 177.92903242 -30.99166203 172.31741118 C-30.99458966 168.81406158 -30.99869388 165.31071527 -31.0031662 161.80736732 C-31.01684625 150.85366747 -31.0265104 139.89997512 -31.03036809 128.94626731 C-31.03485015 116.28800678 -31.05240282 103.62985417 -31.08136868 90.97162646 C-31.10296282 81.19663971 -31.11307116 71.42168338 -31.11440921 61.64667302 C-31.11545887 55.80417794 -31.12140088 49.96178423 -31.13922882 44.11931419 C-31.15567027 38.62412386 -31.1578841 33.12911152 -31.14908981 27.63390541 C-31.14831733 25.61546478 -31.15268985 23.59701473 -31.16254807 21.57859802 C-31.17520589 18.82581065 -31.16942438 16.07365954 -31.15896606 13.32087708 C-31.16702247 12.51970638 -31.17507887 11.71853568 -31.18337941 10.89308709 C-31.14290926 6.34708899 -30.63892696 3.36430704 -27.79147339 -0.23934937 C-20.41438913 -3.92789149 -7.9733846 -0.91010127 0 0 Z M-12.79147339 17.76065063 C-12.79147339 78.81065063 -12.79147339 139.86065063 -12.79147339 202.76065063 C-1.90147339 201.77065063 8.98852661 200.78065063 20.20852661 199.76065063 C20.20852661 140.69065063 20.20852661 81.62065063 20.20852661 20.76065063 C3.74492695 18.62761831 3.74492695 18.62761831 -12.79147339 17.76065063 Z M38.20852661 22.76065063 C38.20852661 80.51065063 38.20852661 138.26065063 38.20852661 197.76065063 C49.56145086 197.76065063 60.89828268 196.74415011 72.20852661 195.76065063 C72.20852661 139.99065063 72.20852661 84.22065063 72.20852661 26.76065063 C60.98852661 25.44065063 49.76852661 24.12065063 38.20852661 22.76065063 Z M90.20852661 28.76065063 C90.20852661 83.21065063 90.20852661 137.66065063 90.20852661 193.76065063 C106.68035687 193.65236722 106.68035687 193.65236722 123.20852661 190.76065063 C123.20852661 138.62065063 123.20852661 86.48065063 123.20852661 32.76065063 C112.2787755 30.93902545 101.23912756 29.81118406 90.20852661 28.76065063 Z M141.20852661 34.76065063 C141.20852661 85.91065063 141.20852661 137.06065063 141.20852661 189.76065063 C157.80173855 188.9502627 157.80173855 188.9502627 174.20852661 186.76065063 C174.20852661 137.59065063 174.20852661 88.42065063 174.20852661 37.76065063 C157.74230479 35.6507726 157.74230479 35.6507726 141.20852661 34.76065063 Z M192.20852661 40.76065063 C192.20852661 88.28065063 192.20852661 135.80065063 192.20852661 184.76065063 C205.73337285 184.95026882 205.73337285 184.95026882 225.20852661 182.76065063 C225.20852661 136.89065063 225.20852661 91.02065063 225.20852661 43.76065063 C208.75117343 41.57564642 208.75117343 41.57564642 192.20852661 40.76065063 Z M243.20852661 45.76065063 C243.20852661 90.31065063 243.20852661 134.86065063 243.20852661 180.76065063 C254.22871011 180.76065063 265.22977252 179.7153249 276.20852661 178.76065063 C276.20852661 136.19065063 276.20852661 93.62065063 276.20852661 49.76065063 C265.2787755 47.93902545 254.23912756 46.81118406 243.20852661 45.76065063 Z " fill="#63728A" transform="translate(183.79147338867188,146.23934936523438)"/>
<path d="M0 0 C3.16052795 3.98513971 3.37879581 7.19166899 3.38818359 12.18945312 C3.39344055 12.89416245 3.39869751 13.59887177 3.40411377 14.32493591 C3.41726902 16.64393575 3.40859206 18.96224372 3.3984375 21.28125 C3.40045953 22.89880505 3.40337205 24.5163592 3.40713501 26.13391113 C3.41155228 29.5198639 3.40514667 32.90557884 3.39111328 36.29150391 C3.37402159 40.62597841 3.38386599 44.9598956 3.40183067 49.29434967 C3.41268473 52.63328226 3.40921476 55.97208329 3.4014473 59.3110199 C3.39944977 60.90897183 3.40188884 62.5069358 3.40888596 64.10487366 C3.41652737 66.34041872 3.40485971 68.5750683 3.38818359 70.81054688 C3.38579681 72.08119995 3.38341003 73.35185303 3.38095093 74.66101074 C2.9706074 78.25762259 2.1721564 80.13564851 0 83 C-2.90946943 84.7299548 -4.6749642 85.00663338 -8.0625 84.9375 C-11.87471036 83.72083712 -12.86035767 82.35706308 -15 79 C-15.5146637 75.58508301 -15.5146637 75.58508301 -15.53344727 71.62695312 C-15.54206284 70.90273666 -15.55067841 70.1785202 -15.55955505 69.43235779 C-15.58218159 67.04828737 -15.5754835 64.66539549 -15.56640625 62.28125 C-15.57164305 60.61885225 -15.57791973 58.95645748 -15.58518982 57.29406738 C-15.59558761 53.81390375 -15.59104128 50.33414917 -15.57641602 46.85400391 C-15.55922148 42.39817617 -15.58273379 37.94363715 -15.61790562 33.48795319 C-15.63988379 30.05633021 -15.63843736 26.62501549 -15.6301403 23.19334412 C-15.62932115 21.55072109 -15.63617787 19.90807535 -15.65091133 18.26551819 C-15.66836823 15.96722555 -15.65380988 13.67124713 -15.63110352 11.37304688 C-15.63014175 10.06686401 -15.62917999 8.76068115 -15.62818909 7.41491699 C-14.84031876 3.13195218 -13.36822432 1.67326106 -10 -1 C-5.95205481 -2.34931506 -3.92892826 -1.54350753 0 0 Z " fill="#62728A" transform="translate(100,223)"/>
<path d="M0 0 C3.29732139 3.28444963 3.38710899 5.97967827 3.41992188 10.52514648 C3.42839142 11.17118835 3.43686096 11.81723022 3.44558716 12.48284912 C3.46893243 14.61246579 3.46998001 16.74135895 3.46875 18.87109375 C3.47585309 20.35555814 3.4835523 21.84001979 3.49182129 23.32447815 C3.50526032 26.43392572 3.50683757 29.54311942 3.50097656 32.65258789 C3.4950805 36.63202597 3.52566874 40.61024397 3.56609344 44.58944607 C3.59197769 47.65475495 3.5948473 50.71977031 3.59120178 53.78517342 C3.59289236 55.25197479 3.6025291 56.7187898 3.62034607 58.18548393 C3.64255394 60.239633 3.63283018 62.29131637 3.61523438 64.34545898 C3.61728882 65.51253891 3.61934326 66.67961884 3.62145996 67.88206482 C2.81508568 71.92773616 1.14549139 73.42382271 -2 76 C-5.02648335 76.90738141 -6.7496807 76.46433133 -10 76 C-12.96858157 73.79259319 -13.82865791 72.51402627 -15 69 C-15.1041017 66.95653471 -15.14860547 64.90984642 -15.16113281 62.86376953 C-15.17074036 61.59880646 -15.1803479 60.33384338 -15.19024658 59.0305481 C-15.1950945 57.6479714 -15.19937335 56.26539261 -15.203125 54.8828125 C-15.20887891 53.46418252 -15.21463661 52.04555256 -15.22039795 50.62692261 C-15.23089889 47.65280801 -15.23674753 44.67872037 -15.24023438 41.70458984 C-15.24571822 37.89920711 -15.26974732 34.09418233 -15.29820633 30.28891182 C-15.31685715 27.35833708 -15.32203959 24.42784816 -15.32357025 21.49721909 C-15.32659165 20.094624 -15.33460292 18.69203024 -15.34775543 17.28949356 C-15.36486554 15.32474125 -15.36108369 13.35984087 -15.35644531 11.39501953 C-15.36009094 10.27821808 -15.36373657 9.16141663 -15.36749268 8.01077271 C-14.95186205 4.60561819 -14.02666723 2.74274612 -12 0 C-7.67308046 -2.76442082 -4.60968062 -1.87801803 0 0 Z " fill="#627389" transform="translate(40,223)"/>
</svg>
