<?xml version="1.0" encoding="UTF-8"?>
<svg version="1.1" xmlns="http://www.w3.org/2000/svg" width="512" height="512">
<path d="M0 0 C0.74188545 0.11357495 1.48377089 0.2271499 2.24813771 0.34416652 C21.43592789 3.28479337 40.60498567 6.3398403 59.76869822 9.43300581 C70.83206098 11.21767323 81.89987241 12.97242517 92.97119141 14.70703125 C94.15053771 14.89181955 94.15053771 14.89181955 95.35370919 15.08034095 C99.30518457 15.69932577 103.25673788 16.31781146 107.20833158 16.9360404 C114.9269256 18.14375098 122.64501 19.35470608 130.362854 20.56719971 C131.11028052 20.68462128 131.85770704 20.80204285 132.62778285 20.92302266 C151.19788191 23.84154403 169.76028408 26.80812606 188.32029724 29.79006958 C189.45206186 29.97156319 190.58382648 30.1530568 191.74988699 30.34005022 C193.953242 30.69373554 196.15639655 31.0486723 198.35933161 31.40496397 C204.03854632 32.31860113 209.72094723 33.18879224 215.41519928 34.00388336 C216.60438312 34.17708768 217.79356696 34.350292 219.01878667 34.52874494 C221.28773546 34.85746148 223.55799305 35.17731119 225.8296535 35.4867332 C226.8470213 35.63521055 227.86438909 35.78368791 228.91258621 35.93666458 C229.80407907 36.06110294 230.69557192 36.18554129 231.61407971 36.31375051 C234.87088332 37.13792618 237.74084494 38.55334494 240.140625 40.953125 C240.25450867 42.44066176 240.30017429 43.93350528 240.31762695 45.42529297 C240.33046219 46.37653046 240.34329742 47.32776794 240.35652161 48.30783081 C240.36760201 49.86088425 240.36760201 49.86088425 240.37890625 51.4453125 C240.386978 52.50219269 240.39504974 53.55907288 240.40336609 54.64797974 C240.4172248 56.88916371 240.42793892 59.13036896 240.43579102 61.37158203 C240.45301766 64.80671962 240.49689018 68.24089861 240.54101562 71.67578125 C240.55114067 73.84895123 240.55965736 76.02212942 240.56640625 78.1953125 C240.58391434 79.226633 240.60142242 80.25795349 240.61946106 81.32052612 C240.61507271 82.75683884 240.61507271 82.75683884 240.6105957 84.22216797 C240.61939507 85.48672318 240.61939507 85.48672318 240.62837219 86.77682495 C240.140625 88.953125 240.140625 88.953125 238.32707214 90.73049927 C235.14589692 92.50936078 232.49914811 92.24086175 228.890625 92.140625 C227.62734375 92.11355469 226.3640625 92.08648437 225.0625 92.05859375 C224.09828125 92.02378906 223.1340625 91.98898438 222.140625 91.953125 C222.15633545 92.68950195 222.1720459 93.42587891 222.18823242 94.18457031 C222.25062972 97.52401029 222.28963118 100.86332755 222.328125 104.203125 C222.36583008 105.94142578 222.36583008 105.94142578 222.40429688 107.71484375 C222.41396484 108.82988281 222.42363281 109.94492188 222.43359375 111.09375 C222.4493042 112.12016602 222.46501465 113.14658203 222.48120117 114.20410156 C222.07852691 117.45436119 221.60409582 118.78353296 219.140625 120.953125 C216.22973633 121.40722656 216.22973633 121.40722656 212.72265625 121.34375 C211.46904297 121.33085937 210.21542969 121.31796875 208.92382812 121.3046875 C206.95833008 121.25441406 206.95833008 121.25441406 204.953125 121.203125 C203.6178649 121.18305807 202.28257617 121.16480762 200.94726562 121.1484375 C197.67766354 121.10122303 194.40950308 121.03537684 191.140625 120.953125 C191.15061775 121.86394585 191.15061775 121.86394585 191.16081238 122.79316711 C191.22709387 129.1031872 191.27239564 135.41310868 191.30541992 141.72338867 C191.32052247 144.07954931 191.34100591 146.43568177 191.36694336 148.79174805 C191.40326156 152.17503812 191.42033667 155.55795708 191.43359375 158.94140625 C191.44907761 159.99773758 191.46456146 161.05406891 191.48051453 162.14241028 C191.48074112 163.12320053 191.48096771 164.10399078 191.48120117 165.11450195 C191.49119392 166.41022881 191.49119392 166.41022881 191.50138855 167.73213196 C191.06035811 170.44727748 190.29506138 171.29606727 188.140625 172.953125 C185.8359375 173.76171875 185.8359375 173.76171875 183.265625 174.390625 C178.1137451 175.8400606 174.69279539 177.48376302 171.765625 182.140625 C170.72371298 186.82922909 170.79819192 191.50668326 173.15234375 195.796875 C175.69761825 199.07281189 178.08535533 201.12363802 182.140625 201.953125 C187.06605664 202.09933447 190.2974041 201.50996899 194.453125 198.765625 C197.25514807 196.05035622 197.25514807 196.05035622 199.078125 192.640625 C201.140625 189.953125 201.140625 189.953125 204.703125 189.390625 C208.140625 189.953125 208.140625 189.953125 210.078125 191.078125 C211.72578536 193.98576094 211.64145496 195.63512653 211.140625 198.953125 C207.92381528 206.11588798 202.54780058 210.68167461 196.140625 214.953125 C197.00042969 215.61957031 197.86023438 216.28601563 198.74609375 216.97265625 C205.45458485 222.19536773 212.0547532 227.51060351 218.51977539 233.03198242 C222.51774334 236.44213971 226.58671395 239.74629653 230.703125 243.01171875 C234.17153855 245.77422121 237.59492843 248.59057782 241.0234375 251.40234375 C244.71973111 254.43088071 248.43063574 257.44139458 252.140625 260.453125 C258.48590496 265.6052754 264.81886207 270.77213132 271.140625 275.953125 C273.09872777 277.55757309 275.05706048 279.1617406 277.015625 280.765625 C277.87929688 281.47332031 278.74296875 282.18101562 279.6328125 282.91015625 C281.37022031 284.32552118 283.12697698 285.71733822 284.8984375 287.08984375 C287.140625 288.953125 287.140625 288.953125 288.140625 290.953125 C288.24042964 292.31231784 288.27998005 293.67620219 288.28779602 295.03903198 C288.29852898 296.32185059 288.29852898 296.32185059 288.30947876 297.63058472 C288.31216766 298.57088531 288.31485657 299.51118591 288.31762695 300.47998047 C288.32419815 301.46871155 288.33076935 302.45744263 288.33753967 303.47613525 C288.35729772 306.75752837 288.36893977 310.03887572 288.37890625 313.3203125 C288.38298178 314.43880711 288.3870573 315.55730171 288.39125633 316.70969009 C288.412126 322.6275845 288.42642485 328.54545564 288.43579102 334.46337891 C288.44686801 340.58600879 288.48128049 346.70827649 288.52096272 352.83077812 C288.54706245 357.53016858 288.55547686 362.2294718 288.55907249 366.92892838 C288.56395426 369.18642757 288.57561311 371.44392247 288.59411049 373.70135117 C288.61836428 376.85702285 288.61756211 380.01174483 288.6105957 383.16748047 C288.62981079 384.57185867 288.62981079 384.57185867 288.64941406 386.00460815 C288.63899834 387.29588623 288.63899834 387.29588623 288.62837219 388.61325073 C288.63076055 389.359149 288.6331489 390.10504726 288.63560963 390.87354851 C287.89055809 394.0037299 286.75802914 395.09119033 284.140625 396.953125 C281.31537494 397.34596691 278.87992792 397.49388421 276.05578613 397.46105957 C275.23439667 397.46729953 274.41300721 397.4735395 273.56672716 397.47996855 C270.81047005 397.49594155 268.05509202 397.48327767 265.29882812 397.47070312 C263.32445255 397.47612233 261.35008101 397.48324386 259.37571716 397.49194336 C254.01005355 397.51020352 248.64469703 397.50309801 243.27902794 397.49042702 C237.66879817 397.48031333 232.05859503 397.48968816 226.44836426 397.49597168 C217.02623769 397.50325283 207.60423645 397.49364806 198.18212891 397.47460938 C187.28252446 397.4528398 176.38321927 397.45989083 165.48362207 397.481915 C156.1323625 397.50005562 146.78119311 397.50263385 137.42992163 397.49216032 C131.84178606 397.48591805 126.25379125 397.48510995 120.66566467 397.49830627 C115.4124911 397.50984465 110.15970407 397.50187576 104.90657234 397.47872925 C102.976412 397.4734314 101.04621923 397.47497424 99.1160717 397.48377991 C96.48542703 397.49467661 93.85602866 397.48104354 91.22546387 397.46105957 C90.07391272 397.4744439 90.07391272 397.4744439 88.89909792 397.48809862 C85.48178285 397.43758424 83.48294179 397.19697811 80.66748905 395.19135952 C78.98755033 392.72873239 78.63710279 391.57865839 78.6259613 388.63343811 C78.60687462 387.34866325 78.60687462 387.34866325 78.58740234 386.03793335 C78.59392822 385.10639435 78.6004541 384.17485535 78.60717773 383.21508789 C78.59856216 382.22767105 78.58994659 381.24025421 78.58106995 380.22291565 C78.55835611 376.95693798 78.56515927 373.69181463 78.57421875 370.42578125 C78.56898539 368.15660852 78.56270997 365.88743798 78.55543518 363.61827087 C78.54502078 358.86105111 78.54960728 354.10413028 78.56420898 349.34692383 C78.58139332 343.24892629 78.55791042 337.15187126 78.52271938 331.05397892 C78.50076368 326.36736297 78.5021826 321.68097313 78.5104847 316.99432182 C78.5113053 314.74603683 78.50442111 312.49773541 78.48971367 310.24949837 C78.47230337 307.10592785 78.48678249 303.96405854 78.50952148 300.82055664 C78.49782928 299.89104187 78.48613708 298.9615271 78.47409058 298.00384521 C78.5407993 293.47362502 78.63100989 291.58596647 81.55726624 287.95213318 C82.40977463 287.29246048 83.26228302 286.63278778 84.140625 285.953125 C84.78902344 285.34210938 85.43742187 284.73109375 86.10546875 284.1015625 C91.13669991 279.57843587 96.36466493 275.37845162 101.70483398 271.23193359 C105.76800383 268.06547454 109.72953867 264.80514304 113.640625 261.453125 C118.03407625 257.68921706 122.50665522 254.06105378 127.078125 250.515625 C131.88229603 246.78733263 136.54843091 242.93944471 141.140625 238.953125 C147.43718972 233.49009795 153.93370885 228.3275929 160.51855469 223.21826172 C164.42523747 220.17123731 168.2797502 217.05783768 172.140625 213.953125 C171.46515625 213.39625 170.7896875 212.839375 170.09375 212.265625 C161.68097114 205.06856563 157.77975337 199.3670141 156.828125 188.328125 C156.94556632 181.42518525 159.57715507 174.5397946 163.765625 169.078125 C167.140625 165.953125 167.140625 165.953125 177.140625 160.953125 C177.470625 147.753125 177.800625 134.553125 178.140625 120.953125 C169.06064345 121.07172165 169.06064345 121.07172165 159.98120117 121.22338867 C158.85174072 121.23088135 157.72228027 121.23837402 156.55859375 121.24609375 C154.82258911 121.26965942 154.82258911 121.26965942 153.05151367 121.29370117 C150.140625 120.953125 150.140625 120.953125 147.140625 117.953125 C147.140625 109.373125 147.140625 100.793125 147.140625 91.953125 C76.190625 91.953125 5.240625 91.953125 -67.859375 91.953125 C-67.859375 206.463125 -67.859375 320.973125 -67.859375 438.953125 C-64.889375 439.613125 -61.919375 440.273125 -58.859375 440.953125 C-48.13470237 445.75100486 -41.21194347 453.1397127 -36.859375 463.953125 C-35.14956398 468.90445274 -34.35545863 473.71239476 -34.859375 478.953125 C-36.02306366 481.12492466 -36.02306366 481.12492466 -37.859375 482.953125 C-40.42218781 483.45369625 -40.42218781 483.45369625 -43.55285645 483.45433044 C-44.73904068 483.46416458 -45.92522491 483.47399872 -47.14735413 483.48413086 C-48.4503093 483.47446289 -49.75326447 483.46479492 -51.09570312 483.45483398 C-52.48042856 483.4586166 -53.86515022 483.46411616 -55.24986267 483.47120667 C-59.01232358 483.48518646 -62.77432849 483.47397421 -66.53676414 483.45749545 C-70.4711685 483.44366121 -74.40554594 483.45010317 -78.33996582 483.45362854 C-84.94758467 483.45633196 -91.555022 483.44284385 -98.16259766 483.41967773 C-105.80563254 483.39306707 -113.4483639 483.39132035 -121.09142923 483.4030661 C-128.43895768 483.41383941 -135.78637616 483.40766036 -143.13389587 483.39351082 C-146.26304214 483.3877471 -149.39210803 483.3878367 -152.52125549 483.39257622 C-156.20507865 483.39734305 -159.88856878 483.38725697 -163.57232857 483.36562157 C-165.57200147 483.35738791 -167.57171796 483.3639103 -169.57139587 483.37081909 C-170.75758011 483.36091446 -171.94376434 483.35100983 -173.16589355 483.34080505 C-174.19901421 483.33837516 -175.23213486 483.33594526 -176.29656219 483.33344173 C-178.859375 482.953125 -178.859375 482.953125 -180.69031525 481.54827976 C-183.00636224 478.38808766 -182.27424741 474.68121456 -181.859375 470.953125 C-179.92972156 460.67772046 -174.19334389 451.33456404 -165.859375 444.953125 C-159.77966449 441.48670217 -154.87019785 439.95467112 -147.859375 438.953125 C-147.859375 324.443125 -147.859375 209.933125 -147.859375 91.953125 C-161.059375 91.953125 -174.259375 91.953125 -187.859375 91.953125 C-192.3626998 87.4498002 -192.3626998 87.4498002 -192.48803711 83.375 C-192.52323959 82.47305908 -192.55844208 81.57111816 -192.5947113 80.6418457 C-192.60857376 79.67206787 -192.62243622 78.70229004 -192.63671875 77.703125 C-192.65714737 76.69403076 -192.67757599 75.68493652 -192.69862366 74.64526367 C-192.73201628 72.50698088 -192.75397674 70.36849357 -192.76538086 68.22998047 C-192.79652559 64.98948031 -192.90757103 61.75803095 -193.02148438 58.51953125 C-193.33136027 41.48344653 -193.33136027 41.48344653 -188.2276001 35.41996765 C-185.89947602 33.07794598 -183.4318908 31.02679624 -180.859375 28.953125 C-179.5461678 27.59578025 -178.25473612 26.2166837 -176.99609375 24.80859375 C-175.84695145 23.58537612 -174.6972139 22.36271739 -173.546875 21.140625 C-172.27204728 19.78263482 -170.99731006 18.42455968 -169.72265625 17.06640625 C-167.78344028 15.00141392 -165.84393376 12.93669675 -163.90380859 10.87255859 C-162.01241175 8.85922834 -160.12320287 6.84386518 -158.234375 4.828125 C-157.3829895 3.92356567 -157.3829895 3.92356567 -156.5144043 3.00073242 C-153.94821249 0.25944208 -151.45757472 -2.50192066 -149.0859375 -5.4140625 C-128.54798125 -29.69929497 -29.4248459 -4.50836259 0 0 Z M-134.859375 2.953125 C-134.859375 12.193125 -134.859375 21.433125 -134.859375 30.953125 C-128.23908458 26.74021291 -121.73008753 22.5652646 -115.359375 18.015625 C-114.63886963 17.50346436 -113.91836426 16.99130371 -113.17602539 16.46362305 C-111.06826766 14.96318932 -108.96364874 13.458439 -106.859375 11.953125 C-106.25335449 11.52193359 -105.64733398 11.09074219 -105.02294922 10.64648438 C-100.38567589 7.3741696 -100.38567589 7.3741696 -95.859375 3.953125 C-95.859375 3.623125 -95.859375 3.293125 -95.859375 2.953125 C-108.729375 2.953125 -121.599375 2.953125 -134.859375 2.953125 Z M-67.859375 4.953125 C-67.859375 15.843125 -67.859375 26.733125 -67.859375 37.953125 C3.420625 37.953125 74.700625 37.953125 148.140625 37.953125 C148.140625 37.623125 148.140625 37.293125 148.140625 36.953125 C120.86447893 32.77541065 93.58755639 28.60279999 66.3096981 24.4362793 C53.64440649 22.50161392 40.97937521 20.56527338 28.31494141 18.625 C17.27782961 16.93404724 6.24024424 15.24622647 -4.79792345 13.56217957 C-10.64358782 12.67021879 -16.48900147 11.77668158 -22.33385086 10.87939453 C-27.83412435 10.03505653 -33.3350209 9.19490476 -38.83642578 8.35797119 C-40.85629247 8.04993026 -42.8759259 7.74035539 -44.89530563 7.42913818 C-47.65140419 7.00461551 -50.40828719 6.58560896 -53.16543579 6.16796875 C-53.96505788 6.0434584 -54.76467998 5.91894806 -55.58853304 5.79066467 C-56.33199241 5.67919601 -57.07545177 5.56772736 -57.8414402 5.45288086 C-58.79491795 5.30706825 -58.79491795 5.30706825 -59.76765788 5.15830994 C-62.4528757 4.89490613 -65.16126894 4.953125 -67.859375 4.953125 Z M-88.671875 14.578125 C-89.36949951 15.06087891 -90.06712402 15.54363281 -90.78588867 16.04101562 C-92.31517363 17.10061436 -93.84352821 18.16155677 -95.37109375 19.22363281 C-97.08864095 20.41742248 -98.80747201 21.60936638 -100.52734375 22.79980469 C-103.24461727 24.68077042 -105.95866805 26.56629931 -108.671875 28.453125 C-109.53723877 29.05205566 -110.40260254 29.65098633 -111.29418945 30.26806641 C-112.105896 30.83444824 -112.91760254 31.40083008 -113.75390625 31.984375 C-114.83442261 32.73557617 -114.83442261 32.73557617 -115.93676758 33.50195312 C-118.13987931 35.09523873 -118.13987931 35.09523873 -120.859375 37.953125 C-107.659375 37.953125 -94.459375 37.953125 -80.859375 37.953125 C-80.859375 28.713125 -80.859375 19.473125 -80.859375 9.953125 C-83.40965215 9.953125 -86.5566509 13.10868045 -88.671875 14.578125 Z M-150.25463867 15.29492188 C-152.18965736 17.34373384 -154.12185702 19.39490672 -156.046875 21.453125 C-156.70751953 22.14921875 -157.36816406 22.8453125 -158.04882812 23.5625 C-159.02819336 24.60664062 -159.02819336 24.60664062 -160.02734375 25.671875 C-160.61797607 26.30029297 -161.2086084 26.92871094 -161.81713867 27.57617188 C-164.66902086 30.89546954 -167.23366579 34.45217939 -169.859375 37.953125 C-162.599375 37.953125 -155.339375 37.953125 -147.859375 37.953125 C-147.859375 30.033125 -147.859375 22.113125 -147.859375 13.953125 C-149.06187186 13.83759806 -149.06187186 13.83759806 -150.25463867 15.29492188 Z M-178.859375 50.953125 C-178.859375 60.193125 -178.859375 69.433125 -178.859375 78.953125 C-174.42887726 78.96121185 -169.99837952 78.96929871 -165.43362427 78.97763062 C-124.8453857 79.0526371 -84.25717727 79.13750136 -43.66898198 79.23317661 C-38.35402853 79.24569613 -33.03907487 79.2581288 -27.72412109 79.27050781 C-26.13689158 79.2742068 -26.13689158 79.2742068 -24.51759683 79.27798052 C-7.36326191 79.31775088 9.79107962 79.35047925 26.94543384 79.38062482 C44.53523649 79.41169161 62.12501093 79.45028039 79.71478188 79.49591506 C90.57671209 79.52385612 101.43862156 79.54586469 112.30057813 79.56038751 C119.7396516 79.57089473 127.178685 79.58867976 134.61772834 79.61229204 C138.91560305 79.62571575 143.21342139 79.63583097 147.51131821 79.63733864 C151.44054672 79.63878746 155.3696392 79.64930651 159.29882599 79.66725941 C160.7254932 79.67213754 162.15217675 79.6735919 163.57885061 79.67140381 C165.50790373 79.66892943 167.43696056 79.67977101 169.36598015 79.69141197 C170.44058868 79.69369029 171.51519722 79.69596862 172.62236965 79.69831598 C175.140625 79.953125 175.140625 79.953125 177.140625 81.953125 C177.68906375 87.10844926 177.68906375 87.10844926 176.0703125 89.6015625 C171.79608657 92.59525111 165.10055055 91.72560548 160.140625 91.953125 C160.140625 97.563125 160.140625 103.173125 160.140625 108.953125 C176.310625 108.953125 192.480625 108.953125 209.140625 108.953125 C209.140625 103.343125 209.140625 97.733125 209.140625 91.953125 C207.87605469 91.91574219 206.61148437 91.87835938 205.30859375 91.83984375 C203.6484077 91.77418667 201.98825278 91.70773924 200.328125 91.640625 C199.49474609 91.61806641 198.66136719 91.59550781 197.80273438 91.57226562 C197.00029297 91.53681641 196.19785156 91.50136719 195.37109375 91.46484375 C194.26350708 91.42556763 194.26350708 91.42556763 193.13354492 91.38549805 C190.60746059 90.83745255 189.68810908 89.99907896 188.140625 87.953125 C187.828125 84.890625 187.828125 84.890625 188.140625 81.953125 C191.11917856 78.97457144 194.43087323 79.59687316 198.4296875 79.5390625 C199.24811127 79.51969635 200.06653503 79.5003302 200.90975952 79.4803772 C203.52827476 79.42051418 206.14683381 79.37416968 208.765625 79.328125 C210.53908186 79.28995136 212.31252005 79.25089999 214.0859375 79.2109375 C218.43740385 79.11315174 222.78866727 79.03363834 227.140625 78.953125 C227.140625 69.713125 227.140625 60.473125 227.140625 50.953125 C93.160625 50.953125 -40.819375 50.953125 -178.859375 50.953125 Z M-134.859375 91.953125 C-134.859375 94.593125 -134.859375 97.233125 -134.859375 99.953125 C-125.37526919 104.79231843 -115.79229839 109.34506583 -106.08862305 113.72509766 C-103.89833459 114.71375068 -101.70977618 115.70615514 -99.52148438 116.69921875 C-98.10426316 117.34135884 -96.68694885 117.98329352 -95.26953125 118.625 C-94.62774429 118.91566345 -93.98595734 119.2063269 -93.32472229 119.50579834 C-89.18854802 121.37215515 -85.03174834 123.164965 -80.859375 124.953125 C-80.859375 114.063125 -80.859375 103.173125 -80.859375 91.953125 C-98.679375 91.953125 -116.499375 91.953125 -134.859375 91.953125 Z M-134.859375 114.953125 C-134.859375 128.483125 -134.859375 142.013125 -134.859375 155.953125 C-128.56219214 153.43425186 -122.37259484 150.89750317 -116.2265625 148.0625 C-115.4638504 147.71302307 -114.70113831 147.36354614 -113.91531372 147.003479 C-111.52062744 145.90561076 -109.12747938 144.80443647 -106.734375 143.703125 C-105.09385143 142.95029976 -103.45322722 142.19769379 -101.8125 141.4453125 C-97.82696006 139.61710958 -93.84279429 137.78594366 -89.859375 135.953125 C-91.452885 132.766105 -94.72865196 132.00526656 -97.859375 130.6171875 C-98.56908447 130.29656342 -99.27879395 129.97593933 -100.01000977 129.64559937 C-102.29047567 128.61708476 -104.57482877 127.59753944 -106.859375 126.578125 C-108.36875133 125.89901895 -109.87786911 125.21933795 -111.38671875 124.5390625 C-114.93149491 122.94239454 -118.48068061 121.35582865 -122.03125 119.77209473 C-123.64365044 119.04976603 -125.25185171 118.31807947 -126.859375 117.58496094 C-130.70329779 115.65912712 -130.70329779 115.65912712 -134.859375 114.953125 Z M-88.71875 149.0234375 C-89.41897278 149.34214813 -90.11919556 149.66085876 -90.84063721 149.98922729 C-93.09768679 151.01710655 -95.35352296 152.04762061 -97.609375 153.078125 C-99.0845604 153.75016469 -100.55981999 154.42204155 -102.03515625 155.09375 C-110.65525693 159.02094064 -119.26313782 162.97394144 -127.859375 166.953125 C-125.07401054 170.4099019 -121.171156 171.86421241 -117.2265625 173.640625 C-116.47529083 173.98440186 -115.72401917 174.32817871 -114.94998169 174.68237305 C-113.35940486 175.40834965 -111.76731114 176.13101068 -110.17382812 176.85058594 C-107.76035604 177.94138257 -105.35256838 179.04400153 -102.9453125 180.1484375 C-101.39355559 180.85488412 -99.84148177 181.56063512 -98.2890625 182.265625 C-97.57934296 182.59071045 -96.86962341 182.9157959 -96.13839722 183.25073242 C-91.08157224 185.52453693 -86.18137763 187.17912412 -80.859375 188.953125 C-80.859375 174.763125 -80.859375 160.573125 -80.859375 145.953125 C-83.43853719 145.953125 -86.3625681 147.94526153 -88.71875 149.0234375 Z M-134.859375 179.953125 C-134.859375 193.153125 -134.859375 206.353125 -134.859375 219.953125 C-130.14251397 219.00975279 -126.38486533 217.48703384 -122.109375 215.42578125 C-121.00577637 214.90231361 -121.00577637 214.90231361 -119.87988281 214.36827087 C-117.53718285 213.25595119 -115.1981668 212.13613553 -112.859375 211.015625 C-110.51993583 209.90010371 -108.1797529 208.78617327 -105.83886719 207.6736908 C-104.38540179 206.98238154 -102.93287878 206.28908639 -101.48144531 205.59352112 C-97.98228146 203.92370922 -94.48111827 202.33891558 -90.859375 200.953125 C-90.859375 200.293125 -90.859375 199.633125 -90.859375 198.953125 C-96.31881451 196.40102074 -101.78150658 193.8560636 -107.24731445 191.31762695 C-109.10564467 190.45336646 -110.96307652 189.58717151 -112.81958008 188.71899414 C-115.49065169 187.47030211 -118.16489349 186.22863849 -120.83984375 184.98828125 C-121.66711472 184.59971451 -122.49438568 184.21114777 -123.34672546 183.81080627 C-124.12715714 183.45050827 -124.90758881 183.09021027 -125.71166992 182.71899414 C-126.73426155 182.24267296 -126.73426155 182.24267296 -127.7775116 181.75672913 C-130.2874904 180.72003514 -130.2874904 180.72003514 -134.859375 179.953125 Z M-89.921875 214.05859375 C-90.62779785 214.37967606 -91.3337207 214.70075836 -92.06103516 215.03157043 C-93.56152193 215.71498571 -95.06117395 216.4002362 -96.56005859 217.0871582 C-98.82068181 218.12289713 -101.08389903 219.15277262 -103.34765625 220.18164062 C-110.92340326 223.63386785 -118.45673733 227.13926607 -125.859375 230.953125 C-122.41019148 233.82343984 -118.59352221 235.60004267 -114.53125 237.421875 C-113.8234137 237.74345581 -113.11557739 238.06503662 -112.3862915 238.3963623 C-110.89123243 239.07435278 -109.39509223 239.74996363 -107.89794922 240.42333984 C-105.62855683 241.44449379 -103.36287963 242.47354251 -101.09765625 243.50390625 C-99.63823497 244.16453577 -98.178606 244.82470668 -96.71875 245.484375 C-96.05075378 245.78758667 -95.38275757 246.09079834 -94.69451904 246.40319824 C-90.12523117 248.45355436 -85.56963504 250.18677749 -80.859375 251.953125 C-80.859375 238.423125 -80.859375 224.893125 -80.859375 210.953125 C-84.15700588 210.953125 -86.96880512 212.70210817 -89.921875 214.05859375 Z M177.203125 226.953125 C172.50775086 230.9627585 167.76768978 234.89316075 162.9296875 238.73046875 C159.33568963 241.5945931 155.76883831 244.49140791 152.203125 247.390625 C151.51089844 247.95346191 150.81867188 248.51629883 150.10546875 249.09619141 C144.44151039 253.70418022 138.78834552 258.32525082 133.140625 262.953125 C131.30740852 264.45326781 129.47407354 265.95326582 127.640625 267.453125 C126.73957031 268.19046875 125.83851563 268.9278125 124.91015625 269.6875 C123.01217949 271.24014672 121.11371743 272.79220034 119.21484375 274.34375 C117.34278613 275.87382145 115.47163604 277.40500421 113.6015625 278.9375 C112.10949047 280.15957804 110.61529013 281.37907219 109.1171875 282.59375 C107.77336949 283.69151683 106.4530707 284.81803683 105.140625 285.953125 C105.140625 286.283125 105.140625 286.613125 105.140625 286.953125 C156.950625 286.953125 208.760625 286.953125 262.140625 286.953125 C258.84609622 282.83496403 255.82471646 279.93524965 251.703125 276.828125 C246.83229589 273.08285926 242.05929243 269.26035615 237.390625 265.265625 C232.85220713 261.38856411 228.25451536 257.60416784 223.578125 253.89453125 C221.03949558 251.87257801 218.5252917 249.82340231 216.015625 247.765625 C209.36175473 242.31039519 202.68739614 236.88058288 196.00292969 231.46289062 C194.82331116 230.50657692 193.6442097 229.54962475 192.46582031 228.59179688 C191.04689352 227.43897524 189.62513483 226.28964154 188.203125 225.140625 C187.43097656 224.51542969 186.65882813 223.89023438 185.86328125 223.24609375 C182.24446924 220.52993326 180.06146423 224.49049401 177.203125 226.953125 Z M-134.859375 241.953125 C-134.859375 255.483125 -134.859375 269.013125 -134.859375 282.953125 C-128.56219214 280.43425186 -122.37259484 277.89750317 -116.2265625 275.0625 C-115.4638504 274.71302307 -114.70113831 274.36354614 -113.91531372 274.003479 C-111.52062744 272.90561076 -109.12747938 271.80443647 -106.734375 270.703125 C-105.09385143 269.95029976 -103.45322722 269.19769379 -101.8125 268.4453125 C-97.82696006 266.61710958 -93.84279429 264.78594366 -89.859375 262.953125 C-92.49453882 260.31796118 -95.56925677 259.12178513 -98.921875 257.6171875 C-99.62779785 257.29656342 -100.3337207 256.97593933 -101.06103516 256.64559937 C-102.55974052 255.9660187 -104.05944493 255.28863765 -105.56005859 254.61328125 C-107.82493327 253.59363073 -110.08652544 252.56698414 -112.34765625 251.5390625 C-113.80970443 250.87718121 -115.2719386 250.21571057 -116.734375 249.5546875 C-117.39832275 249.25350006 -118.06227051 248.95231262 -118.74633789 248.64199829 C-124.06957045 246.25069472 -129.4263115 244.1263504 -134.859375 241.953125 Z M-88.71875 276.0234375 C-89.41897278 276.34214813 -90.11919556 276.66085876 -90.84063721 276.98922729 C-93.09768679 278.01710655 -95.35352296 279.04762061 -97.609375 280.078125 C-99.0845604 280.75016469 -100.55981999 281.42204155 -102.03515625 282.09375 C-110.65525693 286.02094064 -119.26313782 289.97394144 -127.859375 293.953125 C-124.54129303 296.16517965 -121.07896294 297.81864645 -117.48046875 299.5078125 C-116.39041283 300.02204269 -116.39041283 300.02204269 -115.27833557 300.54666138 C-113.73812506 301.27238178 -112.19733306 301.99686917 -110.65600586 302.72021484 C-108.32805485 303.81348212 -106.00279162 304.9123133 -103.67773438 306.01171875 C-102.17463986 306.71909156 -100.6713893 307.4261329 -99.16796875 308.1328125 C-98.48528427 308.45587372 -97.80259979 308.77893494 -97.09922791 309.11178589 C-91.74368942 311.61729485 -86.37611788 313.74642785 -80.859375 315.953125 C-80.859375 301.763125 -80.859375 287.573125 -80.859375 272.953125 C-83.43853719 272.953125 -86.3625681 274.94526153 -88.71875 276.0234375 Z M92.140625 299.953125 C92.140625 327.673125 92.140625 355.393125 92.140625 383.953125 C152.530625 383.953125 212.920625 383.953125 275.140625 383.953125 C275.140625 356.233125 275.140625 328.513125 275.140625 299.953125 C214.750625 299.953125 154.360625 299.953125 92.140625 299.953125 Z M-134.859375 305.953125 C-134.859375 319.483125 -134.859375 333.013125 -134.859375 346.953125 C-128.56219214 344.43425186 -122.37259484 341.89750317 -116.2265625 339.0625 C-115.4638504 338.71302307 -114.70113831 338.36354614 -113.91531372 338.003479 C-111.52062744 336.90561076 -109.12747938 335.80443647 -106.734375 334.703125 C-105.09385143 333.95029976 -103.45322722 333.19769379 -101.8125 332.4453125 C-97.82696006 330.61710958 -93.84279429 328.78594366 -89.859375 326.953125 C-93.70064244 323.67255556 -98.15900325 321.80669139 -102.7109375 319.72265625 C-103.56618011 319.32737228 -104.42142273 318.93208832 -105.30258179 318.52482605 C-107.10528112 317.6930365 -108.90906914 316.86360289 -110.71386719 316.03637695 C-113.48414358 314.76573115 -116.25007075 313.48596383 -119.015625 312.20507812 C-120.7679776 311.39789114 -122.52057349 310.59123207 -124.2734375 309.78515625 C-125.1036441 309.40083939 -125.93385071 309.01652252 -126.78921509 308.62055969 C-127.55696259 308.26986923 -128.32471008 307.91917877 -129.11572266 307.55786133 C-129.79204742 307.24714188 -130.46837219 306.93642242 -131.16519165 306.61628723 C-132.8665502 305.83162345 -132.8665502 305.83162345 -134.859375 305.953125 Z M-89.2265625 340.27734375 C-89.97592072 340.6206221 -90.72527893 340.96390045 -91.49734497 341.31758118 C-93.91050293 342.42349591 -96.32246106 343.53200015 -98.734375 344.640625 C-100.32283584 345.36931685 -101.91137658 346.09783453 -103.5 346.82617188 C-105.81883251 347.8893545 -108.13759171 348.95269395 -110.45599365 350.01681519 C-116.25073902 352.67634089 -122.05175292 355.32182176 -127.859375 357.953125 C-125.69805596 360.32986686 -123.7139787 361.68265381 -120.80273438 363.02197266 C-119.99179321 363.39891266 -119.18085205 363.77585266 -118.34533691 364.16421509 C-117.03744202 364.75968643 -117.03744202 364.75968643 -115.703125 365.3671875 C-114.80444702 365.78229584 -113.90576904 366.19740417 -112.9798584 366.62509155 C-110.10917997 367.94898713 -107.23428239 369.26344229 -104.359375 370.578125 C-102.42291289 371.47078127 -100.48671175 372.3640039 -98.55078125 373.2578125 C-96.70596413 374.10728131 -94.86091961 374.95625646 -93.015625 375.8046875 C-92.14369507 376.20571686 -91.27176514 376.60674622 -90.37341309 377.01992798 C-89.56247192 377.39056366 -88.75153076 377.76119934 -87.91601562 378.14306641 C-87.20336548 378.46933014 -86.49071533 378.79559387 -85.75646973 379.13174438 C-83.70258142 380.05357853 -83.70258142 380.05357853 -80.859375 380.953125 C-80.859375 366.433125 -80.859375 351.913125 -80.859375 336.953125 C-83.56715898 336.953125 -86.74720721 339.13555938 -89.2265625 340.27734375 Z M-134.859375 370.953125 C-134.859375 384.483125 -134.859375 398.013125 -134.859375 411.953125 C-120.15869861 405.35943927 -105.49813113 398.68308655 -90.859375 391.953125 C-93.63337977 388.54729275 -97.45409208 387.03810865 -101.34375 385.23046875 C-102.07756897 384.88432022 -102.81138794 384.53817169 -103.56744385 384.18153381 C-105.11932773 383.45144327 -106.67273431 382.72458184 -108.22753906 382.00073242 C-110.59083523 380.89926587 -112.94799397 379.78543333 -115.3046875 378.66992188 C-116.81735596 377.96018601 -118.33036622 377.25117806 -119.84375 376.54296875 C-120.54191833 376.21272202 -121.24008667 375.88247528 -121.95941162 375.54222107 C-122.6299054 375.23172318 -123.30039917 374.92122528 -123.99121094 374.60131836 C-124.86033112 374.19519569 -124.86033112 374.19519569 -125.74700928 373.78086853 C-128.70812767 372.62053604 -131.80139723 371.82683294 -134.859375 370.953125 Z M-90.62109375 405.42578125 C-91.79536674 405.96687782 -91.79536674 405.96687782 -92.99336243 406.51890564 C-95.51285016 407.68094247 -98.0298611 408.84824093 -100.546875 410.015625 C-102.19320269 410.77573008 -103.83968546 411.53549938 -105.48632812 412.29492188 C-115.29018539 416.82008904 -125.07839138 421.37875561 -134.859375 425.953125 C-134.859375 430.243125 -134.859375 434.533125 -134.859375 438.953125 C-117.039375 438.953125 -99.219375 438.953125 -80.859375 438.953125 C-80.859375 426.743125 -80.859375 414.533125 -80.859375 401.953125 C-84.37351934 401.953125 -87.47693066 403.96275258 -90.62109375 405.42578125 Z M-157.859375 455.953125 C-159.220625 456.7884375 -159.220625 456.7884375 -160.609375 457.640625 C-163.87234218 460.99423016 -167.859375 466.08740059 -167.859375 470.953125 C-128.589375 470.953125 -89.319375 470.953125 -48.859375 470.953125 C-51.30581374 463.61380879 -54.84066286 458.46763315 -61.609375 454.515625 C-66.43140721 452.19734028 -70.23849373 451.79541081 -75.49267578 451.77612305 C-76.26869644 451.76955185 -77.0447171 451.76298065 -77.84425354 451.75621033 C-80.41439922 451.73648985 -82.98448638 451.72481523 -85.5546875 451.71484375 C-86.43434048 451.71076822 -87.31399345 451.7066927 -88.22030258 451.70249367 C-92.87961339 451.68163453 -97.53889479 451.66733424 -102.19824219 451.65795898 C-106.99649296 451.64691734 -111.79427707 451.61254311 -116.59236336 451.57278728 C-120.29343489 451.54655758 -123.99439653 451.53826134 -127.69555283 451.53467751 C-129.46327731 451.52982502 -131.23099734 451.51824943 -132.99863052 451.49963951 C-145.99107283 451.19347083 -145.99107283 451.19347083 -157.859375 455.953125 Z " fill="#EE4242" transform="translate(207.859375,19.046875)"/>
<path d="M0 0 C1.70354897 -0.01702469 1.70354897 -0.01702469 3.44151306 -0.03439331 C4.6883638 -0.03146271 5.93521454 -0.0285321 7.21984863 -0.0255127 C8.53219986 -0.03398224 9.84455109 -0.04245178 11.19667053 -0.05117798 C14.79787559 -0.07342001 18.39885203 -0.07632342 22.00011635 -0.07443047 C25.0047667 -0.07431091 28.00936836 -0.08286877 31.01400518 -0.09120798 C38.10071902 -0.110451 45.18731505 -0.11332232 52.27404785 -0.10656738 C59.59000421 -0.09992248 66.90545691 -0.12280644 74.22131109 -0.15988111 C80.49910314 -0.19054321 86.77673286 -0.20194207 93.05459833 -0.1980443 C96.80567241 -0.19597348 100.55635447 -0.20150675 104.30735779 -0.22593689 C108.48816471 -0.25226658 112.66790261 -0.23850308 116.84875488 -0.2208252 C118.71903099 -0.24072006 118.71903099 -0.24072006 120.62709045 -0.26101685 C122.33063942 -0.24420364 122.33063942 -0.24420364 124.06860352 -0.22705078 C125.0574781 -0.22776329 126.04635269 -0.2284758 127.06519318 -0.2292099 C129.53430176 0.39440918 129.53430176 0.39440918 131.4227829 2.73012543 C132.53430176 5.39440918 132.53430176 5.39440918 131.78430176 8.64440918 C130.53430176 11.39440918 130.53430176 11.39440918 129.53430176 12.39440918 C127.79498012 12.49724041 126.05146345 12.52961961 124.30911255 12.53485107 C123.17616257 12.54056122 122.04321259 12.54627136 120.87593079 12.55215454 C118.99486885 12.55383133 118.99486885 12.55383133 117.07580566 12.55554199 C115.76374649 12.5605069 114.45168732 12.5654718 113.09986877 12.57058716 C109.49033806 12.58373495 105.88082597 12.59016077 102.27127504 12.59459782 C100.01807051 12.59752482 97.76487112 12.60162891 95.51166916 12.60610199 C88.4674493 12.61978341 81.42324112 12.62944681 74.37900889 12.63330388 C66.23726286 12.63778588 58.09568462 12.65533755 49.95398962 12.68430448 C43.66777151 12.70589631 37.38160068 12.71600683 31.09534585 12.717345 C27.33762382 12.71839487 23.58005936 12.72434085 19.82237625 12.74216461 C15.63200902 12.76165318 11.44199436 12.75736634 7.25158691 12.75085449 C5.37659767 12.76467667 5.37659767 12.76467667 3.46372986 12.77877808 C2.32514023 12.77320892 1.1865506 12.76763977 0.01345825 12.76190186 C-0.97801397 12.76336842 -1.9694862 12.76483498 -2.99100304 12.76634598 C-5.46569824 12.39440918 -5.46569824 12.39440918 -7.28470802 11.05894089 C-9.12221482 8.4690902 -8.85057674 6.47343715 -8.46569824 3.39440918 C-6.08406544 0.04342623 -3.9653781 0.01495211 0 0 Z " fill="#EE4242" transform="translate(204.4656982421875,77.6055908203125)"/>
<path d="M0 0 C3.375 0.9375 3.375 0.9375 5.375 3.9375 C5.59561147 6.93614744 5.70305299 9.83957174 5.7109375 12.83984375 C5.7175943 13.71395401 5.7242511 14.58806427 5.73110962 15.48866272 C5.74123288 17.33706559 5.74592674 19.18550498 5.74560547 21.03393555 C5.74997854 23.86112687 5.78630002 26.68675682 5.82421875 29.51367188 C5.83008701 31.30989049 5.83405634 33.10611653 5.8359375 34.90234375 C5.85030853 35.74723862 5.86467957 36.59213348 5.87948608 37.46263123 C5.84967234 41.29442972 5.81799268 43.30613642 3.57275391 46.50610352 C1.375 47.9375 1.375 47.9375 -2.25 47.875 C-5.625 46.9375 -5.625 46.9375 -7.625 43.9375 C-7.84561147 40.93885256 -7.95305299 38.03542826 -7.9609375 35.03515625 C-7.9675943 34.16104599 -7.9742511 33.28693573 -7.98110962 32.38633728 C-7.99123288 30.53793441 -7.99592674 28.68949502 -7.99560547 26.84106445 C-7.99997854 24.01387313 -8.03630002 21.18824318 -8.07421875 18.36132812 C-8.08008701 16.56510951 -8.08405634 14.76888347 -8.0859375 12.97265625 C-8.10030853 12.12776138 -8.11467957 11.28286652 -8.12948608 10.41236877 C-8.09967234 6.58057028 -8.06799268 4.56886358 -5.82275391 1.36889648 C-3.625 -0.0625 -3.625 -0.0625 0 0 Z " fill="#ED4343" transform="translate(452.625,337.0625)"/>
<path d="M0 0 C3.375 0.9375 3.375 0.9375 5.375 3.9375 C5.59561147 6.93614744 5.70305299 9.83957174 5.7109375 12.83984375 C5.7175943 13.71395401 5.7242511 14.58806427 5.73110962 15.48866272 C5.74123288 17.33706559 5.74592674 19.18550498 5.74560547 21.03393555 C5.74997854 23.86112687 5.78630002 26.68675682 5.82421875 29.51367188 C5.83008701 31.30989049 5.83405634 33.10611653 5.8359375 34.90234375 C5.85030853 35.74723862 5.86467957 36.59213348 5.87948608 37.46263123 C5.84967234 41.29442972 5.81799268 43.30613642 3.57275391 46.50610352 C1.375 47.9375 1.375 47.9375 -2.25 47.875 C-5.625 46.9375 -5.625 46.9375 -7.625 43.9375 C-7.84561147 40.93885256 -7.95305299 38.03542826 -7.9609375 35.03515625 C-7.9675943 34.16104599 -7.9742511 33.28693573 -7.98110962 32.38633728 C-7.99123288 30.53793441 -7.99592674 28.68949502 -7.99560547 26.84106445 C-7.99997854 24.01387313 -8.03630002 21.18824318 -8.07421875 18.36132812 C-8.08008701 16.56510951 -8.08405634 14.76888347 -8.0859375 12.97265625 C-8.10030853 12.12776138 -8.11467957 11.28286652 -8.12948608 10.41236877 C-8.09967234 6.58057028 -8.06799268 4.56886358 -5.82275391 1.36889648 C-3.625 -0.0625 -3.625 -0.0625 0 0 Z " fill="#ED4343" transform="translate(412.625,337.0625)"/>
<path d="M0 0 C3.375 0.9375 3.375 0.9375 5.375 3.9375 C5.59561147 6.93614744 5.70305299 9.83957174 5.7109375 12.83984375 C5.7175943 13.71395401 5.7242511 14.58806427 5.73110962 15.48866272 C5.74123288 17.33706559 5.74592674 19.18550498 5.74560547 21.03393555 C5.74997854 23.86112687 5.78630002 26.68675682 5.82421875 29.51367188 C5.83008701 31.30989049 5.83405634 33.10611653 5.8359375 34.90234375 C5.85030853 35.74723862 5.86467957 36.59213348 5.87948608 37.46263123 C5.84967234 41.29442972 5.81799268 43.30613642 3.57275391 46.50610352 C1.375 47.9375 1.375 47.9375 -2.25 47.875 C-5.625 46.9375 -5.625 46.9375 -7.625 43.9375 C-7.84561147 40.93885256 -7.95305299 38.03542826 -7.9609375 35.03515625 C-7.9675943 34.16104599 -7.9742511 33.28693573 -7.98110962 32.38633728 C-7.99123288 30.53793441 -7.99592674 28.68949502 -7.99560547 26.84106445 C-7.99997854 24.01387313 -8.03630002 21.18824318 -8.07421875 18.36132812 C-8.08008701 16.56510951 -8.08405634 14.76888347 -8.0859375 12.97265625 C-8.10030853 12.12776138 -8.11467957 11.28286652 -8.12948608 10.41236877 C-8.09967234 6.58057028 -8.06799268 4.56886358 -5.82275391 1.36889648 C-3.625 -0.0625 -3.625 -0.0625 0 0 Z " fill="#ED4343" transform="translate(372.625,337.0625)"/>
<path d="M0 0 C3.375 0.9375 3.375 0.9375 5.375 3.9375 C5.59561147 6.93614744 5.70305299 9.83957174 5.7109375 12.83984375 C5.7175943 13.71395401 5.7242511 14.58806427 5.73110962 15.48866272 C5.74123288 17.33706559 5.74592674 19.18550498 5.74560547 21.03393555 C5.74997854 23.86112687 5.78630002 26.68675682 5.82421875 29.51367188 C5.83008701 31.30989049 5.83405634 33.10611653 5.8359375 34.90234375 C5.85030853 35.74723862 5.86467957 36.59213348 5.87948608 37.46263123 C5.84967234 41.29442972 5.81799268 43.30613642 3.57275391 46.50610352 C1.375 47.9375 1.375 47.9375 -2.25 47.875 C-5.625 46.9375 -5.625 46.9375 -7.625 43.9375 C-7.84561147 40.93885256 -7.95305299 38.03542826 -7.9609375 35.03515625 C-7.9675943 34.16104599 -7.9742511 33.28693573 -7.98110962 32.38633728 C-7.99123288 30.53793441 -7.99592674 28.68949502 -7.99560547 26.84106445 C-7.99997854 24.01387313 -8.03630002 21.18824318 -8.07421875 18.36132812 C-8.08008701 16.56510951 -8.08405634 14.76888347 -8.0859375 12.97265625 C-8.10030853 12.12776138 -8.11467957 11.28286652 -8.12948608 10.41236877 C-8.09967234 6.58057028 -8.06799268 4.56886358 -5.82275391 1.36889648 C-3.625 -0.0625 -3.625 -0.0625 0 0 Z " fill="#ED4343" transform="translate(332.625,337.0625)"/>
<path d="M0 0 C1.16273438 -0.02578125 2.32546875 -0.0515625 3.5234375 -0.078125 C6.625 0.25 6.625 0.25 8.515625 1.578125 C10.24929111 4.19083309 10.00586217 6.20310264 9.625 9.25 C8.5078125 10.90625 8.5078125 10.90625 6.625 12.25 C3.59375 12.71875 3.59375 12.71875 0.125 12.75 C-1.59203125 12.79640625 -1.59203125 12.79640625 -3.34375 12.84375 C-6.375 12.25 -6.375 12.25 -8.328125 9.921875 C-9.375 7.25 -9.375 7.25 -8.625 4 C-6.50902633 -0.65514207 -5.00704273 0.06631845 0 0 Z " fill="#EE4242" transform="translate(350.375,77.75)"/>
</svg>
